STARTFONT 2.1
FONT -Efont-Fixed-Bold-I-Normal--14-140-75-75-C-70-ISO10646-1
SIZE 14 75 75
FONTBOUNDINGBOX 11 14 -2 -2
STARTPROPERTIES 18
COPYRIGHT "(c) Copyright 2000-2003 /efont/ The Electronic Font Open Laboratory."
FOUNDRY "Efont"
FAMILY_NAME "Fixed"
WEIGHT_NAME "Bold"
SLANT "I"
SETWIDTH_NAME "Normal"
ADD_STYLE_NAME ""
PIXEL_SIZE 14
POINT_SIZE 140
RESOLUTION_X 75
RESOLUTION_Y 75
AVERAGE_WIDTH 70
CHARSET_REGISTRY "ISO10646"
CHARSET_ENCODING "1"
_MULE_BASELINE_OFFSET -3
FONT_ASCENT 12
FONT_DESCENT 2
DEFAULT_CHAR 32
ENDPROPERTIES
CHARS 2489
STARTCHAR U+0020
ENCODING 32
SWIDTH 500 0
DWIDTH 7 0
BBX 11 14 -2 -2
BITMAP 
0000
0000
0000
0000
0000
0000
0000
0000
0000
0000
0000
0000
0000
0000
ENDCHAR
STARTCHAR U+0021
ENCODING 33
SWIDTH 500 0
DWIDTH 7 0
BBX 11 14 -2 -2
BITMAP 
0000
0000
0000
0600
0600
0600
0c00
0c00
0c00
0000
1800
1800
0000
0000
ENDCHAR
STARTCHAR U+0022
ENCODING 34
SWIDTH 500 0
DWIDTH 7 0
BBX 11 14 -2 -2
BITMAP 
0000
0680
0680
0d00
0000
0000
0000
0000
0000
0000
0000
0000
0000
0000
ENDCHAR
STARTCHAR U+0023
ENCODING 35
SWIDTH 500 0
DWIDTH 7 0
BBX 11 14 -2 -2
BITMAP 
0000
0000
0000
06c0
06c0
1fc0
1b00
1b00
1b00
3f00
6c00
6c00
0000
0000
ENDCHAR
STARTCHAR U+0024
ENCODING 36
SWIDTH 500 0
DWIDTH 7 0
BBX 11 14 -2 -2
BITMAP 
0000
0000
0000
0300
0f80
1b40
1a00
1a00
0f00
6d00
6d00
3e00
1800
0000
ENDCHAR
STARTCHAR U+0025
ENCODING 37
SWIDTH 500 0
DWIDTH 7 0
BBX 11 14 -2 -2
BITMAP 
0000
0000
0000
0ec0
1b40
1b80
0e00
0c00
0e00
3b00
6b00
6e00
0000
0000
ENDCHAR
STARTCHAR U+0026
ENCODING 38
SWIDTH 500 0
DWIDTH 7 0
BBX 11 14 -2 -2
BITMAP 
0000
0000
0000
0700
0d80
0d00
0e00
1d80
3700
6300
6e00
3b00
0000
0000
ENDCHAR
STARTCHAR U+0027
ENCODING 39
SWIDTH 500 0
DWIDTH 7 0
BBX 11 14 -2 -2
BITMAP 
0000
0300
0300
0600
0000
0000
0000
0000
0000
0000
0000
0000
0000
0000
ENDCHAR
STARTCHAR U+0028
ENCODING 40
SWIDTH 500 0
DWIDTH 7 0
BBX 11 14 -2 -2
BITMAP 
0000
0000
00c0
0180
0300
0600
0c00
0c00
0c00
0c00
0c00
0c00
0c00
0000
ENDCHAR
STARTCHAR U+0029
ENCODING 41
SWIDTH 500 0
DWIDTH 7 0
BBX 11 14 -2 -2
BITMAP 
0000
0000
0c00
0c00
0c00
0c00
0c00
0c00
1800
1800
3000
6000
c000
0000
ENDCHAR
STARTCHAR U+002A
ENCODING 42
SWIDTH 500 0
DWIDTH 7 0
BBX 11 14 -2 -2
BITMAP 
0000
0000
0000
0000
0600
1b80
1e00
0c00
3e00
6a00
1800
0000
0000
0000
ENDCHAR
STARTCHAR U+002B
ENCODING 43
SWIDTH 500 0
DWIDTH 7 0
BBX 11 14 -2 -2
BITMAP 
0000
0000
0000
0000
0600
0600
0c00
3f00
0c00
1800
1800
0000
0000
0000
ENDCHAR
STARTCHAR U+002C
ENCODING 44
SWIDTH 500 0
DWIDTH 7 0
BBX 11 14 -2 -2
BITMAP 
0000
0000
0000
0000
0000
0000
0000
0000
0000
0000
1c00
0c00
1800
3000
ENDCHAR
STARTCHAR U+002D
ENCODING 45
SWIDTH 500 0
DWIDTH 7 0
BBX 11 14 -2 -2
BITMAP 
0000
0000
0000
0000
0000
0000
0000
3f00
0000
0000
0000
0000
0000
0000
ENDCHAR
STARTCHAR U+002E
ENCODING 46
SWIDTH 500 0
DWIDTH 7 0
BBX 11 14 -2 -2
BITMAP 
0000
0000
0000
0000
0000
0000
0000
0000
0000
0000
1c00
1c00
0000
0000
ENDCHAR
STARTCHAR U+002F
ENCODING 47
SWIDTH 500 0
DWIDTH 7 0
BBX 11 14 -2 -2
BITMAP 
0000
0000
0000
0180
0180
0300
0600
0c00
1800
3000
6000
6000
0000
0000
ENDCHAR
STARTCHAR U+0030
ENCODING 48
SWIDTH 500 0
DWIDTH 7 0
BBX 11 14 -2 -2
BITMAP 
0000
0000
0000
0700
0d80
1980
3180
3180
3180
3300
3600
1c00
0000
0000
ENDCHAR
STARTCHAR U+0031
ENCODING 49
SWIDTH 500 0
DWIDTH 7 0
BBX 11 14 -2 -2
BITMAP 
0000
0000
0000
0600
0e00
1a00
0c00
0c00
0c00
1800
1800
7e00
0000
0000
ENDCHAR
STARTCHAR U+0032
ENCODING 50
SWIDTH 500 0
DWIDTH 7 0
BBX 11 14 -2 -2
BITMAP 
0000
0000
0000
0f80
18c0
18c0
0180
0700
1c00
3000
6000
7f00
0000
0000
ENDCHAR
STARTCHAR U+0033
ENCODING 51
SWIDTH 500 0
DWIDTH 7 0
BBX 11 14 -2 -2
BITMAP 
0000
0000
0000
0f80
18c0
18c0
0180
0e00
0300
6300
6300
3e00
0000
0000
ENDCHAR
STARTCHAR U+0034
ENCODING 52
SWIDTH 500 0
DWIDTH 7 0
BBX 11 14 -2 -2
BITMAP 
0000
0000
0000
0180
0380
0680
0d00
1b00
3300
7f00
0600
0600
0000
0000
ENDCHAR
STARTCHAR U+0035
ENCODING 53
SWIDTH 500 0
DWIDTH 7 0
BBX 11 14 -2 -2
BITMAP 
0000
0000
0000
1fc0
1800
1800
3f00
0180
0180
0300
6300
3e00
0000
0000
ENDCHAR
STARTCHAR U+0036
ENCODING 54
SWIDTH 500 0
DWIDTH 7 0
BBX 11 14 -2 -2
BITMAP 
0000
0000
0000
0f80
18c0
1800
3000
3e00
3300
6300
6300
3e00
0000
0000
ENDCHAR
STARTCHAR U+0037
ENCODING 55
SWIDTH 500 0
DWIDTH 7 0
BBX 11 14 -2 -2
BITMAP 
0000
0000
0000
1fc0
00c0
0180
0300
0600
0c00
0c00
1800
1800
0000
0000
ENDCHAR
STARTCHAR U+0038
ENCODING 56
SWIDTH 500 0
DWIDTH 7 0
BBX 11 14 -2 -2
BITMAP 
0000
0000
0000
0f80
18c0
18c0
1980
1e00
3300
6300
6300
3e00
0000
0000
ENDCHAR
STARTCHAR U+0039
ENCODING 57
SWIDTH 500 0
DWIDTH 7 0
BBX 11 14 -2 -2
BITMAP 
0000
0000
0000
0f80
18c0
18c0
1980
0f80
0180
6300
6300
3e00
0000
0000
ENDCHAR
STARTCHAR U+003A
ENCODING 58
SWIDTH 500 0
DWIDTH 7 0
BBX 11 14 -2 -2
BITMAP 
0000
0000
0000
0000
0000
0700
0e00
0000
0000
0000
1c00
1c00
0000
0000
ENDCHAR
STARTCHAR U+003B
ENCODING 59
SWIDTH 500 0
DWIDTH 7 0
BBX 11 14 -2 -2
BITMAP 
0000
0000
0000
0000
0000
0700
0e00
0000
0000
0000
1c00
0c00
1800
3000
ENDCHAR
STARTCHAR U+003C
ENCODING 60
SWIDTH 500 0
DWIDTH 7 0
BBX 11 14 -2 -2
BITMAP 
0000
0000
0000
0000
0000
0380
0600
0c00
1800
1800
0c00
0600
0000
0000
ENDCHAR
STARTCHAR U+003D
ENCODING 61
SWIDTH 500 0
DWIDTH 7 0
BBX 11 14 -2 -2
BITMAP 
0000
0000
0000
0000
0000
0000
3f00
0000
0000
7e00
0000
0000
0000
0000
ENDCHAR
STARTCHAR U+003E
ENCODING 62
SWIDTH 500 0
DWIDTH 7 0
BBX 11 14 -2 -2
BITMAP 
0000
0000
0000
0000
0000
0c00
0c00
0600
0700
0c00
1800
3000
0000
0000
ENDCHAR
STARTCHAR U+003F
ENCODING 63
SWIDTH 500 0
DWIDTH 7 0
BBX 11 14 -2 -2
BITMAP 
0000
0000
0000
0f80
18c0
1980
0300
0600
0600
0000
0c00
0c00
0000
0000
ENDCHAR
STARTCHAR U+0040
ENCODING 64
SWIDTH 500 0
DWIDTH 7 0
BBX 11 14 -2 -2
BITMAP 
0000
0000
0000
0780
0cc0
1bc0
3680
3580
3580
3700
3000
1f00
0000
0000
ENDCHAR
STARTCHAR U+0041
ENCODING 65
SWIDTH 500 0
DWIDTH 7 0
BBX 11 14 -2 -2
BITMAP 
0000
0000
0000
0700
0d80
1980
3180
3f80
3180
6300
6300
6300
0000
0000
ENDCHAR
STARTCHAR U+0042
ENCODING 66
SWIDTH 500 0
DWIDTH 7 0
BBX 11 14 -2 -2
BITMAP 
0000
0000
0000
1f80
0cc0
0cc0
1980
1e00
1b00
3300
3300
7e00
0000
0000
ENDCHAR
STARTCHAR U+0043
ENCODING 67
SWIDTH 500 0
DWIDTH 7 0
BBX 11 14 -2 -2
BITMAP 
0000
0000
0000
0f80
18c0
18c0
3000
3000
3000
6300
6300
3e00
0000
0000
ENDCHAR
STARTCHAR U+0044
ENCODING 68
SWIDTH 500 0
DWIDTH 7 0
BBX 11 14 -2 -2
BITMAP 
0000
0000
0000
1f80
0cc0
0cc0
1980
1980
1980
3300
3300
7e00
0000
0000
ENDCHAR
STARTCHAR U+0045
ENCODING 69
SWIDTH 500 0
DWIDTH 7 0
BBX 11 14 -2 -2
BITMAP 
0000
0000
0000
1fc0
1800
1800
3000
3f00
3000
6000
6000
7f00
0000
0000
ENDCHAR
STARTCHAR U+0046
ENCODING 70
SWIDTH 500 0
DWIDTH 7 0
BBX 11 14 -2 -2
BITMAP 
0000
0000
0000
1fc0
1800
1800
3000
3f00
3000
6000
6000
6000
0000
0000
ENDCHAR
STARTCHAR U+0047
ENCODING 71
SWIDTH 500 0
DWIDTH 7 0
BBX 11 14 -2 -2
BITMAP 
0000
0000
0000
0f80
18c0
1800
3000
3780
3180
6300
6700
3d00
0000
0000
ENDCHAR
STARTCHAR U+0048
ENCODING 72
SWIDTH 500 0
DWIDTH 7 0
BBX 11 14 -2 -2
BITMAP 
0000
0000
0000
18c0
18c0
18c0
3180
3f80
3180
6300
6300
6300
0000
0000
ENDCHAR
STARTCHAR U+0049
ENCODING 73
SWIDTH 500 0
DWIDTH 7 0
BBX 11 14 -2 -2
BITMAP 
0000
0000
0000
1f80
0600
0600
0c00
0c00
0c00
1800
1800
7e00
0000
0000
ENDCHAR
STARTCHAR U+004A
ENCODING 74
SWIDTH 500 0
DWIDTH 7 0
BBX 11 14 -2 -2
BITMAP 
0000
0000
0000
03c0
0180
0180
0300
0300
0300
6600
6600
3c00
0000
0000
ENDCHAR
STARTCHAR U+004B
ENCODING 75
SWIDTH 500 0
DWIDTH 7 0
BBX 11 14 -2 -2
BITMAP 
0000
0000
0000
18c0
1980
1b00
3400
3800
3400
6c00
6600
6300
0000
0000
ENDCHAR
STARTCHAR U+004C
ENCODING 76
SWIDTH 500 0
DWIDTH 7 0
BBX 11 14 -2 -2
BITMAP 
0000
0000
0000
1800
1800
1800
3000
3000
3000
6000
6000
7f00
0000
0000
ENDCHAR
STARTCHAR U+004D
ENCODING 77
SWIDTH 500 0
DWIDTH 7 0
BBX 11 14 -2 -2
BITMAP 
0000
0000
0000
18c0
1dc0
1dc0
3680
3680
3180
6300
6300
6300
0000
0000
ENDCHAR
STARTCHAR U+004E
ENCODING 78
SWIDTH 500 0
DWIDTH 7 0
BBX 11 14 -2 -2
BITMAP 
0000
0000
0000
1cc0
1cc0
1cc0
3580
3680
3680
6700
6700
6300
0000
0000
ENDCHAR
STARTCHAR U+004F
ENCODING 79
SWIDTH 500 0
DWIDTH 7 0
BBX 11 14 -2 -2
BITMAP 
0000
0000
0000
0f80
18c0
18c0
3180
3180
3180
6300
6300
3e00
0000
0000
ENDCHAR
STARTCHAR U+0050
ENCODING 80
SWIDTH 500 0
DWIDTH 7 0
BBX 11 14 -2 -2
BITMAP 
0000
0000
0000
1f80
18c0
18c0
3180
3f00
3000
6000
6000
6000
0000
0000
ENDCHAR
STARTCHAR U+0051
ENCODING 81
SWIDTH 500 0
DWIDTH 7 0
BBX 11 14 -2 -2
BITMAP 
0000
0000
0000
0f80
18c0
18c0
3180
3180
3980
6d00
6700
3e00
0c00
0600
ENDCHAR
STARTCHAR U+0052
ENCODING 82
SWIDTH 500 0
DWIDTH 7 0
BBX 11 14 -2 -2
BITMAP 
0000
0000
0000
1f80
18c0
18c0
3180
3f00
3600
6600
6300
6300
0000
0000
ENDCHAR
STARTCHAR U+0053
ENCODING 83
SWIDTH 500 0
DWIDTH 7 0
BBX 11 14 -2 -2
BITMAP 
0000
0000
0000
0f80
18c0
1800
0c00
0600
0300
6300
6300
3e00
0000
0000
ENDCHAR
STARTCHAR U+0054
ENCODING 84
SWIDTH 500 0
DWIDTH 7 0
BBX 11 14 -2 -2
BITMAP 
0000
0000
0000
3fc0
0600
0600
0c00
0c00
0c00
1800
1800
1800
0000
0000
ENDCHAR
STARTCHAR U+0055
ENCODING 85
SWIDTH 500 0
DWIDTH 7 0
BBX 11 14 -2 -2
BITMAP 
0000
0000
0000
18c0
18c0
18c0
3180
3180
3180
6300
6300
3e00
0000
0000
ENDCHAR
STARTCHAR U+0056
ENCODING 86
SWIDTH 500 0
DWIDTH 7 0
BBX 11 14 -2 -2
BITMAP 
0000
0000
0000
18c0
18c0
1980
1980
1b00
1a00
1a00
1c00
1c00
0000
0000
ENDCHAR
STARTCHAR U+0057
ENCODING 87
SWIDTH 500 0
DWIDTH 7 0
BBX 11 14 -2 -2
BITMAP 
0000
0000
0000
18c0
18c0
18c0
3180
3680
3e80
7700
7700
6300
0000
0000
ENDCHAR
STARTCHAR U+0058
ENCODING 88
SWIDTH 500 0
DWIDTH 7 0
BBX 11 14 -2 -2
BITMAP 
0000
0000
0000
18c0
18c0
1980
1b00
0c00
1a00
3600
6300
6300
0000
0000
ENDCHAR
STARTCHAR U+0059
ENCODING 89
SWIDTH 500 0
DWIDTH 7 0
BBX 11 14 -2 -2
BITMAP 
0000
0000
0000
1980
1980
1980
1b00
1a00
1c00
1800
1800
1800
0000
0000
ENDCHAR
STARTCHAR U+005A
ENCODING 90
SWIDTH 500 0
DWIDTH 7 0
BBX 11 14 -2 -2
BITMAP 
0000
0000
0000
1fc0
0180
0300
0600
0c00
1800
3000
6000
7f00
0000
0000
ENDCHAR
STARTCHAR U+005B
ENCODING 91
SWIDTH 500 0
DWIDTH 7 0
BBX 11 14 -2 -2
BITMAP 
0000
0000
03c0
0600
0600
0600
0c00
0c00
0c00
1800
1800
1800
3c00
0000
ENDCHAR
STARTCHAR U+005C
ENCODING 92
SWIDTH 500 0
DWIDTH 7 0
BBX 11 14 -2 -2
BITMAP 
0000
0000
0000
1800
1800
1800
1800
0c00
0c00
0c00
0600
0600
0000
0000
ENDCHAR
STARTCHAR U+005D
ENCODING 93
SWIDTH 500 0
DWIDTH 7 0
BBX 11 14 -2 -2
BITMAP 
0000
0000
0f00
0600
0600
0600
0c00
0c00
0c00
1800
1800
1800
f000
0000
ENDCHAR
STARTCHAR U+005E
ENCODING 94
SWIDTH 500 0
DWIDTH 7 0
BBX 11 14 -2 -2
BITMAP 
0000
0380
0ec0
18c0
0000
0000
0000
0000
0000
0000
0000
0000
0000
0000
ENDCHAR
STARTCHAR U+005F
ENCODING 95
SWIDTH 500 0
DWIDTH 7 0
BBX 11 14 -2 -2
BITMAP 
0000
0000
0000
0000
0000
0000
0000
0000
0000
0000
0000
0000
fe00
0000
ENDCHAR
STARTCHAR U+0060
ENCODING 96
SWIDTH 500 0
DWIDTH 7 0
BBX 11 14 -2 -2
BITMAP 
0000
0000
0380
0600
0600
0300
0000
0000
0000
0000
0000
0000
0000
0000
ENDCHAR
STARTCHAR U+0061
ENCODING 97
SWIDTH 500 0
DWIDTH 7 0
BBX 11 14 -2 -2
BITMAP 
0000
0000
0000
0000
0000
1f00
3180
0780
1d80
3300
6700
3d00
0000
0000
ENDCHAR
STARTCHAR U+0062
ENCODING 98
SWIDTH 500 0
DWIDTH 7 0
BBX 11 14 -2 -2
BITMAP 
0000
0000
0000
1800
1800
1f00
3980
3180
3180
6300
7300
6e00
0000
0000
ENDCHAR
STARTCHAR U+0063
ENCODING 99
SWIDTH 500 0
DWIDTH 7 0
BBX 11 14 -2 -2
BITMAP 
0000
0000
0000
0000
0000
0f00
1980
3000
3000
6000
6300
3e00
0000
0000
ENDCHAR
STARTCHAR U+0064
ENCODING 100
SWIDTH 500 0
DWIDTH 7 0
BBX 11 14 -2 -2
BITMAP 
0000
0000
0000
00c0
00c0
0ec0
1b80
3180
3180
6300
6700
3d00
0000
0000
ENDCHAR
STARTCHAR U+0065
ENCODING 101
SWIDTH 500 0
DWIDTH 7 0
BBX 11 14 -2 -2
BITMAP 
0000
0000
0000
0000
0000
0f00
1980
3180
3f80
6000
6300
3e00
0000
0000
ENDCHAR
STARTCHAR U+0066
ENCODING 102
SWIDTH 500 0
DWIDTH 7 0
BBX 11 14 -2 -2
BITMAP 
0000
0000
0000
0380
0600
0600
3f00
0c00
0c00
1800
1800
1800
0000
0000
ENDCHAR
STARTCHAR U+0067
ENCODING 103
SWIDTH 500 0
DWIDTH 7 0
BBX 11 14 -2 -2
BITMAP 
0000
0000
0000
0000
0000
0ec0
1b00
3300
3600
3c00
3000
6c00
6600
3c00
ENDCHAR
STARTCHAR U+0068
ENCODING 104
SWIDTH 500 0
DWIDTH 7 0
BBX 11 14 -2 -2
BITMAP 
0000
0000
0000
1800
1800
1f00
3980
3180
3180
6300
6300
6300
0000
0000
ENDCHAR
STARTCHAR U+0069
ENCODING 105
SWIDTH 500 0
DWIDTH 7 0
BBX 11 14 -2 -2
BITMAP 
0000
0000
0300
0600
0000
0e00
0c00
0c00
0c00
1800
1800
7e00
0000
0000
ENDCHAR
STARTCHAR U+006A
ENCODING 106
SWIDTH 500 0
DWIDTH 7 0
BBX 11 14 -2 -2
BITMAP 
0000
0000
00c0
0180
0000
0380
0300
0300
0300
0600
0600
6600
6c00
3800
ENDCHAR
STARTCHAR U+006B
ENCODING 107
SWIDTH 500 0
DWIDTH 7 0
BBX 11 14 -2 -2
BITMAP 
0000
0000
0000
1800
1800
1b80
3600
3400
3800
6800
6c00
6600
0000
0000
ENDCHAR
STARTCHAR U+006C
ENCODING 108
SWIDTH 500 0
DWIDTH 7 0
BBX 11 14 -2 -2
BITMAP 
0000
0000
0000
0e00
0600
0600
0c00
0c00
0c00
1800
1800
7e00
0000
0000
ENDCHAR
STARTCHAR U+006D
ENCODING 109
SWIDTH 500 0
DWIDTH 7 0
BBX 11 14 -2 -2
BITMAP 
0000
0000
0000
0000
0000
1f00
3500
3500
3500
6a00
6a00
6600
0000
0000
ENDCHAR
STARTCHAR U+006E
ENCODING 110
SWIDTH 500 0
DWIDTH 7 0
BBX 11 14 -2 -2
BITMAP 
0000
0000
0000
0000
0000
1f00
3980
3180
3180
6300
6300
6300
0000
0000
ENDCHAR
STARTCHAR U+006F
ENCODING 111
SWIDTH 500 0
DWIDTH 7 0
BBX 11 14 -2 -2
BITMAP 
0000
0000
0000
0000
0000
0f00
1980
3180
3180
6300
6300
3e00
0000
0000
ENDCHAR
STARTCHAR U+0070
ENCODING 112
SWIDTH 500 0
DWIDTH 7 0
BBX 11 14 -2 -2
BITMAP 
0000
0000
0000
0000
0000
1f00
3980
3180
3180
6300
7300
6e00
c000
c000
ENDCHAR
STARTCHAR U+0071
ENCODING 113
SWIDTH 500 0
DWIDTH 7 0
BBX 11 14 -2 -2
BITMAP 
0000
0000
0000
0000
0000
0ec0
1b80
3180
3180
6300
6700
3d00
0600
0600
ENDCHAR
STARTCHAR U+0072
ENCODING 114
SWIDTH 500 0
DWIDTH 7 0
BBX 11 14 -2 -2
BITMAP 
0000
0000
0000
0000
0000
1f00
3980
3180
3000
6000
6000
6000
0000
0000
ENDCHAR
STARTCHAR U+0073
ENCODING 115
SWIDTH 500 0
DWIDTH 7 0
BBX 11 14 -2 -2
BITMAP 
0000
0000
0000
0000
0000
0f00
1980
3000
1e00
0300
6300
3e00
0000
0000
ENDCHAR
STARTCHAR U+0074
ENCODING 116
SWIDTH 500 0
DWIDTH 7 0
BBX 11 14 -2 -2
BITMAP 
0000
0000
0000
0600
0600
1f80
0c00
0c00
0c00
1800
1b00
0e00
0000
0000
ENDCHAR
STARTCHAR U+0075
ENCODING 117
SWIDTH 500 0
DWIDTH 7 0
BBX 11 14 -2 -2
BITMAP 
0000
0000
0000
0000
0000
18c0
3180
3180
3180
6300
6700
3d00
0000
0000
ENDCHAR
STARTCHAR U+0076
ENCODING 118
SWIDTH 500 0
DWIDTH 7 0
BBX 11 14 -2 -2
BITMAP 
0000
0000
0000
0000
0000
1980
3300
3300
3600
3400
1800
1800
0000
0000
ENDCHAR
STARTCHAR U+0077
ENCODING 119
SWIDTH 500 0
DWIDTH 7 0
BBX 11 14 -2 -2
BITMAP 
0000
0000
0000
0000
0000
1980
3500
3500
3500
6a00
6a00
3400
0000
0000
ENDCHAR
STARTCHAR U+0078
ENCODING 120
SWIDTH 500 0
DWIDTH 7 0
BBX 11 14 -2 -2
BITMAP 
0000
0000
0000
0000
0000
1980
1b00
1a00
1c00
3400
6600
6600
0000
0000
ENDCHAR
STARTCHAR U+0079
ENCODING 121
SWIDTH 500 0
DWIDTH 7 0
BBX 11 14 -2 -2
BITMAP 
0000
0000
0000
0000
0000
18c0
3180
3180
3180
3700
1d00
0300
0600
7c00
ENDCHAR
STARTCHAR U+007A
ENCODING 122
SWIDTH 500 0
DWIDTH 7 0
BBX 11 14 -2 -2
BITMAP 
0000
0000
0000
0000
0000
1fc0
0300
0600
1c00
3000
6000
7f00
0000
0000
ENDCHAR
STARTCHAR U+007B
ENCODING 123
SWIDTH 500 0
DWIDTH 7 0
BBX 11 14 -2 -2
BITMAP 
0000
0000
01c0
0300
0600
0600
0600
0c00
0c00
0c00
1800
1800
0c00
0000
ENDCHAR
STARTCHAR U+007C
ENCODING 124
SWIDTH 500 0
DWIDTH 7 0
BBX 11 14 -2 -2
BITMAP 
0000
0300
0300
0600
0600
0600
0c00
0c00
0c00
1800
1800
1800
3000
3000
ENDCHAR
STARTCHAR U+007D
ENCODING 125
SWIDTH 500 0
DWIDTH 7 0
BBX 11 14 -2 -2
BITMAP 
0000
0000
0c00
0600
0600
0c00
0c00
0c00
1800
1800
1800
3000
e000
0000
ENDCHAR
STARTCHAR U+007E
ENCODING 126
SWIDTH 500 0
DWIDTH 7 0
BBX 11 14 -2 -2
BITMAP 
0000
0000
0000
0ec0
1b80
0000
0000
0000
0000
0000
0000
0000
0000
0000
ENDCHAR
STARTCHAR U+00A0
ENCODING 160
SWIDTH 500 0
DWIDTH 7 0
BBX 11 14 -2 -2
BITMAP 
0000
0000
0000
0000
0000
0000
0000
0000
0000
0000
0000
0000
0000
0000
ENDCHAR
STARTCHAR U+00A1
ENCODING 161
SWIDTH 500 0
DWIDTH 7 0
BBX 11 14 -2 -2
BITMAP 
0000
0000
0000
0600
0600
0000
0c00
0c00
0c00
1800
1800
1800
0000
0000
ENDCHAR
STARTCHAR U+00A2
ENCODING 162
SWIDTH 500 0
DWIDTH 7 0
BBX 11 14 -2 -2
BITMAP 
0000
0000
0000
0000
0600
0f00
1d00
3400
3400
6800
6a00
3c00
3000
0000
ENDCHAR
STARTCHAR U+00A3
ENCODING 163
SWIDTH 500 0
DWIDTH 7 0
BBX 11 14 -2 -2
BITMAP 
0000
0000
0000
0700
0d80
0c00
1800
3e00
1800
3000
3c00
7600
0000
0000
ENDCHAR
STARTCHAR U+00A4
ENCODING 164
SWIDTH 500 0
DWIDTH 7 0
BBX 11 14 -2 -2
BITMAP 
0000
0000
0000
0000
18c0
1f80
1b00
1b00
3f00
6300
0000
0000
0000
0000
ENDCHAR
STARTCHAR U+00A5
ENCODING 165
SWIDTH 500 0
DWIDTH 7 0
BBX 11 14 -2 -2
BITMAP 
0000
0000
0000
1980
0d00
0600
3f00
0c00
3f00
1800
1800
1800
0000
0000
ENDCHAR
STARTCHAR U+00A6
ENCODING 166
SWIDTH 500 0
DWIDTH 7 0
BBX 11 14 -2 -2
BITMAP 
0000
0000
0300
0600
0600
0600
0000
0000
0c00
1800
1800
1800
0000
0000
ENDCHAR
STARTCHAR U+00A7
ENCODING 167
SWIDTH 500 0
DWIDTH 7 0
BBX 11 14 -2 -2
BITMAP 
0000
0000
0700
0d80
1800
0e00
1b00
3300
1c00
0600
6600
3c00
0000
0000
ENDCHAR
STARTCHAR U+00A8
ENCODING 168
SWIDTH 500 0
DWIDTH 7 0
BBX 11 14 -2 -2
BITMAP 
0000
06c0
06c0
0000
0000
0000
0000
0000
0000
0000
0000
0000
0000
0000
ENDCHAR
STARTCHAR U+00A9
ENCODING 169
SWIDTH 500 0
DWIDTH 7 0
BBX 11 14 -2 -2
BITMAP 
0000
07c0
0cc0
1b40
1dc0
1cc0
3980
3980
3b80
6d00
6300
3e00
0000
0000
ENDCHAR
STARTCHAR U+00AA
ENCODING 170
SWIDTH 500 0
DWIDTH 7 0
BBX 11 14 -2 -2
BITMAP 
0000
03c0
0660
07c0
0cc0
0dc0
0680
0000
1f80
0000
0000
0000
0000
0000
ENDCHAR
STARTCHAR U+00AB
ENCODING 171
SWIDTH 500 0
DWIDTH 7 0
BBX 11 14 -2 -2
BITMAP 
0000
0000
0000
0000
0000
0740
0d00
1a00
3c00
3400
1a00
0d00
0000
0000
ENDCHAR
STARTCHAR U+00AC
ENCODING 172
SWIDTH 500 0
DWIDTH 7 0
BBX 11 14 -2 -2
BITMAP 
0000
0000
0000
0000
0000
0000
0000
0000
7e00
0c00
0c00
0c00
0000
0000
ENDCHAR
STARTCHAR U+00AD
ENCODING 173
SWIDTH 500 0
DWIDTH 7 0
BBX 11 14 -2 -2
BITMAP 
0000
0000
0000
0000
0000
0000
0000
3f00
0000
0000
0000
0000
0000
0000
ENDCHAR
STARTCHAR U+00AE
ENCODING 174
SWIDTH 500 0
DWIDTH 7 0
BBX 11 14 -2 -2
BITMAP 
0000
07c0
0cc0
1f40
1dc0
1dc0
3e80
3b80
3b80
7700
6300
3e00
0000
0000
ENDCHAR
STARTCHAR U+00AF
ENCODING 175
SWIDTH 500 0
DWIDTH 7 0
BBX 11 14 -2 -2
BITMAP 
07c0
0000
0000
0000
0000
0000
0000
0000
0000
0000
0000
0000
0000
0000
ENDCHAR
STARTCHAR U+00B0
ENCODING 176
SWIDTH 500 0
DWIDTH 7 0
BBX 11 14 -2 -2
BITMAP 
0380
06c0
0380
0000
0000
0000
0000
0000
0000
0000
0000
0000
0000
0000
ENDCHAR
STARTCHAR U+00B1
ENCODING 177
SWIDTH 500 0
DWIDTH 7 0
BBX 11 14 -2 -2
BITMAP 
0000
0000
0000
0000
0000
0600
0c00
3f00
0c00
1800
0000
7e00
0000
0000
ENDCHAR
STARTCHAR U+00B2
ENCODING 178
SWIDTH 500 0
DWIDTH 7 0
BBX 11 14 -2 -2
BITMAP 
0000
0300
0680
0180
0300
0600
0c00
1f00
0000
0000
0000
0000
0000
0000
ENDCHAR
STARTCHAR U+00B3
ENCODING 179
SWIDTH 500 0
DWIDTH 7 0
BBX 11 14 -2 -2
BITMAP 
0000
0300
0680
0180
0600
0300
1b00
0e00
0000
0000
0000
0000
0000
0000
ENDCHAR
STARTCHAR U+00B4
ENCODING 180
SWIDTH 500 0
DWIDTH 7 0
BBX 11 14 -2 -2
BITMAP 
0000
01c0
0700
0000
0000
0000
0000
0000
0000
0000
0000
0000
0000
0000
ENDCHAR
STARTCHAR U+00B5
ENCODING 181
SWIDTH 500 0
DWIDTH 7 0
BBX 11 14 -2 -2
BITMAP 
0000
0000
0000
0000
0000
0000
3300
3300
3300
6600
7600
6a00
c000
c000
ENDCHAR
STARTCHAR U+00B6
ENCODING 182
SWIDTH 500 0
DWIDTH 7 0
BBX 11 14 -2 -2
BITMAP 
0000
0000
07e0
1f40
1f40
1f40
3e80
1e80
0680
0d00
0d00
0d00
1a00
1e00
ENDCHAR
STARTCHAR U+00B7
ENCODING 183
SWIDTH 500 0
DWIDTH 7 0
BBX 11 14 -2 -2
BITMAP 
0000
0000
0000
0000
0000
0000
0c00
1e00
0c00
0000
0000
0000
0000
0000
ENDCHAR
STARTCHAR U+00B8
ENCODING 184
SWIDTH 500 0
DWIDTH 7 0
BBX 11 14 -2 -2
BITMAP 
0000
0000
0000
0000
0000
0000
0000
0000
0000
0000
0000
0000
1800
3000
ENDCHAR
STARTCHAR U+00B9
ENCODING 185
SWIDTH 500 0
DWIDTH 7 0
BBX 11 14 -2 -2
BITMAP 
0000
0000
0300
0e00
0600
0600
0c00
0c00
0000
0000
0000
0000
0000
0000
ENDCHAR
STARTCHAR U+00BA
ENCODING 186
SWIDTH 500 0
DWIDTH 7 0
BBX 11 14 -2 -2
BITMAP 
0000
0000
0380
0680
0d80
0700
0000
1f00
0000
0000
0000
0000
0000
0000
ENDCHAR
STARTCHAR U+00BB
ENCODING 187
SWIDTH 500 0
DWIDTH 7 0
BBX 11 14 -2 -2
BITMAP 
0000
0000
0000
0000
0000
1e00
1a00
0d00
0e80
1a00
3400
6800
0000
0000
ENDCHAR
STARTCHAR U+00BC
ENCODING 188
SWIDTH 500 0
DWIDTH 7 0
BBX 11 14 -2 -2
BITMAP 
0000
0000
0600
1cc0
0d80
0d00
0e00
0d80
1f80
3500
6f00
6300
0000
0000
ENDCHAR
STARTCHAR U+00BD
ENCODING 189
SWIDTH 500 0
DWIDTH 7 0
BBX 11 14 -2 -2
BITMAP 
0000
0000
0600
1cc0
0d80
0d00
0e00
0d00
1f00
3300
6600
6f00
0000
0000
ENDCHAR
STARTCHAR U+00BE
ENCODING 190
SWIDTH 500 0
DWIDTH 7 0
BBX 11 14 -2 -2
BITMAP 
0000
0000
0c60
06c0
0d80
0f00
3a00
0d80
1b80
3700
6f00
0300
0000
0000
ENDCHAR
STARTCHAR U+00BF
ENCODING 191
SWIDTH 500 0
DWIDTH 7 0
BBX 11 14 -2 -2
BITMAP 
0000
0000
0300
0600
0000
0600
0c00
0c00
1800
3300
6300
3e00
0000
0000
ENDCHAR
STARTCHAR U+00C0
ENCODING 192
SWIDTH 500 0
DWIDTH 7 0
BBX 11 14 -2 -2
BITMAP 
0700
01c0
0000
0700
0d80
1980
3180
3f80
3180
6300
6300
6300
0000
0000
ENDCHAR
STARTCHAR U+00C1
ENCODING 193
SWIDTH 500 0
DWIDTH 7 0
BBX 11 14 -2 -2
BITMAP 
01c0
0700
0000
0700
0d80
1980
3180
3f80
3180
6300
6300
6300
0000
0000
ENDCHAR
STARTCHAR U+00C2
ENCODING 194
SWIDTH 500 0
DWIDTH 7 0
BBX 11 14 -2 -2
BITMAP 
0380
06c0
0000
0700
0d80
1980
3180
3f80
3180
6300
6300
6300
0000
0000
ENDCHAR
STARTCHAR U+00C3
ENCODING 195
SWIDTH 500 0
DWIDTH 7 0
BBX 11 14 -2 -2
BITMAP 
0760
0dc0
0000
0700
0d80
1980
3180
3f80
3180
6300
6300
6300
0000
0000
ENDCHAR
STARTCHAR U+00C4
ENCODING 196
SWIDTH 500 0
DWIDTH 7 0
BBX 11 14 -2 -2
BITMAP 
06c0
06c0
0000
0700
0d80
1980
3180
3f80
3180
6300
6300
6300
0000
0000
ENDCHAR
STARTCHAR U+00C5
ENCODING 197
SWIDTH 500 0
DWIDTH 7 0
BBX 11 14 -2 -2
BITMAP 
0380
06c0
0680
0700
0d80
1980
3180
3f80
3180
6300
6300
6300
0000
0000
ENDCHAR
STARTCHAR U+00C6
ENCODING 198
SWIDTH 500 0
DWIDTH 7 0
BBX 11 14 -2 -2
BITMAP 
0000
0000
0000
07c0
0d00
1b00
3600
3f80
3600
6c00
6c00
6f00
0000
0000
ENDCHAR
STARTCHAR U+00C7
ENCODING 199
SWIDTH 500 0
DWIDTH 7 0
BBX 11 14 -2 -2
BITMAP 
0000
0000
0000
0f80
18c0
18c0
3000
3000
3000
6300
6300
3e00
1800
3000
ENDCHAR
STARTCHAR U+00C8
ENCODING 200
SWIDTH 500 0
DWIDTH 7 0
BBX 11 14 -2 -2
BITMAP 
0700
01c0
0000
1fc0
1800
1800
3000
3f00
3000
6000
6000
7f00
0000
0000
ENDCHAR
STARTCHAR U+00C9
ENCODING 201
SWIDTH 500 0
DWIDTH 7 0
BBX 11 14 -2 -2
BITMAP 
01c0
0700
0000
1fc0
1800
1800
3000
3f00
3000
6000
6000
7f00
0000
0000
ENDCHAR
STARTCHAR U+00CA
ENCODING 202
SWIDTH 500 0
DWIDTH 7 0
BBX 11 14 -2 -2
BITMAP 
0380
06c0
0000
1fc0
1800
1800
3000
3f00
3000
6000
6000
7f00
0000
0000
ENDCHAR
STARTCHAR U+00CB
ENCODING 203
SWIDTH 500 0
DWIDTH 7 0
BBX 11 14 -2 -2
BITMAP 
06c0
06c0
0000
1fc0
1800
1800
3000
3f00
3000
6000
6000
7f00
0000
0000
ENDCHAR
STARTCHAR U+00CC
ENCODING 204
SWIDTH 500 0
DWIDTH 7 0
BBX 11 14 -2 -2
BITMAP 
0e00
0380
0000
1f80
0600
0600
0c00
0c00
0c00
1800
1800
7e00
0000
0000
ENDCHAR
STARTCHAR U+00CD
ENCODING 205
SWIDTH 500 0
DWIDTH 7 0
BBX 11 14 -2 -2
BITMAP 
01c0
0700
0000
1f80
0600
0600
0c00
0c00
0c00
1800
1800
7e00
0000
0000
ENDCHAR
STARTCHAR U+00CE
ENCODING 206
SWIDTH 500 0
DWIDTH 7 0
BBX 11 14 -2 -2
BITMAP 
0380
06c0
0000
1f80
0600
0600
0c00
0c00
0c00
1800
1800
7e00
0000
0000
ENDCHAR
STARTCHAR U+00CF
ENCODING 207
SWIDTH 500 0
DWIDTH 7 0
BBX 11 14 -2 -2
BITMAP 
0680
0680
0000
1f80
0600
0600
0c00
0c00
0c00
1800
1800
7e00
0000
0000
ENDCHAR
STARTCHAR U+00D0
ENCODING 208
SWIDTH 500 0
DWIDTH 7 0
BBX 11 14 -2 -2
BITMAP 
0000
0000
0000
1f00
1980
1980
3180
7d80
3180
6300
6600
7c00
0000
0000
ENDCHAR
STARTCHAR U+00D1
ENCODING 209
SWIDTH 500 0
DWIDTH 7 0
BBX 11 14 -2 -2
BITMAP 
0760
0dc0
0000
1cc0
1cc0
1cc0
3580
3680
3680
6700
6700
6700
0000
0000
ENDCHAR
STARTCHAR U+00D2
ENCODING 210
SWIDTH 500 0
DWIDTH 7 0
BBX 11 14 -2 -2
BITMAP 
0700
01c0
0000
0f80
18c0
18c0
3180
3180
3180
6300
6300
3e00
0000
0000
ENDCHAR
STARTCHAR U+00D3
ENCODING 211
SWIDTH 500 0
DWIDTH 7 0
BBX 11 14 -2 -2
BITMAP 
01c0
0700
0000
0f80
18c0
18c0
3180
3180
3180
6300
6300
3e00
0000
0000
ENDCHAR
STARTCHAR U+00D4
ENCODING 212
SWIDTH 500 0
DWIDTH 7 0
BBX 11 14 -2 -2
BITMAP 
0380
06c0
0000
0f80
18c0
18c0
3180
3180
3180
6300
6300
3e00
0000
0000
ENDCHAR
STARTCHAR U+00D5
ENCODING 213
SWIDTH 500 0
DWIDTH 7 0
BBX 11 14 -2 -2
BITMAP 
0760
0dc0
0000
0f80
18c0
18c0
3180
3180
3180
6300
6300
3e00
0000
0000
ENDCHAR
STARTCHAR U+00D6
ENCODING 214
SWIDTH 500 0
DWIDTH 7 0
BBX 11 14 -2 -2
BITMAP 
06c0
06c0
0000
0f80
18c0
18c0
3180
3180
3180
6300
6300
3e00
0000
0000
ENDCHAR
STARTCHAR U+00D7
ENCODING 215
SWIDTH 500 0
DWIDTH 7 0
BBX 11 14 -2 -2
BITMAP 
0000
0000
0000
0000
0000
1b80
1a00
0c00
3a00
6600
0000
0000
0000
0000
ENDCHAR
STARTCHAR U+00D8
ENCODING 216
SWIDTH 500 0
DWIDTH 7 0
BBX 11 14 -2 -2
BITMAP 
0000
0000
00e0
0f80
19c0
1b40
3680
3680
3580
6b00
7300
7e00
c000
0000
ENDCHAR
STARTCHAR U+00D9
ENCODING 217
SWIDTH 500 0
DWIDTH 7 0
BBX 11 14 -2 -2
BITMAP 
0700
01c0
0000
18c0
18c0
18c0
3180
3180
3180
6300
6300
3e00
0000
0000
ENDCHAR
STARTCHAR U+00DA
ENCODING 218
SWIDTH 500 0
DWIDTH 7 0
BBX 11 14 -2 -2
BITMAP 
01c0
0700
0000
18c0
18c0
18c0
3180
3180
3180
6300
6300
3e00
0000
0000
ENDCHAR
STARTCHAR U+00DB
ENCODING 219
SWIDTH 500 0
DWIDTH 7 0
BBX 11 14 -2 -2
BITMAP 
0380
06c0
0000
18c0
18c0
18c0
3180
3180
3180
6300
6300
3e00
0000
0000
ENDCHAR
STARTCHAR U+00DC
ENCODING 220
SWIDTH 500 0
DWIDTH 7 0
BBX 11 14 -2 -2
BITMAP 
06c0
06c0
0000
18c0
18c0
18c0
3180
3180
3180
6300
6300
3e00
0000
0000
ENDCHAR
STARTCHAR U+00DD
ENCODING 221
SWIDTH 500 0
DWIDTH 7 0
BBX 11 14 -2 -2
BITMAP 
01c0
0700
0000
1980
1980
1b00
1a00
0c00
0c00
1800
1800
1800
0000
0000
ENDCHAR
STARTCHAR U+00DE
ENCODING 222
SWIDTH 500 0
DWIDTH 7 0
BBX 11 14 -2 -2
BITMAP 
0000
0000
0c00
1800
1f00
1980
3180
3180
3f00
6000
6000
6000
0000
0000
ENDCHAR
STARTCHAR U+00DF
ENCODING 223
SWIDTH 500 0
DWIDTH 7 0
BBX 11 14 -2 -2
BITMAP 
0000
0000
0000
0f00
1980
1980
3300
3700
3300
6300
7300
6e00
0000
0000
ENDCHAR
STARTCHAR U+00E0
ENCODING 224
SWIDTH 500 0
DWIDTH 7 0
BBX 11 14 -2 -2
BITMAP 
0000
0000
0700
0180
0000
1f00
3180
0780
1d80
3300
6700
3d00
0000
0000
ENDCHAR
STARTCHAR U+00E1
ENCODING 225
SWIDTH 500 0
DWIDTH 7 0
BBX 11 14 -2 -2
BITMAP 
0000
0000
03c0
0e00
0000
1f00
3180
0780
1d80
3300
6700
3d00
0000
0000
ENDCHAR
STARTCHAR U+00E2
ENCODING 226
SWIDTH 500 0
DWIDTH 7 0
BBX 11 14 -2 -2
BITMAP 
0000
0000
0700
0d80
0000
1f00
3180
0780
1d80
3300
6700
3d00
0000
0000
ENDCHAR
STARTCHAR U+00E3
ENCODING 227
SWIDTH 500 0
DWIDTH 7 0
BBX 11 14 -2 -2
BITMAP 
0000
0000
0f60
1980
0000
1f00
3180
0780
1d80
3300
6700
3d00
0000
0000
ENDCHAR
STARTCHAR U+00E4
ENCODING 228
SWIDTH 500 0
DWIDTH 7 0
BBX 11 14 -2 -2
BITMAP 
0000
0000
06c0
0d80
0000
1f00
3180
0780
1d80
3300
6700
3d00
0000
0000
ENDCHAR
STARTCHAR U+00E5
ENCODING 229
SWIDTH 500 0
DWIDTH 7 0
BBX 11 14 -2 -2
BITMAP 
0000
0380
06c0
0300
0000
1f00
3180
0780
1d80
3300
6700
3d00
0000
0000
ENDCHAR
STARTCHAR U+00E6
ENCODING 230
SWIDTH 500 0
DWIDTH 7 0
BBX 11 14 -2 -2
BITMAP 
0000
0000
0000
0000
0000
1f80
3680
0680
1f80
3400
6c00
3f00
0000
0000
ENDCHAR
STARTCHAR U+00E7
ENCODING 231
SWIDTH 500 0
DWIDTH 7 0
BBX 11 14 -2 -2
BITMAP 
0000
0000
0000
0000
0000
0f00
1980
3000
3000
6000
6300
3e00
1800
3000
ENDCHAR
STARTCHAR U+00E8
ENCODING 232
SWIDTH 500 0
DWIDTH 7 0
BBX 11 14 -2 -2
BITMAP 
0000
0000
0700
0180
0000
0f00
1980
3180
3f80
6000
6300
3e00
0000
0000
ENDCHAR
STARTCHAR U+00E9
ENCODING 233
SWIDTH 500 0
DWIDTH 7 0
BBX 11 14 -2 -2
BITMAP 
0000
0000
03c0
0e00
0000
0f00
1980
3180
3f80
6000
6300
3e00
0000
0000
ENDCHAR
STARTCHAR U+00EA
ENCODING 234
SWIDTH 500 0
DWIDTH 7 0
BBX 11 14 -2 -2
BITMAP 
0000
0000
0700
0d80
0000
0f00
1980
3180
3f80
6000
6300
3e00
0000
0000
ENDCHAR
STARTCHAR U+00EB
ENCODING 235
SWIDTH 500 0
DWIDTH 7 0
BBX 11 14 -2 -2
BITMAP 
0000
0000
06c0
0d80
0000
0f00
1980
3180
3f80
6000
6300
3e00
0000
0000
ENDCHAR
STARTCHAR U+00EC
ENCODING 236
SWIDTH 500 0
DWIDTH 7 0
BBX 11 14 -2 -2
BITMAP 
0000
0000
0e00
0300
0000
0e00
0c00
0c00
0c00
1800
1800
7e00
0000
0000
ENDCHAR
STARTCHAR U+00ED
ENCODING 237
SWIDTH 500 0
DWIDTH 7 0
BBX 11 14 -2 -2
BITMAP 
0000
0000
0780
1c00
0000
0e00
0c00
0c00
0c00
1800
1800
7e00
0000
0000
ENDCHAR
STARTCHAR U+00EE
ENCODING 238
SWIDTH 500 0
DWIDTH 7 0
BBX 11 14 -2 -2
BITMAP 
0000
0000
0e00
1b00
0000
0e00
0c00
0c00
0c00
1800
1800
7e00
0000
0000
ENDCHAR
STARTCHAR U+00EF
ENCODING 239
SWIDTH 500 0
DWIDTH 7 0
BBX 11 14 -2 -2
BITMAP 
0000
0000
0d80
1b00
0000
0e00
0c00
0c00
0c00
1800
1800
7e00
0000
0000
ENDCHAR
STARTCHAR U+00F0
ENCODING 240
SWIDTH 500 0
DWIDTH 7 0
BBX 11 14 -2 -2
BITMAP 
0000
0000
0780
0600
0d00
0180
1f00
3300
3300
6600
6600
3c00
0000
0000
ENDCHAR
STARTCHAR U+00F1
ENCODING 241
SWIDTH 500 0
DWIDTH 7 0
BBX 11 14 -2 -2
BITMAP 
0000
0000
0f60
1980
0000
1f00
3980
3180
3180
6300
6300
6300
0000
0000
ENDCHAR
STARTCHAR U+00F2
ENCODING 242
SWIDTH 500 0
DWIDTH 7 0
BBX 11 14 -2 -2
BITMAP 
0000
0000
0700
0180
0000
0f00
1980
3180
3180
6300
6300
3e00
0000
0000
ENDCHAR
STARTCHAR U+00F3
ENCODING 243
SWIDTH 500 0
DWIDTH 7 0
BBX 11 14 -2 -2
BITMAP 
0000
0000
03c0
0e00
0000
0f00
1980
3180
3180
6300
6300
3e00
0000
0000
ENDCHAR
STARTCHAR U+00F4
ENCODING 244
SWIDTH 500 0
DWIDTH 7 0
BBX 11 14 -2 -2
BITMAP 
0000
0000
0700
0d80
0000
0f00
1980
3180
3180
6300
6300
3e00
0000
0000
ENDCHAR
STARTCHAR U+00F5
ENCODING 245
SWIDTH 500 0
DWIDTH 7 0
BBX 11 14 -2 -2
BITMAP 
0000
0000
0f60
1980
0000
0f00
1980
3180
3180
6300
6300
3e00
0000
0000
ENDCHAR
STARTCHAR U+00F6
ENCODING 246
SWIDTH 500 0
DWIDTH 7 0
BBX 11 14 -2 -2
BITMAP 
0000
0000
06c0
0d80
0000
0f00
1980
3180
3180
6300
6300
3e00
0000
0000
ENDCHAR
STARTCHAR U+00F7
ENCODING 247
SWIDTH 500 0
DWIDTH 7 0
BBX 11 14 -2 -2
BITMAP 
0000
0000
0000
0000
0000
0700
0000
3f80
0000
1c00
0000
0000
0000
0000
ENDCHAR
STARTCHAR U+00F8
ENCODING 248
SWIDTH 500 0
DWIDTH 7 0
BBX 11 14 -2 -2
BITMAP 
0000
0000
0000
0000
00c0
0f80
1b80
3680
3580
6b00
7300
7e00
c000
0000
ENDCHAR
STARTCHAR U+00F9
ENCODING 249
SWIDTH 500 0
DWIDTH 7 0
BBX 11 14 -2 -2
BITMAP 
0000
0000
0700
0180
0000
18c0
3180
3180
3180
6300
6700
3d00
0000
0000
ENDCHAR
STARTCHAR U+00FA
ENCODING 250
SWIDTH 500 0
DWIDTH 7 0
BBX 11 14 -2 -2
BITMAP 
0000
0000
03c0
0e00
0000
18c0
3180
3180
3180
6300
6700
3d00
0000
0000
ENDCHAR
STARTCHAR U+00FB
ENCODING 251
SWIDTH 500 0
DWIDTH 7 0
BBX 11 14 -2 -2
BITMAP 
0000
0000
0700
0d80
0000
18c0
3180
3180
3180
6300
6700
3d00
0000
0000
ENDCHAR
STARTCHAR U+00FC
ENCODING 252
SWIDTH 500 0
DWIDTH 7 0
BBX 11 14 -2 -2
BITMAP 
0000
0000
06c0
0d80
0000
18c0
3180
3180
3180
6300
6700
3d00
0000
0000
ENDCHAR
STARTCHAR U+00FD
ENCODING 253
SWIDTH 500 0
DWIDTH 7 0
BBX 11 14 -2 -2
BITMAP 
0000
0000
03c0
0e00
0000
18c0
3180
3180
3180
3700
1d00
0300
0600
7c00
ENDCHAR
STARTCHAR U+00FE
ENCODING 254
SWIDTH 500 0
DWIDTH 7 0
BBX 11 14 -2 -2
BITMAP 
0000
0000
0000
1800
1800
1b00
3580
3980
3180
6300
7e00
6000
c000
c000
ENDCHAR
STARTCHAR U+00FF
ENCODING 255
SWIDTH 500 0
DWIDTH 7 0
BBX 11 14 -2 -2
BITMAP 
0000
0000
06c0
0d80
0000
18c0
3180
3180
3180
3700
1d00
0300
0600
7c00
ENDCHAR
STARTCHAR U+0100
ENCODING 256
SWIDTH 500 0
DWIDTH 7 0
BBX 11 14 -2 -2
BITMAP 
0000
07c0
0000
0700
0d80
1980
3180
3f80
3180
6300
6300
6300
0000
0000
ENDCHAR
STARTCHAR U+0101
ENCODING 257
SWIDTH 500 0
DWIDTH 7 0
BBX 11 14 -2 -2
BITMAP 
0000
0000
0000
0f80
0000
1f00
3180
0780
1d80
3300
6700
3d00
0000
0000
ENDCHAR
STARTCHAR U+0102
ENCODING 258
SWIDTH 500 0
DWIDTH 7 0
BBX 11 14 -2 -2
BITMAP 
0c60
07c0
0000
0700
0d80
1980
3180
3f80
3180
6300
6300
6300
0000
0000
ENDCHAR
STARTCHAR U+0103
ENCODING 259
SWIDTH 500 0
DWIDTH 7 0
BBX 11 14 -2 -2
BITMAP 
0000
0000
0ce0
0780
0000
1f00
3180
0780
1d80
3300
6700
3d00
0000
0000
ENDCHAR
STARTCHAR U+0104
ENCODING 260
SWIDTH 500 0
DWIDTH 7 0
BBX 11 14 -2 -2
BITMAP 
0000
0000
0000
0700
0d80
1980
3180
3f80
3180
6300
6300
6600
0c00
0600
ENDCHAR
STARTCHAR U+0105
ENCODING 261
SWIDTH 500 0
DWIDTH 7 0
BBX 11 14 -2 -2
BITMAP 
0000
0000
0000
0000
0000
0f00
0180
0780
1d80
3300
6700
3e00
0c00
0600
ENDCHAR
STARTCHAR U+0106
ENCODING 262
SWIDTH 500 0
DWIDTH 7 0
BBX 11 14 -2 -2
BITMAP 
01c0
0700
0000
0f80
18c0
18c0
3000
3000
3000
6300
6300
3e00
0000
0000
ENDCHAR
STARTCHAR U+0107
ENCODING 263
SWIDTH 500 0
DWIDTH 7 0
BBX 11 14 -2 -2
BITMAP 
0000
0000
03c0
0e00
0000
0f00
1980
3000
3000
6000
6300
3e00
0000
0000
ENDCHAR
STARTCHAR U+0108
ENCODING 264
SWIDTH 500 0
DWIDTH 7 0
BBX 11 14 -2 -2
BITMAP 
0380
06c0
0000
0f80
18c0
18c0
3000
3000
3000
6300
6300
3e00
0000
0000
ENDCHAR
STARTCHAR U+0109
ENCODING 265
SWIDTH 500 0
DWIDTH 7 0
BBX 11 14 -2 -2
BITMAP 
0000
0000
0700
0d80
0000
0f00
1980
3000
3000
6000
6300
3e00
0000
0000
ENDCHAR
STARTCHAR U+010A
ENCODING 266
SWIDTH 500 0
DWIDTH 7 0
BBX 11 14 -2 -2
BITMAP 
0300
0300
0000
0f80
18c0
18c0
3000
3000
3000
6300
6300
3e00
0000
0000
ENDCHAR
STARTCHAR U+010B
ENCODING 267
SWIDTH 500 0
DWIDTH 7 0
BBX 11 14 -2 -2
BITMAP 
0000
0000
0300
0600
0000
0f00
1980
3000
3000
6000
6300
3e00
0000
0000
ENDCHAR
STARTCHAR U+010C
ENCODING 268
SWIDTH 500 0
DWIDTH 7 0
BBX 11 14 -2 -2
BITMAP 
06c0
0380
0000
0f80
18c0
18c0
3000
3000
3000
6300
6300
3e00
0000
0000
ENDCHAR
STARTCHAR U+010D
ENCODING 269
SWIDTH 500 0
DWIDTH 7 0
BBX 11 14 -2 -2
BITMAP 
0000
0000
06c0
0300
0000
0f00
1980
3000
3000
6000
6300
3e00
0000
0000
ENDCHAR
STARTCHAR U+010E
ENCODING 270
SWIDTH 500 0
DWIDTH 7 0
BBX 11 14 -2 -2
BITMAP 
06c0
0380
0000
1f80
0cc0
0cc0
1980
1980
1980
3300
3300
7e00
0000
0000
ENDCHAR
STARTCHAR U+010F
ENCODING 271
SWIDTH 500 0
DWIDTH 7 0
BBX 11 14 -2 -2
BITMAP 
0000
0000
0000
0340
0340
0f80
1a00
3600
3600
6c00
6c00
3c00
0000
0000
ENDCHAR
STARTCHAR U+0110
ENCODING 272
SWIDTH 500 0
DWIDTH 7 0
BBX 11 14 -2 -2
BITMAP 
0000
0000
0000
1f00
1980
1980
3180
7d80
3180
6300
6600
7c00
0000
0000
ENDCHAR
STARTCHAR U+0111
ENCODING 273
SWIDTH 500 0
DWIDTH 7 0
BBX 11 14 -2 -2
BITMAP 
0000
0000
0060
03c0
00c0
0ec0
1b80
3180
3180
6300
6700
3d00
0000
0000
ENDCHAR
STARTCHAR U+0112
ENCODING 274
SWIDTH 500 0
DWIDTH 7 0
BBX 11 14 -2 -2
BITMAP 
0000
07c0
0000
1fc0
1800
1800
3000
3f00
3000
6000
6000
7f00
0000
0000
ENDCHAR
STARTCHAR U+0113
ENCODING 275
SWIDTH 500 0
DWIDTH 7 0
BBX 11 14 -2 -2
BITMAP 
0000
0000
0000
0f80
0000
0f00
1980
3180
3f80
6000
6300
3e00
0000
0000
ENDCHAR
STARTCHAR U+0114
ENCODING 276
SWIDTH 500 0
DWIDTH 7 0
BBX 11 14 -2 -2
BITMAP 
0c60
07c0
0000
1fc0
1800
1800
3000
3f00
3000
6000
6000
7f00
0000
0000
ENDCHAR
STARTCHAR U+0115
ENCODING 277
SWIDTH 500 0
DWIDTH 7 0
BBX 11 14 -2 -2
BITMAP 
0000
0000
0ce0
0780
0000
0f00
1980
3180
3f80
6000
6300
3e00
0000
0000
ENDCHAR
STARTCHAR U+0116
ENCODING 278
SWIDTH 500 0
DWIDTH 7 0
BBX 11 14 -2 -2
BITMAP 
0300
0300
0000
1fc0
1800
1800
3000
3f00
3000
6000
6000
7f00
0000
0000
ENDCHAR
STARTCHAR U+0117
ENCODING 279
SWIDTH 500 0
DWIDTH 7 0
BBX 11 14 -2 -2
BITMAP 
0000
0000
0300
0600
0000
0f00
1980
3180
3f80
6000
6300
3e00
0000
0000
ENDCHAR
STARTCHAR U+0118
ENCODING 280
SWIDTH 500 0
DWIDTH 7 0
BBX 11 14 -2 -2
BITMAP 
0000
0000
0000
1fc0
1800
1800
3000
3f00
3000
6000
6000
7f00
0c00
0600
ENDCHAR
STARTCHAR U+0119
ENCODING 281
SWIDTH 500 0
DWIDTH 7 0
BBX 11 14 -2 -2
BITMAP 
0000
0000
0000
0000
0000
0f00
1980
3180
3f80
6000
6300
3e00
3000
1800
ENDCHAR
STARTCHAR U+011A
ENCODING 282
SWIDTH 500 0
DWIDTH 7 0
BBX 11 14 -2 -2
BITMAP 
06c0
0380
0000
1fc0
1800
1800
3000
3f00
3000
6000
6000
7f00
0000
0000
ENDCHAR
STARTCHAR U+011B
ENCODING 283
SWIDTH 500 0
DWIDTH 7 0
BBX 11 14 -2 -2
BITMAP 
0000
0000
06c0
0300
0000
0f00
1980
3180
3f80
6000
6300
3e00
0000
0000
ENDCHAR
STARTCHAR U+011C
ENCODING 284
SWIDTH 500 0
DWIDTH 7 0
BBX 11 14 -2 -2
BITMAP 
0380
06c0
0000
0f80
18c0
1800
3000
3780
3180
6300
6700
3d00
0000
0000
ENDCHAR
STARTCHAR U+011D
ENCODING 285
SWIDTH 500 0
DWIDTH 7 0
BBX 11 14 -2 -2
BITMAP 
0000
0000
0700
0d80
0000
0ec0
1b80
3300
3600
3c00
3000
6c00
6600
3c00
ENDCHAR
STARTCHAR U+011E
ENCODING 286
SWIDTH 500 0
DWIDTH 7 0
BBX 11 14 -2 -2
BITMAP 
06c0
0380
0000
0f80
18c0
1800
3000
3780
3180
6300
6700
3d00
0000
0000
ENDCHAR
STARTCHAR U+011F
ENCODING 287
SWIDTH 500 0
DWIDTH 7 0
BBX 11 14 -2 -2
BITMAP 
0000
0000
0ce0
0780
0000
0ec0
1b00
3300
3600
3c00
3000
6c00
6600
3c00
ENDCHAR
STARTCHAR U+0120
ENCODING 288
SWIDTH 500 0
DWIDTH 7 0
BBX 11 14 -2 -2
BITMAP 
0300
0300
0000
0f80
18c0
18c0
3000
3000
3780
6300
6700
3d00
0000
0000
ENDCHAR
STARTCHAR U+0121
ENCODING 289
SWIDTH 500 0
DWIDTH 7 0
BBX 11 14 -2 -2
BITMAP 
0000
0000
0300
0600
0000
0ec0
1b80
3300
3600
3c00
3000
6c00
6600
3c00
ENDCHAR
STARTCHAR U+0122
ENCODING 290
SWIDTH 500 0
DWIDTH 7 0
BBX 11 14 -2 -2
BITMAP 
0000
0000
0000
0f80
18c0
1800
3000
3780
3180
6300
6700
3d00
1800
3000
ENDCHAR
STARTCHAR U+0123
ENCODING 291
SWIDTH 500 0
DWIDTH 7 0
BBX 11 14 -2 -2
BITMAP 
0000
0000
0380
0600
0000
0ec0
1b00
3300
3600
3c00
3000
6c00
6600
3c00
ENDCHAR
STARTCHAR U+0124
ENCODING 292
SWIDTH 500 0
DWIDTH 7 0
BBX 11 14 -2 -2
BITMAP 
0380
06c0
0000
18c0
18c0
18c0
3180
3f80
3180
6300
6300
6300
0000
0000
ENDCHAR
STARTCHAR U+0125
ENCODING 293
SWIDTH 500 0
DWIDTH 7 0
BBX 11 14 -2 -2
BITMAP 
0380
06c0
0000
1800
1800
1f00
3980
3180
3180
6300
6300
6300
0000
0000
ENDCHAR
STARTCHAR U+0126
ENCODING 294
SWIDTH 500 0
DWIDTH 7 0
BBX 11 14 -2 -2
BITMAP 
0000
0000
0000
1980
3fc0
1980
3300
3f00
3300
6600
6600
6600
0000
0000
ENDCHAR
STARTCHAR U+0127
ENCODING 295
SWIDTH 500 0
DWIDTH 7 0
BBX 11 14 -2 -2
BITMAP 
0000
0000
0c00
3e00
1800
1f00
3980
3180
3180
6300
6300
6300
0000
0000
ENDCHAR
STARTCHAR U+0128
ENCODING 296
SWIDTH 500 0
DWIDTH 7 0
BBX 11 14 -2 -2
BITMAP 
0760
0dc0
0000
1f80
0600
0600
0c00
0c00
0c00
1800
1800
7e00
0000
0000
ENDCHAR
STARTCHAR U+0129
ENCODING 297
SWIDTH 500 0
DWIDTH 7 0
BBX 11 14 -2 -2
BITMAP 
0000
0000
0f60
1980
0000
0e00
0c00
0c00
0c00
1800
1800
7e00
0000
0000
ENDCHAR
STARTCHAR U+012A
ENCODING 298
SWIDTH 500 0
DWIDTH 7 0
BBX 11 14 -2 -2
BITMAP 
0000
0780
0000
1f80
0600
0600
0c00
0c00
0c00
1800
1800
7e00
0000
0000
ENDCHAR
STARTCHAR U+012B
ENCODING 299
SWIDTH 500 0
DWIDTH 7 0
BBX 11 14 -2 -2
BITMAP 
0000
0000
0000
1f00
0000
0e00
0c00
0c00
0c00
1800
1800
7e00
0000
0000
ENDCHAR
STARTCHAR U+012C
ENCODING 300
SWIDTH 500 0
DWIDTH 7 0
BBX 11 14 -2 -2
BITMAP 
0cc0
0780
0000
1f80
0600
0600
0c00
0c00
0c00
1800
1800
7e00
0000
0000
ENDCHAR
STARTCHAR U+012D
ENCODING 301
SWIDTH 500 0
DWIDTH 7 0
BBX 11 14 -2 -2
BITMAP 
0000
0000
0dc0
0700
0000
0e00
0c00
0c00
0c00
1800
1800
7e00
0000
0000
ENDCHAR
STARTCHAR U+012E
ENCODING 302
SWIDTH 500 0
DWIDTH 7 0
BBX 11 14 -2 -2
BITMAP 
0000
0000
0000
1f80
0600
0600
0c00
0c00
0c00
1800
1800
7e00
3000
1800
ENDCHAR
STARTCHAR U+012F
ENCODING 303
SWIDTH 500 0
DWIDTH 7 0
BBX 11 14 -2 -2
BITMAP 
0000
0000
0300
0600
0000
0e00
0c00
0c00
0c00
1800
1800
7e00
3000
1800
ENDCHAR
STARTCHAR U+0130
ENCODING 304
SWIDTH 500 0
DWIDTH 7 0
BBX 11 14 -2 -2
BITMAP 
0300
0300
0000
1f80
0600
0600
0c00
0c00
0c00
1800
1800
7e00
0000
0000
ENDCHAR
STARTCHAR U+0131
ENCODING 305
SWIDTH 500 0
DWIDTH 7 0
BBX 11 14 -2 -2
BITMAP 
0000
0000
0000
0000
0000
0e00
0c00
0c00
0c00
1800
1800
7e00
0000
0000
ENDCHAR
STARTCHAR U+0132
ENCODING 306
SWIDTH 500 0
DWIDTH 7 0
BBX 11 14 -2 -2
BITMAP 
0000
0000
0000
1ec0
0cc0
0cc0
1980
1980
1980
3300
3500
7e00
0000
0000
ENDCHAR
STARTCHAR U+0133
ENCODING 307
SWIDTH 500 0
DWIDTH 7 0
BBX 11 14 -2 -2
BITMAP 
0000
0000
06c0
0d80
0000
1d80
1b00
1b00
1b00
3600
3600
7a00
0c00
7800
ENDCHAR
STARTCHAR U+0134
ENCODING 308
SWIDTH 500 0
DWIDTH 7 0
BBX 11 14 -2 -2
BITMAP 
01c0
0360
0000
03c0
0180
0180
0300
0300
0300
6600
6600
3c00
0000
0000
ENDCHAR
STARTCHAR U+0135
ENCODING 309
SWIDTH 500 0
DWIDTH 7 0
BBX 11 14 -2 -2
BITMAP 
0000
0000
0380
06c0
0000
0380
0300
0300
0300
0600
0600
6600
6c00
3800
ENDCHAR
STARTCHAR U+0136
ENCODING 310
SWIDTH 500 0
DWIDTH 7 0
BBX 11 14 -2 -2
BITMAP 
0000
0000
0000
18c0
1980
1b00
3400
3800
3400
6c00
6600
6300
6000
c000
ENDCHAR
STARTCHAR U+0137
ENCODING 311
SWIDTH 500 0
DWIDTH 7 0
BBX 11 14 -2 -2
BITMAP 
0000
0000
0000
1800
1800
1b80
3600
3400
3800
6800
6c00
6600
6000
c000
ENDCHAR
STARTCHAR U+0138
ENCODING 312
SWIDTH 500 0
DWIDTH 7 0
BBX 11 14 -2 -2
BITMAP 
0000
0000
0000
0000
0000
1b80
3600
3400
3800
6800
6c00
6600
0000
0000
ENDCHAR
STARTCHAR U+0139
ENCODING 313
SWIDTH 500 0
DWIDTH 7 0
BBX 11 14 -2 -2
BITMAP 
01c0
0700
0000
1800
1800
1800
3000
3000
3000
6000
6000
7f00
0000
0000
ENDCHAR
STARTCHAR U+013A
ENCODING 314
SWIDTH 500 0
DWIDTH 7 0
BBX 11 14 -2 -2
BITMAP 
0380
0e00
0000
0e00
0600
0600
0c00
0c00
0c00
1800
1800
7e00
0000
0000
ENDCHAR
STARTCHAR U+013B
ENCODING 315
SWIDTH 500 0
DWIDTH 7 0
BBX 11 14 -2 -2
BITMAP 
0000
0000
0000
1800
1800
1800
3000
3000
3000
6000
6000
7f00
1800
3000
ENDCHAR
STARTCHAR U+013C
ENCODING 316
SWIDTH 500 0
DWIDTH 7 0
BBX 11 14 -2 -2
BITMAP 
0000
0000
0000
0e00
0600
0600
0c00
0c00
0c00
1800
1800
7e00
3000
6000
ENDCHAR
STARTCHAR U+013D
ENCODING 317
SWIDTH 500 0
DWIDTH 7 0
BBX 11 14 -2 -2
BITMAP 
0000
0000
0380
1b00
1b00
1a00
3000
3000
3000
6000
6000
7f00
0000
0000
ENDCHAR
STARTCHAR U+013E
ENCODING 318
SWIDTH 500 0
DWIDTH 7 0
BBX 11 14 -2 -2
BITMAP 
0000
0000
00e0
0ec0
06c0
0680
0c00
0c00
0c00
1800
1800
7e00
0000
0000
ENDCHAR
STARTCHAR U+013F
ENCODING 319
SWIDTH 500 0
DWIDTH 7 0
BBX 11 14 -2 -2
BITMAP 
0000
0000
0000
1800
1800
1800
3300
3300
3000
6000
6000
7f00
0000
0000
ENDCHAR
STARTCHAR U+0140
ENCODING 320
SWIDTH 500 0
DWIDTH 7 0
BBX 11 14 -2 -2
BITMAP 
0000
0000
0000
0e00
0600
0600
0d00
0d00
0c00
1800
1800
7e00
0000
0000
ENDCHAR
STARTCHAR U+0141
ENCODING 321
SWIDTH 500 0
DWIDTH 7 0
BBX 11 14 -2 -2
BITMAP 
0000
0000
0000
1800
1800
1b00
3400
3800
7000
6000
6000
7f00
0000
0000
ENDCHAR
STARTCHAR U+0142
ENCODING 322
SWIDTH 500 0
DWIDTH 7 0
BBX 11 14 -2 -2
BITMAP 
0000
0000
0000
0e00
0600
0780
0e00
1c00
3400
1800
1800
7e00
0000
0000
ENDCHAR
STARTCHAR U+0143
ENCODING 323
SWIDTH 500 0
DWIDTH 7 0
BBX 11 14 -2 -2
BITMAP 
01c0
0700
0000
1cc0
1cc0
1cc0
3580
3680
3680
6700
6700
6700
0000
0000
ENDCHAR
STARTCHAR U+0144
ENCODING 324
SWIDTH 500 0
DWIDTH 7 0
BBX 11 14 -2 -2
BITMAP 
0000
0000
03c0
0e00
0000
1f00
3980
3180
3180
6300
6300
6300
0000
0000
ENDCHAR
STARTCHAR U+0145
ENCODING 325
SWIDTH 500 0
DWIDTH 7 0
BBX 11 14 -2 -2
BITMAP 
0000
0000
0000
1cc0
1cc0
1cc0
3580
3680
3680
6700
6700
6700
6000
c000
ENDCHAR
STARTCHAR U+0146
ENCODING 326
SWIDTH 500 0
DWIDTH 7 0
BBX 11 14 -2 -2
BITMAP 
0000
0000
0000
0000
0000
1f00
3980
3180
3180
6300
6300
6300
6000
c000
ENDCHAR
STARTCHAR U+0147
ENCODING 327
SWIDTH 500 0
DWIDTH 7 0
BBX 11 14 -2 -2
BITMAP 
06c0
0380
0000
1cc0
1cc0
1cc0
3580
3680
3680
6700
6700
6700
0000
0000
ENDCHAR
STARTCHAR U+0148
ENCODING 328
SWIDTH 500 0
DWIDTH 7 0
BBX 11 14 -2 -2
BITMAP 
0000
0000
06c0
0300
0000
1f00
3980
3180
3180
6300
6300
6300
0000
0000
ENDCHAR
STARTCHAR U+0149
ENCODING 329
SWIDTH 500 0
DWIDTH 7 0
BBX 11 14 -2 -2
BITMAP 
0e00
0600
0c00
1800
0000
1f00
3980
3180
3180
6300
6300
6300
0000
0000
ENDCHAR
STARTCHAR U+014A
ENCODING 330
SWIDTH 500 0
DWIDTH 7 0
BBX 11 14 -2 -2
BITMAP 
0000
0000
0000
1b80
1cc0
18c0
3180
3180
3180
6300
6300
6e00
0000
0000
ENDCHAR
STARTCHAR U+014B
ENCODING 331
SWIDTH 500 0
DWIDTH 7 0
BBX 11 14 -2 -2
BITMAP 
0000
0000
0000
0000
0000
1f00
3980
3180
3180
6300
6300
6300
0600
1c00
ENDCHAR
STARTCHAR U+014C
ENCODING 332
SWIDTH 500 0
DWIDTH 7 0
BBX 11 14 -2 -2
BITMAP 
0000
07c0
0000
0f80
18c0
18c0
3180
3180
3180
6300
6300
3e00
0000
0000
ENDCHAR
STARTCHAR U+014D
ENCODING 333
SWIDTH 500 0
DWIDTH 7 0
BBX 11 14 -2 -2
BITMAP 
0000
0000
0000
0f80
0000
0f00
1980
3180
3180
6300
6300
3e00
0000
0000
ENDCHAR
STARTCHAR U+014E
ENCODING 334
SWIDTH 500 0
DWIDTH 7 0
BBX 11 14 -2 -2
BITMAP 
0c60
07c0
0000
0f80
18c0
18c0
3180
3180
3180
6300
6300
3e00
0000
0000
ENDCHAR
STARTCHAR U+014F
ENCODING 335
SWIDTH 500 0
DWIDTH 7 0
BBX 11 14 -2 -2
BITMAP 
0000
0000
0ce0
0780
0000
0f00
1980
3180
3180
6300
6300
3e00
0000
0000
ENDCHAR
STARTCHAR U+0150
ENCODING 336
SWIDTH 500 0
DWIDTH 7 0
BBX 11 14 -2 -2
BITMAP 
0360
06c0
0000
0f80
18c0
18c0
3180
3180
3180
6300
6300
3e00
0000
0000
ENDCHAR
STARTCHAR U+0151
ENCODING 337
SWIDTH 500 0
DWIDTH 7 0
BBX 11 14 -2 -2
BITMAP 
0000
0000
0760
0d80
0000
0f00
1980
3180
3180
6300
6300
3e00
0000
0000
ENDCHAR
STARTCHAR U+0152
ENCODING 338
SWIDTH 500 0
DWIDTH 7 0
BBX 11 14 -2 -2
BITMAP 
0000
0000
0000
0ec0
1b00
1b00
3600
3780
3600
6c00
6c00
3b00
0000
0000
ENDCHAR
STARTCHAR U+0153
ENCODING 339
SWIDTH 500 0
DWIDTH 7 0
BBX 11 14 -2 -2
BITMAP 
0000
0000
0000
0000
0000
0f00
1d80
3580
3780
6800
6b00
3600
0000
0000
ENDCHAR
STARTCHAR U+0154
ENCODING 340
SWIDTH 500 0
DWIDTH 7 0
BBX 11 14 -2 -2
BITMAP 
01c0
0700
0000
1f80
18c0
18c0
3180
3f00
3600
6600
6300
6300
0000
0000
ENDCHAR
STARTCHAR U+0155
ENCODING 341
SWIDTH 500 0
DWIDTH 7 0
BBX 11 14 -2 -2
BITMAP 
0000
0000
03c0
0e00
0000
1f00
3980
3180
3000
6000
6000
6000
0000
0000
ENDCHAR
STARTCHAR U+0156
ENCODING 342
SWIDTH 500 0
DWIDTH 7 0
BBX 11 14 -2 -2
BITMAP 
0000
0000
0000
1f80
18c0
18c0
3180
3f00
3600
6600
6300
6300
6000
c000
ENDCHAR
STARTCHAR U+0157
ENCODING 343
SWIDTH 500 0
DWIDTH 7 0
BBX 11 14 -2 -2
BITMAP 
0000
0000
0000
0000
0000
1f00
3980
3180
3000
6000
6000
6000
6000
c000
ENDCHAR
STARTCHAR U+0158
ENCODING 344
SWIDTH 500 0
DWIDTH 7 0
BBX 11 14 -2 -2
BITMAP 
06c0
0380
0000
1f80
18c0
18c0
3180
3f00
3600
6600
6300
6300
0000
0000
ENDCHAR
STARTCHAR U+0159
ENCODING 345
SWIDTH 500 0
DWIDTH 7 0
BBX 11 14 -2 -2
BITMAP 
0000
0000
06c0
0300
0000
1f00
3980
3000
3000
6000
6000
6000
0000
0000
ENDCHAR
STARTCHAR U+015A
ENCODING 346
SWIDTH 500 0
DWIDTH 7 0
BBX 11 14 -2 -2
BITMAP 
01c0
0700
0000
0f80
18c0
1800
0c00
0600
0300
6300
6300
3e00
0000
0000
ENDCHAR
STARTCHAR U+015B
ENCODING 347
SWIDTH 500 0
DWIDTH 7 0
BBX 11 14 -2 -2
BITMAP 
0000
0000
03c0
0e00
0000
0f00
1980
3000
1e00
0300
6300
3e00
0000
0000
ENDCHAR
STARTCHAR U+015C
ENCODING 348
SWIDTH 500 0
DWIDTH 7 0
BBX 11 14 -2 -2
BITMAP 
0380
06c0
0000
0f80
18c0
1800
0c00
0600
0300
6300
6300
3e00
0000
0000
ENDCHAR
STARTCHAR U+015D
ENCODING 349
SWIDTH 500 0
DWIDTH 7 0
BBX 11 14 -2 -2
BITMAP 
0000
0000
0700
0d80
0000
0f00
1980
3000
1e00
0300
6300
3e00
0000
0000
ENDCHAR
STARTCHAR U+015E
ENCODING 350
SWIDTH 500 0
DWIDTH 7 0
BBX 11 14 -2 -2
BITMAP 
0000
0000
0000
0f80
18c0
1800
0c00
0600
0300
6300
6300
3e00
1800
3000
ENDCHAR
STARTCHAR U+015F
ENCODING 351
SWIDTH 500 0
DWIDTH 7 0
BBX 11 14 -2 -2
BITMAP 
0000
0000
0000
0000
0000
0f00
1980
3000
1e00
0300
6300
3e00
1800
3000
ENDCHAR
STARTCHAR U+0160
ENCODING 352
SWIDTH 500 0
DWIDTH 7 0
BBX 11 14 -2 -2
BITMAP 
06c0
0380
0000
0f80
18c0
1800
0c00
0600
0300
6300
6300
3e00
0000
0000
ENDCHAR
STARTCHAR U+0161
ENCODING 353
SWIDTH 500 0
DWIDTH 7 0
BBX 11 14 -2 -2
BITMAP 
0000
0000
06c0
0300
0000
0f00
1980
3000
1e00
0300
6300
3e00
0000
0000
ENDCHAR
STARTCHAR U+0162
ENCODING 354
SWIDTH 500 0
DWIDTH 7 0
BBX 11 14 -2 -2
BITMAP 
0000
0000
0000
3fc0
0600
0600
0c00
0c00
0c00
1800
1800
1800
1800
3000
ENDCHAR
STARTCHAR U+0163
ENCODING 355
SWIDTH 500 0
DWIDTH 7 0
BBX 11 14 -2 -2
BITMAP 
0000
0000
0000
0600
0600
1f80
0c00
0c00
0c00
1800
1b00
1e00
1800
3000
ENDCHAR
STARTCHAR U+0164
ENCODING 356
SWIDTH 500 0
DWIDTH 7 0
BBX 11 14 -2 -2
BITMAP 
06c0
0380
0000
3fc0
0600
0600
0c00
0c00
0c00
1800
1800
0000
0000
0000
ENDCHAR
STARTCHAR U+0165
ENCODING 357
SWIDTH 500 0
DWIDTH 7 0
BBX 11 14 -2 -2
BITMAP 
0000
00e0
0060
06c0
0680
0600
3f00
0c00
0c00
1800
1800
1b00
0c00
0000
ENDCHAR
STARTCHAR U+0166
ENCODING 358
SWIDTH 500 0
DWIDTH 7 0
BBX 11 14 -2 -2
BITMAP 
0000
0000
0000
3fc0
0600
0600
0d00
0e00
3c00
6800
1800
1800
0000
0000
ENDCHAR
STARTCHAR U+0167
ENCODING 359
SWIDTH 500 0
DWIDTH 7 0
BBX 11 14 -2 -2
BITMAP 
0000
0000
0000
0600
0600
1f80
0c00
0d00
0e00
3800
6b00
0e00
0000
0000
ENDCHAR
STARTCHAR U+0168
ENCODING 360
SWIDTH 500 0
DWIDTH 7 0
BBX 11 14 -2 -2
BITMAP 
0760
0dc0
0000
18c0
18c0
18c0
3180
3180
3180
6300
6300
3e00
0000
0000
ENDCHAR
STARTCHAR U+0169
ENCODING 361
SWIDTH 500 0
DWIDTH 7 0
BBX 11 14 -2 -2
BITMAP 
0000
0000
0f60
1980
0000
18c0
3180
3180
3180
6300
6700
3d00
0000
0000
ENDCHAR
STARTCHAR U+016A
ENCODING 362
SWIDTH 500 0
DWIDTH 7 0
BBX 11 14 -2 -2
BITMAP 
0000
07c0
0000
18c0
18c0
18c0
3180
3180
3180
6300
6300
3e00
0000
0000
ENDCHAR
STARTCHAR U+016B
ENCODING 363
SWIDTH 500 0
DWIDTH 7 0
BBX 11 14 -2 -2
BITMAP 
0000
0000
0000
0f80
0000
18c0
3180
3180
3180
6300
6700
3d00
0000
0000
ENDCHAR
STARTCHAR U+016C
ENCODING 364
SWIDTH 500 0
DWIDTH 7 0
BBX 11 14 -2 -2
BITMAP 
0c60
07c0
0000
18c0
18c0
18c0
3180
3180
3180
6300
6300
3e00
0000
0000
ENDCHAR
STARTCHAR U+016D
ENCODING 365
SWIDTH 500 0
DWIDTH 7 0
BBX 11 14 -2 -2
BITMAP 
0000
0000
0ce0
0780
0000
18c0
3180
3180
3180
6300
6700
3d00
0000
0000
ENDCHAR
STARTCHAR U+016E
ENCODING 366
SWIDTH 500 0
DWIDTH 7 0
BBX 11 14 -2 -2
BITMAP 
0380
06c0
0380
18c0
18c0
18c0
3180
3180
3180
6300
6300
3e00
0000
0000
ENDCHAR
STARTCHAR U+016F
ENCODING 367
SWIDTH 500 0
DWIDTH 7 0
BBX 11 14 -2 -2
BITMAP 
0000
0380
06c0
0300
0000
18c0
3180
3180
3180
6300
6700
3d00
0000
0000
ENDCHAR
STARTCHAR U+0170
ENCODING 368
SWIDTH 500 0
DWIDTH 7 0
BBX 11 14 -2 -2
BITMAP 
0360
06c0
0000
18c0
18c0
18c0
3180
3180
3180
6300
6300
3e00
0000
0000
ENDCHAR
STARTCHAR U+0171
ENCODING 369
SWIDTH 500 0
DWIDTH 7 0
BBX 11 14 -2 -2
BITMAP 
0000
0000
0760
0d80
0000
18c0
3180
3180
3180
6300
6700
3d00
0000
0000
ENDCHAR
STARTCHAR U+0172
ENCODING 370
SWIDTH 500 0
DWIDTH 7 0
BBX 11 14 -2 -2
BITMAP 
0000
0000
0000
18c0
18c0
18c0
3180
3180
3180
6300
6300
3e00
3000
1800
ENDCHAR
STARTCHAR U+0173
ENCODING 371
SWIDTH 500 0
DWIDTH 7 0
BBX 11 14 -2 -2
BITMAP 
0000
0000
0000
0000
0000
18c0
3180
3180
3180
6300
6700
3e00
0c00
0600
ENDCHAR
STARTCHAR U+0174
ENCODING 372
SWIDTH 500 0
DWIDTH 7 0
BBX 11 14 -2 -2
BITMAP 
0380
06c0
0000
18c0
18c0
18c0
3180
3680
3e80
7700
7700
6300
0000
0000
ENDCHAR
STARTCHAR U+0175
ENCODING 373
SWIDTH 500 0
DWIDTH 7 0
BBX 11 14 -2 -2
BITMAP 
0000
0000
0e00
1b00
0000
1980
3500
3500
3500
6a00
6a00
3400
0000
0000
ENDCHAR
STARTCHAR U+0176
ENCODING 374
SWIDTH 500 0
DWIDTH 7 0
BBX 11 14 -2 -2
BITMAP 
0700
0d80
0000
1980
1980
1980
1b00
1a00
1c00
1800
1800
1800
0000
0000
ENDCHAR
STARTCHAR U+0177
ENCODING 375
SWIDTH 500 0
DWIDTH 7 0
BBX 11 14 -2 -2
BITMAP 
0000
0000
0700
0d80
0000
18c0
3180
3180
3180
3700
1d00
0300
0600
7c00
ENDCHAR
STARTCHAR U+0178
ENCODING 376
SWIDTH 500 0
DWIDTH 7 0
BBX 11 14 -2 -2
BITMAP 
0d80
0d80
0000
1980
1980
1980
1b00
1a00
1c00
1800
1800
1800
0000
0000
ENDCHAR
STARTCHAR U+0179
ENCODING 377
SWIDTH 500 0
DWIDTH 7 0
BBX 11 14 -2 -2
BITMAP 
01c0
0700
0000
1fc0
0180
0300
0600
0c00
1800
3000
6000
7f00
0000
0000
ENDCHAR
STARTCHAR U+017A
ENCODING 378
SWIDTH 500 0
DWIDTH 7 0
BBX 11 14 -2 -2
BITMAP 
0000
0000
03c0
0e00
0000
1fc0
0300
0600
1c00
3000
6000
7f00
0000
0000
ENDCHAR
STARTCHAR U+017B
ENCODING 379
SWIDTH 500 0
DWIDTH 7 0
BBX 11 14 -2 -2
BITMAP 
0300
0300
0000
1fc0
0180
0300
0600
0c00
1800
3000
6000
7f00
0000
0000
ENDCHAR
STARTCHAR U+017C
ENCODING 380
SWIDTH 500 0
DWIDTH 7 0
BBX 11 14 -2 -2
BITMAP 
0000
0000
0300
0600
0000
1fc0
0300
0600
1c00
3000
6000
7f00
0000
0000
ENDCHAR
STARTCHAR U+017D
ENCODING 381
SWIDTH 500 0
DWIDTH 7 0
BBX 11 14 -2 -2
BITMAP 
06c0
0380
0000
1fc0
0180
0300
0600
0c00
1800
3000
6000
7f00
0000
0000
ENDCHAR
STARTCHAR U+017E
ENCODING 382
SWIDTH 500 0
DWIDTH 7 0
BBX 11 14 -2 -2
BITMAP 
0000
0000
06c0
0300
0000
1fc0
0300
0600
1c00
3000
6000
7f00
0000
0000
ENDCHAR
STARTCHAR U+017F
ENCODING 383
SWIDTH 500 0
DWIDTH 7 0
BBX 11 14 -2 -2
BITMAP 
0000
0000
0000
0380
0600
0600
1c00
0c00
0c00
1800
1800
1800
0000
0000
ENDCHAR
STARTCHAR U+0181
ENCODING 385
SWIDTH 500 0
DWIDTH 7 0
BBX 11 14 -2 -2
BITMAP 
0000
0000
0f00
1d80
3580
0d00
1e00
1b00
1b00
3600
3600
3c00
0000
0000
ENDCHAR
STARTCHAR U+0182
ENCODING 386
SWIDTH 500 0
DWIDTH 7 0
BBX 11 14 -2 -2
BITMAP 
0000
0000
1f80
1800
1800
1800
3e00
3300
3300
6600
6600
fc00
0000
0000
ENDCHAR
STARTCHAR U+0185
ENCODING 389
SWIDTH 500 0
DWIDTH 7 0
BBX 11 14 -2 -2
BITMAP 
0000
0000
0600
1c00
1c00
0f00
1d00
1b00
1b00
3600
3a00
3400
0000
0000
ENDCHAR
STARTCHAR U+0192
ENCODING 402
SWIDTH 500 0
DWIDTH 7 0
BBX 11 14 -2 -2
BITMAP 
0000
0000
0000
0380
0600
0600
3f00
0c00
0c00
1800
1800
3000
e000
0000
ENDCHAR
STARTCHAR U+0193
ENCODING 403
SWIDTH 500 0
DWIDTH 7 0
BBX 11 14 -2 -2
BITMAP 
0000
03e0
06e0
0d80
1800
1800
3780
3300
3300
7600
3600
1c00
0000
0000
ENDCHAR
STARTCHAR U+0194
ENCODING 404
SWIDTH 500 0
DWIDTH 7 0
BBX 11 14 -2 -2
BITMAP 
0000
0000
0000
0000
0000
1980
3300
3300
3600
3400
1800
3800
6800
3000
ENDCHAR
STARTCHAR U+0196
ENCODING 406
SWIDTH 500 0
DWIDTH 7 0
BBX 11 14 -2 -2
BITMAP 
0000
0000
0f00
0600
0600
0600
0c00
0c00
0c00
1800
1800
0e00
0000
0000
ENDCHAR
STARTCHAR U+0197
ENCODING 407
SWIDTH 500 0
DWIDTH 7 0
BBX 11 14 -2 -2
BITMAP 
0000
0000
0fc0
0600
0600
0600
1e00
0c00
0c00
1800
1800
7e00
0000
0000
ENDCHAR
STARTCHAR U+019A
ENCODING 410
SWIDTH 500 0
DWIDTH 7 0
BBX 11 14 -2 -2
BITMAP 
0000
0000
0700
0600
0600
0600
0c00
0c00
0c00
1800
1800
7e00
0000
0000
ENDCHAR
STARTCHAR U+019B
ENCODING 411
SWIDTH 500 0
DWIDTH 7 0
BBX 11 14 -2 -2
BITMAP 
0000
0000
0600
0600
0780
1e00
0c00
0c00
1c00
3400
6600
6600
0000
0000
ENDCHAR
STARTCHAR U+019C
ENCODING 412
SWIDTH 500 0
DWIDTH 7 0
BBX 11 14 -2 -2
BITMAP 
0000
0000
0000
0000
0000
1980
3500
3500
3500
6a00
6a00
3600
0000
0000
ENDCHAR
STARTCHAR U+01AA
ENCODING 426
SWIDTH 500 0
DWIDTH 7 0
BBX 11 14 -2 -2
BITMAP 
0000
0600
0e00
1a00
0f00
0600
0c00
0c00
0c00
1800
1800
1a00
1c00
1800
ENDCHAR
STARTCHAR U+01B7
ENCODING 439
SWIDTH 500 0
DWIDTH 7 0
BBX 11 14 -2 -2
BITMAP 
0000
0000
0000
1fc0
0180
0700
0d00
0180
0180
0300
6700
3e00
0000
0000
ENDCHAR
STARTCHAR U+01BE
ENCODING 446
SWIDTH 500 0
DWIDTH 7 0
BBX 11 14 -2 -2
BITMAP 
0000
0000
0300
0600
0600
0600
3f00
0c00
0600
6600
6600
3c00
0000
0000
ENDCHAR
STARTCHAR U+01C0
ENCODING 448
SWIDTH 500 0
DWIDTH 7 0
BBX 11 14 -2 -2
BITMAP 
0000
0000
0300
0600
0600
0600
0c00
0c00
0c00
1800
1800
1800
0000
0000
ENDCHAR
STARTCHAR U+01C1
ENCODING 449
SWIDTH 500 0
DWIDTH 7 0
BBX 11 14 -2 -2
BITMAP 
0000
0000
0680
0d00
0d00
0d00
1a00
1a00
1a00
3400
3400
3400
0000
0000
ENDCHAR
STARTCHAR U+01C2
ENCODING 450
SWIDTH 500 0
DWIDTH 7 0
BBX 11 14 -2 -2
BITMAP 
0000
0000
0300
0600
0600
1f80
0c00
3f00
0c00
1800
1800
1800
0000
0000
ENDCHAR
STARTCHAR U+01C3
ENCODING 451
SWIDTH 500 0
DWIDTH 7 0
BBX 11 14 -2 -2
BITMAP 
0000
0000
0780
0f00
0f00
0600
0c00
0c00
0000
1800
3c00
1800
0000
0000
ENDCHAR
STARTCHAR U+01C4
ENCODING 452
SWIDTH 500 0
DWIDTH 7 0
BBX 11 14 -2 -2
BITMAP 
01a0
00c0
0000
3bc0
34c0
3580
6980
6b00
6a00
d600
d400
ef00
0000
0000
ENDCHAR
STARTCHAR U+01C6
ENCODING 454
SWIDTH 500 0
DWIDTH 7 0
BBX 11 14 -2 -2
BITMAP 
0000
0000
01a0
0dc0
0c00
1dc0
3980
6980
6b00
d600
d400
7700
0000
0000
ENDCHAR
STARTCHAR U+01C7
ENCODING 455
SWIDTH 500 0
DWIDTH 7 0
BBX 11 14 -2 -2
BITMAP 
0000
0000
0000
19c0
18c0
18c0
3180
3180
3180
6300
6d00
7a00
0000
0000
ENDCHAR
STARTCHAR U+01C8
ENCODING 456
SWIDTH 500 0
DWIDTH 7 0
BBX 11 14 -2 -2
BITMAP 
0000
0000
0c60
18c0
1800
19c0
3180
3180
3180
6300
6300
7b00
0600
1c00
ENDCHAR
STARTCHAR U+01C9
ENCODING 457
SWIDTH 500 0
DWIDTH 7 0
BBX 11 14 -2 -2
BITMAP 
0000
0000
0060
1cc0
0c00
0dc0
1980
1980
1980
3300
3300
7b00
0600
1c00
ENDCHAR
STARTCHAR U+01CA
ENCODING 458
SWIDTH 500 0
DWIDTH 7 0
BBX 11 14 -2 -2
BITMAP 
0000
0000
0000
36c0
36c0
3ac0
6d80
6d80
6d80
db00
dd00
da00
0000
0000
ENDCHAR
STARTCHAR U+01CB
ENCODING 459
SWIDTH 500 0
DWIDTH 7 0
BBX 11 14 -2 -2
BITMAP 
0000
0000
1b60
36c0
3600
3ac0
6d80
6d80
6d80
db00
db00
db00
0600
1c00
ENDCHAR
STARTCHAR U+01CC
ENCODING 460
SWIDTH 500 0
DWIDTH 7 0
BBX 11 14 -2 -2
BITMAP 
0000
0000
0060
00c0
0000
1dc0
3580
3580
3580
6b00
6b00
6b00
0600
1c00
ENDCHAR
STARTCHAR U+01CD
ENCODING 461
SWIDTH 500 0
DWIDTH 7 0
BBX 11 14 -2 -2
BITMAP 
0680
0380
0300
0700
0700
0d00
1a00
1b00
1f00
3600
6600
f700
0000
0000
ENDCHAR
STARTCHAR U+01CE
ENCODING 462
SWIDTH 500 0
DWIDTH 7 0
BBX 11 14 -2 -2
BITMAP 
0680
0700
0300
0000
0f00
0d00
0f00
0f00
1b00
7600
7600
3a00
0000
0000
ENDCHAR
STARTCHAR U+01CF
ENCODING 463
SWIDTH 500 0
DWIDTH 7 0
BBX 11 14 -2 -2
BITMAP 
0680
0300
0000
1f80
0600
0600
0c00
0c00
0c00
1800
1800
7e00
0000
0000
ENDCHAR
STARTCHAR U+01D0
ENCODING 464
SWIDTH 500 0
DWIDTH 7 0
BBX 11 14 -2 -2
BITMAP 
0000
0000
0680
0700
0000
0e00
0c00
0c00
0c00
1800
1800
7e00
0000
0000
ENDCHAR
STARTCHAR U+01D1
ENCODING 465
SWIDTH 500 0
DWIDTH 7 0
BBX 11 14 -2 -2
BITMAP 
0680
0380
0300
0700
0d80
1d80
3380
3380
3380
7600
3600
1c00
0000
0000
ENDCHAR
STARTCHAR U+01D2
ENCODING 466
SWIDTH 500 0
DWIDTH 7 0
BBX 11 14 -2 -2
BITMAP 
0000
0680
0780
0600
0700
0d00
3b00
3b00
3b00
7600
3600
1c00
0000
0000
ENDCHAR
STARTCHAR U+01D4
ENCODING 468
SWIDTH 500 0
DWIDTH 7 0
BBX 11 14 -2 -2
BITMAP 
0000
0680
0780
0600
1d80
0d80
1b00
1b00
1b00
3600
3600
3f00
0000
0000
ENDCHAR
STARTCHAR U+01D6
ENCODING 470
SWIDTH 500 0
DWIDTH 7 0
BBX 11 14 -2 -2
BITMAP 
07c0
0000
06c0
0d80
0000
1d80
1b00
1b00
1b00
3600
3600
3f00
0000
0000
ENDCHAR
STARTCHAR U+01D8
ENCODING 472
SWIDTH 500 0
DWIDTH 7 0
BBX 11 14 -2 -2
BITMAP 
0380
0300
07c0
0d80
0000
1d80
1b00
1b00
1b00
3600
3600
3f00
0000
0000
ENDCHAR
STARTCHAR U+01DA
ENCODING 474
SWIDTH 500 0
DWIDTH 7 0
BBX 11 14 -2 -2
BITMAP 
0680
0380
07c0
0d80
0000
1d80
1b00
1b00
1b00
3600
3600
3f00
0000
0000
ENDCHAR
STARTCHAR U+01DC
ENCODING 476
SWIDTH 500 0
DWIDTH 7 0
BBX 11 14 -2 -2
BITMAP 
0300
0300
0740
0d80
0000
1d80
1b00
1b00
1b00
3600
3600
3f00
0000
0000
ENDCHAR
STARTCHAR U+01DE
ENCODING 478
SWIDTH 500 0
DWIDTH 7 0
BBX 11 14 -2 -2
BITMAP 
07c0
0000
06c0
0000
0700
0d80
1980
3f80
3180
6300
6300
6300
0000
0000
ENDCHAR
STARTCHAR U+01DF
ENCODING 479
SWIDTH 500 0
DWIDTH 7 0
BBX 11 14 -2 -2
BITMAP 
0000
07c0
0000
0d80
0000
1f00
3180
0780
1d80
3300
6700
3d00
0000
0000
ENDCHAR
STARTCHAR U+01E4
ENCODING 484
SWIDTH 500 0
DWIDTH 7 0
BBX 11 14 -2 -2
BITMAP 
0000
0000
0000
0f80
18c0
1800
3000
3780
3180
6f00
6300
3f00
0000
0000
ENDCHAR
STARTCHAR U+01E5
ENCODING 485
SWIDTH 500 0
DWIDTH 7 0
BBX 11 14 -2 -2
BITMAP 
0000
0000
0000
0000
0000
0ec0
1b00
3300
3600
3c00
3000
7600
de00
7c00
ENDCHAR
STARTCHAR U+01E6
ENCODING 486
SWIDTH 500 0
DWIDTH 7 0
BBX 11 14 -2 -2
BITMAP 
06c0
0380
0000
0f80
18c0
1800
3000
3780
3180
6300
6700
3d00
0000
0000
ENDCHAR
STARTCHAR U+01E7
ENCODING 487
SWIDTH 500 0
DWIDTH 7 0
BBX 11 14 -2 -2
BITMAP 
0000
0000
06c0
0300
0000
0ec0
1b00
3300
3600
3c00
3000
6c00
6600
3c00
ENDCHAR
STARTCHAR U+01E8
ENCODING 488
SWIDTH 500 0
DWIDTH 7 0
BBX 11 14 -2 -2
BITMAP 
06c0
0380
0000
18c0
1980
1b00
3400
3800
3400
6c00
6600
6300
0000
0000
ENDCHAR
STARTCHAR U+01E9
ENCODING 489
SWIDTH 500 0
DWIDTH 7 0
BBX 11 14 -2 -2
BITMAP 
0000
06c0
0380
1800
1800
1b80
3600
3400
3800
6800
6c00
6600
0000
0000
ENDCHAR
STARTCHAR U+01EE
ENCODING 494
SWIDTH 500 0
DWIDTH 7 0
BBX 11 14 -2 -2
BITMAP 
06c0
0380
0000
1fc0
0180
0700
0d00
0180
0180
0300
6700
3e00
0000
0000
ENDCHAR
STARTCHAR U+01EF
ENCODING 495
SWIDTH 500 0
DWIDTH 7 0
BBX 11 14 -2 -2
BITMAP 
0000
0000
06c0
0300
0000
1f80
0600
0c00
1e00
0600
0600
0600
cc00
7800
ENDCHAR
STARTCHAR U+01F1
ENCODING 497
SWIDTH 500 0
DWIDTH 7 0
BBX 11 14 -2 -2
BITMAP 
0000
0000
0000
3bc0
34c0
3580
6980
6b00
6a00
d600
d400
ef00
0000
0000
ENDCHAR
STARTCHAR U+01F3
ENCODING 499
SWIDTH 500 0
DWIDTH 7 0
BBX 11 14 -2 -2
BITMAP 
0000
0000
0000
0c00
0c00
1dc0
3980
6980
6b00
d600
d400
7700
0000
0000
ENDCHAR
STARTCHAR U+01F4
ENCODING 500
SWIDTH 500 0
DWIDTH 7 0
BBX 11 14 -2 -2
BITMAP 
01c0
0700
0000
0f80
18c0
1800
3000
3000
3780
6300
6700
3d00
0000
0000
ENDCHAR
STARTCHAR U+01F5
ENCODING 501
SWIDTH 500 0
DWIDTH 7 0
BBX 11 14 -2 -2
BITMAP 
0000
0000
03c0
0e00
0000
0ec0
1b00
3300
3600
3c00
3000
6c00
6600
3c00
ENDCHAR
STARTCHAR U+01F8
ENCODING 504
SWIDTH 500 0
DWIDTH 7 0
BBX 11 14 -2 -2
BITMAP 
0700
0fc0
0f40
1d80
1e80
1e80
3500
3700
3700
6e00
6e00
7600
0000
0000
ENDCHAR
STARTCHAR U+01F9
ENCODING 505
SWIDTH 500 0
DWIDTH 7 0
BBX 11 14 -2 -2
BITMAP 
0300
0300
0180
0000
1f00
0f00
1b00
1b00
1b00
3600
3600
7f00
0000
0000
ENDCHAR
STARTCHAR U+01FA
ENCODING 506
SWIDTH 500 0
DWIDTH 7 0
BBX 11 14 -2 -2
BITMAP 
0180
0300
0780
0d80
0700
0f00
1b00
3180
3f80
6300
6300
6300
0000
0000
ENDCHAR
STARTCHAR U+01FB
ENCODING 507
SWIDTH 500 0
DWIDTH 7 0
BBX 11 14 -2 -2
BITMAP 
0180
0300
0780
0d80
0700
1f80
3180
0780
1d80
3300
6700
3d00
0000
0000
ENDCHAR
STARTCHAR U+01FC
ENCODING 508
SWIDTH 500 0
DWIDTH 7 0
BBX 11 14 -2 -2
BITMAP 
01c0
0700
0000
07c0
0d00
1b00
3600
3f80
3600
6c00
6c00
6f00
0000
0000
ENDCHAR
STARTCHAR U+01FD
ENCODING 509
SWIDTH 500 0
DWIDTH 7 0
BBX 11 14 -2 -2
BITMAP 
0000
0000
03c0
0e00
0000
1f80
3680
0680
1f80
3400
6c00
3f00
0000
0000
ENDCHAR
STARTCHAR U+01FE
ENCODING 510
SWIDTH 500 0
DWIDTH 7 0
BBX 11 14 -2 -2
BITMAP 
01c0
0700
00e0
0f80
19c0
1b40
3680
3680
3580
6b00
7300
7e00
c000
0000
ENDCHAR
STARTCHAR U+01FF
ENCODING 511
SWIDTH 500 0
DWIDTH 7 0
BBX 11 14 -2 -2
BITMAP 
0000
0000
03c0
0e00
00c0
0f80
1b80
3680
3580
6b00
7300
7e00
c000
0000
ENDCHAR
STARTCHAR U+0208
ENCODING 520
SWIDTH 500 0
DWIDTH 7 0
BBX 11 14 -2 -2
BITMAP 
0d80
06c0
0000
1f80
0600
0600
0c00
0c00
0c00
1800
1800
7e00
0000
0000
ENDCHAR
STARTCHAR U+0209
ENCODING 521
SWIDTH 500 0
DWIDTH 7 0
BBX 11 14 -2 -2
BITMAP 
0000
0000
0d80
0d80
0000
0e00
0c00
0c00
0c00
1800
1800
7e00
0000
0000
ENDCHAR
STARTCHAR U+020A
ENCODING 522
SWIDTH 500 0
DWIDTH 7 0
BBX 11 14 -2 -2
BITMAP 
0780
0cc0
0000
1f80
0600
0600
0c00
0c00
0c00
1800
1800
7e00
0000
0000
ENDCHAR
STARTCHAR U+020B
ENCODING 523
SWIDTH 500 0
DWIDTH 7 0
BBX 11 14 -2 -2
BITMAP 
0000
0000
0f00
1980
0000
0e00
0c00
0c00
0c00
1800
1800
7e00
0000
0000
ENDCHAR
STARTCHAR U+0223
ENCODING 547
SWIDTH 500 0
DWIDTH 7 0
BBX 11 14 -2 -2
BITMAP 
0000
0000
0680
0d80
1980
1b00
1e00
3300
3300
6600
6600
3c00
0000
0000
ENDCHAR
STARTCHAR U+0232
ENCODING 562
SWIDTH 500 0
DWIDTH 7 0
BBX 11 14 -2 -2
BITMAP 
0fc0
0000
0cc0
1980
1980
1b00
1a00
0c00
0c00
1800
1800
1800
0000
0000
ENDCHAR
STARTCHAR U+0250
ENCODING 592
SWIDTH 500 0
DWIDTH 7 0
BBX 11 14 -2 -2
BITMAP 
0000
0000
0000
0000
1b00
1d80
3b00
3a00
3c00
7400
3400
3c00
0000
0000
ENDCHAR
STARTCHAR U+0251
ENCODING 593
SWIDTH 500 0
DWIDTH 7 0
BBX 11 14 -2 -2
BITMAP 
0000
0000
0000
0000
0780
0d80
3b00
3b00
3b00
7600
3600
1a00
0000
0000
ENDCHAR
STARTCHAR U+0252
ENCODING 594
SWIDTH 500 0
DWIDTH 7 0
BBX 11 14 -2 -2
BITMAP 
0000
0000
0000
0000
1a00
1e00
3b00
3b00
3b00
7600
7400
7800
0000
0000
ENDCHAR
STARTCHAR U+0253
ENCODING 595
SWIDTH 500 0
DWIDTH 7 0
BBX 11 14 -2 -2
BITMAP 
0000
0380
06c0
0d80
0c00
0f00
1f00
1b00
1b00
3600
3e00
7c00
0000
0000
ENDCHAR
STARTCHAR U+0254
ENCODING 596
SWIDTH 500 0
DWIDTH 7 0
BBX 11 14 -2 -2
BITMAP 
0000
0000
0000
0000
0e00
1e00
3700
0700
0700
6e00
7400
7800
0000
0000
ENDCHAR
STARTCHAR U+0255
ENCODING 597
SWIDTH 500 0
DWIDTH 7 0
BBX 11 14 -2 -2
BITMAP 
0000
0000
0000
0000
0700
0d00
3b00
3800
3a00
7600
3a00
1c00
3000
6000
ENDCHAR
STARTCHAR U+0256
ENCODING 598
SWIDTH 500 0
DWIDTH 7 0
BBX 11 14 -2 -2
BITMAP 
0000
01c0
01c0
0380
0780
0d80
3b00
3b00
3b00
7600
3600
1e00
1e00
0e00
ENDCHAR
STARTCHAR U+0257
ENCODING 599
SWIDTH 500 0
DWIDTH 7 0
BBX 11 14 -2 -2
BITMAP 
0000
01e0
01a0
0300
0f00
1f00
3600
3600
3600
6c00
7c00
3e00
0000
0000
ENDCHAR
STARTCHAR U+0258
ENCODING 600
SWIDTH 500 0
DWIDTH 7 0
BBX 11 14 -2 -2
BITMAP 
0000
0000
0000
0000
0e00
0d00
3b00
3f00
0300
6600
7600
3c00
0000
0000
ENDCHAR
STARTCHAR U+0259
ENCODING 601
SWIDTH 500 0
DWIDTH 7 0
BBX 11 14 -2 -2
BITMAP 
0000
0000
0000
0000
0f00
1d00
3300
0300
3f00
7600
3600
3c00
0000
0000
ENDCHAR
STARTCHAR U+025A
ENCODING 602
SWIDTH 500 0
DWIDTH 7 0
BBX 11 14 -2 -2
BITMAP 
0000
0000
0000
0000
0f40
1fc0
3780
0f00
1b00
7600
3400
3c00
0000
0000
ENDCHAR
STARTCHAR U+025C
ENCODING 604
SWIDTH 500 0
DWIDTH 7 0
BBX 11 14 -2 -2
BITMAP 
0000
0000
0000
0000
0f00
1d00
0300
0f00
0300
6600
3600
3c00
0000
0000
ENDCHAR
STARTCHAR U+025E
ENCODING 606
SWIDTH 500 0
DWIDTH 7 0
BBX 11 14 -2 -2
BITMAP 
0000
0000
0000
0000
0f00
1b00
1b00
3700
3300
3600
3600
3c00
0000
0000
ENDCHAR
STARTCHAR U+025F
ENCODING 607
SWIDTH 500 0
DWIDTH 7 0
BBX 11 14 -2 -2
BITMAP 
0000
0000
0000
0000
0000
0f80
0e00
0e00
1f00
1c00
1c00
7c00
f000
7000
ENDCHAR
STARTCHAR U+0260
ENCODING 608
SWIDTH 500 0
DWIDTH 7 0
BBX 11 14 -2 -2
BITMAP 
0000
0000
0000
01c0
0f40
1d00
3600
3600
3600
7c00
3c00
6c00
d800
f000
ENDCHAR
STARTCHAR U+0261
ENCODING 609
SWIDTH 500 0
DWIDTH 7 0
BBX 11 14 -2 -2
BITMAP 
0000
0000
0000
0000
0780
0d80
3b00
3b00
3b00
1e00
1e00
7600
e800
7800
ENDCHAR
STARTCHAR U+0263
ENCODING 611
SWIDTH 500 0
DWIDTH 7 0
BBX 11 14 -2 -2
BITMAP 
0000
0000
0000
0000
0000
1b00
1b00
1a00
1c00
0c00
1800
3800
6800
3000
ENDCHAR
STARTCHAR U+0264
ENCODING 612
SWIDTH 500 0
DWIDTH 7 0
BBX 11 14 -2 -2
BITMAP 
0000
0000
0000
0000
1f80
0d80
1e00
0e00
0c00
1c00
1c00
1800
0000
0000
ENDCHAR
STARTCHAR U+0265
ENCODING 613
SWIDTH 500 0
DWIDTH 7 0
BBX 11 14 -2 -2
BITMAP 
0000
0f40
06c0
0d80
0d80
0d80
1b00
1f00
0f00
0600
0600
0700
0000
0000
ENDCHAR
STARTCHAR U+0266
ENCODING 614
SWIDTH 500 0
DWIDTH 7 0
BBX 11 14 -2 -2
BITMAP 
0000
0380
06c0
0d80
0c00
0f00
1f00
1b00
1b00
3600
3600
7f00
0000
0000
ENDCHAR
STARTCHAR U+0267
ENCODING 615
SWIDTH 500 0
DWIDTH 7 0
BBX 11 14 -2 -2
BITMAP 
0000
0380
06c0
0d80
0c00
0f00
1f00
1b00
1b00
3600
3600
7600
3400
3800
ENDCHAR
STARTCHAR U+0268
ENCODING 616
SWIDTH 500 0
DWIDTH 7 0
BBX 11 14 -2 -2
BITMAP 
0000
0000
0300
0600
0000
0e00
0c00
0c00
3f00
1800
1800
7e00
0000
0000
ENDCHAR
STARTCHAR U+0269
ENCODING 617
SWIDTH 500 0
DWIDTH 7 0
BBX 11 14 -2 -2
BITMAP 
0000
0000
0000
0000
0000
0e00
0c00
0c00
0c00
1800
1800
0e00
0000
0000
ENDCHAR
STARTCHAR U+026A
ENCODING 618
SWIDTH 500 0
DWIDTH 7 0
BBX 11 14 -2 -2
BITMAP 
0000
0000
0000
0000
0000
1f80
0c00
0c00
0c00
1800
1800
7e00
0000
0000
ENDCHAR
STARTCHAR U+026B
ENCODING 619
SWIDTH 500 0
DWIDTH 7 0
BBX 11 14 -2 -2
BITMAP 
0000
0000
0700
0600
0600
0600
1d00
3600
0c00
1800
1800
7e00
0000
0000
ENDCHAR
STARTCHAR U+026C
ENCODING 620
SWIDTH 500 0
DWIDTH 7 0
BBX 11 14 -2 -2
BITMAP 
0000
0000
0700
0600
0600
1e00
3400
1e00
0c00
1800
1800
7e00
0000
0000
ENDCHAR
STARTCHAR U+026D
ENCODING 621
SWIDTH 500 0
DWIDTH 7 0
BBX 11 14 -2 -2
BITMAP 
0000
0000
0700
0600
0600
0600
0c00
0c00
0c00
1800
1800
1800
1800
0c00
ENDCHAR
STARTCHAR U+026E
ENCODING 622
SWIDTH 500 0
DWIDTH 7 0
BBX 11 14 -2 -2
BITMAP 
0000
0e00
0600
0c00
0fc0
0d80
1b00
1b00
1a00
3e00
3700
7b00
7400
3c00
ENDCHAR
STARTCHAR U+026F
ENCODING 623
SWIDTH 500 0
DWIDTH 7 0
BBX 11 14 -2 -2
BITMAP 
0000
0000
0000
0000
0000
1980
3500
3500
3500
6a00
6a00
3600
0000
0000
ENDCHAR
STARTCHAR U+0270
ENCODING 624
SWIDTH 500 0
DWIDTH 7 0
BBX 11 14 -2 -2
BITMAP 
0000
0000
0000
0000
0000
1980
3500
3500
3500
6a00
6a00
3600
0c00
0c00
ENDCHAR
STARTCHAR U+0271
ENCODING 625
SWIDTH 500 0
DWIDTH 7 0
BBX 11 14 -2 -2
BITMAP 
0000
0000
0000
0000
0000
1f00
3500
3500
3500
6a00
6a00
6600
0c00
3800
ENDCHAR
STARTCHAR U+0272
ENCODING 626
SWIDTH 500 0
DWIDTH 7 0
BBX 11 14 -2 -2
BITMAP 
0000
0000
0000
0000
0f00
0f00
1d00
1d00
1d00
3a00
3a00
ff00
e000
e000
ENDCHAR
STARTCHAR U+0273
ENCODING 627
SWIDTH 500 0
DWIDTH 7 0
BBX 11 14 -2 -2
BITMAP 
0000
0000
0000
0000
1f00
1d00
3b00
3b00
3b00
7600
7600
7600
1e00
0e00
ENDCHAR
STARTCHAR U+0275
ENCODING 629
SWIDTH 500 0
DWIDTH 7 0
BBX 11 14 -2 -2
BITMAP 
0000
0000
0000
0000
0e00
0d00
3b00
3f00
3b00
7600
3600
1c00
0000
0000
ENDCHAR
STARTCHAR U+0277
ENCODING 631
SWIDTH 500 0
DWIDTH 7 0
BBX 11 14 -2 -2
BITMAP 
0000
0000
0000
0000
0000
0e00
1b00
3500
3500
6a00
6a00
3400
0000
0000
ENDCHAR
STARTCHAR U+0278
ENCODING 632
SWIDTH 500 0
DWIDTH 7 0
BBX 11 14 -2 -2
BITMAP 
0000
0000
0000
0600
0600
0f00
1d00
3500
3500
6a00
6a00
3c00
3000
3000
ENDCHAR
STARTCHAR U+0279
ENCODING 633
SWIDTH 500 0
DWIDTH 7 0
BBX 11 14 -2 -2
BITMAP 
0000
0000
0000
0000
0780
0300
0600
0600
0600
7400
7c00
3e00
0000
0000
ENDCHAR
STARTCHAR U+027A
ENCODING 634
SWIDTH 500 0
DWIDTH 7 0
BBX 11 14 -2 -2
BITMAP 
0000
03c0
0180
0300
0300
0300
0600
0600
0600
7400
7c00
3e00
0000
0000
ENDCHAR
STARTCHAR U+027B
ENCODING 635
SWIDTH 500 0
DWIDTH 7 0
BBX 11 14 -2 -2
BITMAP 
0000
0000
0000
0000
0780
0300
0600
0600
0600
7400
7c00
3c00
1a00
1e00
ENDCHAR
STARTCHAR U+027C
ENCODING 636
SWIDTH 500 0
DWIDTH 7 0
BBX 11 14 -2 -2
BITMAP 
0000
0000
0000
1b80
1cc0
1800
3000
3000
3000
6000
6000
6000
0000
0000
ENDCHAR
STARTCHAR U+027D
ENCODING 637
SWIDTH 500 0
DWIDTH 7 0
BBX 11 14 -2 -2
BITMAP 
0000
0000
0000
0000
1f00
0f80
1b00
1800
1800
3000
3000
3000
6800
7800
ENDCHAR
STARTCHAR U+027E
ENCODING 638
SWIDTH 500 0
DWIDTH 7 0
BBX 11 14 -2 -2
BITMAP 
0000
0000
0000
0000
0700
0680
0f00
0f00
0c00
1800
1800
3c00
0000
0000
ENDCHAR
STARTCHAR U+0281
ENCODING 641
SWIDTH 500 0
DWIDTH 7 0
BBX 11 14 -2 -2
BITMAP 
0000
0000
0000
0000
1d80
0d80
1e00
1f00
1b00
3600
3e00
7c00
0000
0000
ENDCHAR
STARTCHAR U+0282
ENCODING 642
SWIDTH 500 0
DWIDTH 7 0
BBX 11 14 -2 -2
BITMAP 
0000
0000
0000
0000
0f00
1d00
3800
1c00
0c00
6e00
7600
7c00
c000
6000
ENDCHAR
STARTCHAR U+0283
ENCODING 643
SWIDTH 500 0
DWIDTH 7 0
BBX 11 14 -2 -2
BITMAP 
0000
0180
0380
0680
0600
0600
0c00
0c00
0c00
1800
1800
6800
7000
6000
ENDCHAR
STARTCHAR U+0284
ENCODING 644
SWIDTH 500 0
DWIDTH 7 0
BBX 11 14 -2 -2
BITMAP 
0000
0180
0380
0680
0600
0600
0c00
0c00
0c00
3c00
1800
6800
7000
6000
ENDCHAR
STARTCHAR U+0285
ENCODING 645
SWIDTH 500 0
DWIDTH 7 0
BBX 11 14 -2 -2
BITMAP 
0000
0000
0000
0000
0c00
1c00
3400
0c00
0c00
1a00
1a00
0c00
0000
0000
ENDCHAR
STARTCHAR U+0286
ENCODING 646
SWIDTH 500 0
DWIDTH 7 0
BBX 11 14 -2 -2
BITMAP 
0000
0180
0380
0680
0600
0600
0c00
0c00
0c00
1800
3c00
6c00
7400
6000
ENDCHAR
STARTCHAR U+0287
ENCODING 647
SWIDTH 500 0
DWIDTH 7 0
BBX 11 14 -2 -2
BITMAP 
0000
0000
0000
0000
0000
3800
6c00
0c00
0c00
1800
7e00
1800
3000
3000
ENDCHAR
STARTCHAR U+0288
ENCODING 648
SWIDTH 500 0
DWIDTH 7 0
BBX 11 14 -2 -2
BITMAP 
0000
0000
0300
0e00
0e00
1f80
1c00
1c00
1c00
3800
3800
3800
7800
3800
ENDCHAR
STARTCHAR U+0289
ENCODING 649
SWIDTH 500 0
DWIDTH 7 0
BBX 11 14 -2 -2
BITMAP 
0000
0000
0000
0000
1d80
0d80
1b00
3f80
1b00
3600
3600
3f00
0000
0000
ENDCHAR
STARTCHAR U+028A
ENCODING 650
SWIDTH 500 0
DWIDTH 7 0
BBX 11 14 -2 -2
BITMAP 
0000
0000
0000
0000
1f80
1f80
1a00
1b00
3b00
7600
3600
3c00
0000
0000
ENDCHAR
STARTCHAR U+028B
ENCODING 651
SWIDTH 500 0
DWIDTH 7 0
BBX 11 14 -2 -2
BITMAP 
0000
0000
0000
0000
1d80
0d80
1b00
1b00
1b00
3600
3600
3c00
0000
0000
ENDCHAR
STARTCHAR U+028C
ENCODING 652
SWIDTH 500 0
DWIDTH 7 0
BBX 11 14 -2 -2
BITMAP 
0000
0000
0000
0000
0000
0600
0c00
1a00
3600
3600
6600
6600
0000
0000
ENDCHAR
STARTCHAR U+028D
ENCODING 653
SWIDTH 500 0
DWIDTH 7 0
BBX 11 14 -2 -2
BITMAP 
0000
0000
0000
0000
0000
0f00
1d00
3500
3500
6a00
6600
6600
0000
0000
ENDCHAR
STARTCHAR U+028E
ENCODING 654
SWIDTH 500 0
DWIDTH 7 0
BBX 11 14 -2 -2
BITMAP 
0000
0000
01c0
0380
0680
0600
0e00
1e00
1a00
3400
3600
7e00
0000
0000
ENDCHAR
STARTCHAR U+0290
ENCODING 656
SWIDTH 500 0
DWIDTH 7 0
BBX 11 14 -2 -2
BITMAP 
0000
0000
0000
0000
1f80
1b00
0600
0c00
1c00
3000
7600
7e00
0e00
0e00
ENDCHAR
STARTCHAR U+0291
ENCODING 657
SWIDTH 500 0
DWIDTH 7 0
BBX 11 14 -2 -2
BITMAP 
0000
0000
0000
0000
1f80
1b00
0600
0c00
1c00
3600
7a00
7e00
3000
6000
ENDCHAR
STARTCHAR U+0292
ENCODING 658
SWIDTH 500 0
DWIDTH 7 0
BBX 11 14 -2 -2
BITMAP 
0000
0000
0000
0000
0000
1f80
0600
0c00
1e00
0600
0600
0600
cc00
7800
ENDCHAR
STARTCHAR U+0294
ENCODING 660
SWIDTH 500 0
DWIDTH 7 0
BBX 11 14 -2 -2
BITMAP 
0000
0000
0700
0d80
1980
0300
0600
0c00
0c00
1800
1800
1800
0000
0000
ENDCHAR
STARTCHAR U+0295
ENCODING 661
SWIDTH 500 0
DWIDTH 7 0
BBX 11 14 -2 -2
BITMAP 
0000
0000
0700
0d80
1980
0c00
0c00
0c00
0c00
1800
1800
1800
0000
0000
ENDCHAR
STARTCHAR U+0296
ENCODING 662
SWIDTH 500 0
DWIDTH 7 0
BBX 11 14 -2 -2
BITMAP 
0000
0000
0300
0600
0600
0600
0c00
0c00
0600
6600
6600
3c00
0000
0000
ENDCHAR
STARTCHAR U+0298
ENCODING 664
SWIDTH 500 0
DWIDTH 7 0
BBX 11 14 -2 -2
BITMAP 
0000
0000
0780
0d80
1980
1980
3500
3500
3300
6600
7600
3c00
0000
0000
ENDCHAR
STARTCHAR U+029D
ENCODING 669
SWIDTH 500 0
DWIDTH 7 0
BBX 11 14 -2 -2
BITMAP 
0000
0300
0380
0600
0000
0f00
0c00
0c00
0c00
1800
1800
7c00
d000
7000
ENDCHAR
STARTCHAR U+02A1
ENCODING 673
SWIDTH 500 0
DWIDTH 7 0
BBX 11 14 -2 -2
BITMAP 
0000
0000
0700
0d80
1980
0300
0600
0c00
3f00
1800
1800
1800
0000
0000
ENDCHAR
STARTCHAR U+02A2
ENCODING 674
SWIDTH 500 0
DWIDTH 7 0
BBX 11 14 -2 -2
BITMAP 
0000
0000
0700
0d80
1980
0c00
0c00
0c00
3f00
1800
1800
1800
0000
0000
ENDCHAR
STARTCHAR U+02AC
ENCODING 684
SWIDTH 500 0
DWIDTH 7 0
BBX 11 14 -2 -2
BITMAP 
0000
0000
0000
1a80
1a80
1d00
1a00
0000
3600
3a00
3400
3400
0000
0000
ENDCHAR
STARTCHAR U+02AD
ENCODING 685
SWIDTH 500 0
DWIDTH 7 0
BBX 11 14 -2 -2
BITMAP 
0000
0000
0000
0000
1f80
1980
3300
0000
3f00
6600
6600
0000
0000
0000
ENDCHAR
STARTCHAR U+02B0
ENCODING 688
SWIDTH 500 0
DWIDTH 7 0
BBX 11 14 -2 -2
BITMAP 
0000
0c00
0c00
1c00
1a00
1a00
0000
0000
0000
0000
0000
0000
0000
0000
ENDCHAR
STARTCHAR U+02B1
ENCODING 689
SWIDTH 500 0
DWIDTH 7 0
BBX 11 14 -2 -2
BITMAP 
0000
0600
0c00
1c00
1a00
1a00
0000
0000
0000
0000
0000
0000
0000
0000
ENDCHAR
STARTCHAR U+02B2
ENCODING 690
SWIDTH 500 0
DWIDTH 7 0
BBX 11 14 -2 -2
BITMAP 
0000
0300
0000
0600
0600
0600
3400
1800
0000
0000
0000
0000
0000
0000
ENDCHAR
STARTCHAR U+02B3
ENCODING 691
SWIDTH 500 0
DWIDTH 7 0
BBX 11 14 -2 -2
BITMAP 
0000
0000
0e00
1a00
1800
1800
0000
0000
0000
0000
0000
0000
0000
0000
ENDCHAR
STARTCHAR U+02B4
ENCODING 692
SWIDTH 500 0
DWIDTH 7 0
BBX 11 14 -2 -2
BITMAP 
0000
0000
0300
0600
1a00
0e00
0000
0000
0000
0000
0000
0000
0000
0000
ENDCHAR
STARTCHAR U+02B5
ENCODING 693
SWIDTH 500 0
DWIDTH 7 0
BBX 11 14 -2 -2
BITMAP 
0000
0000
0300
0600
1a00
0e00
0e00
0000
0000
0000
0000
0000
0000
0000
ENDCHAR
STARTCHAR U+02B6
ENCODING 694
SWIDTH 500 0
DWIDTH 7 0
BBX 11 14 -2 -2
BITMAP 
0000
0000
0f00
1c00
1a00
1c00
0000
0000
0000
0000
0000
0000
0000
0000
ENDCHAR
STARTCHAR U+02B7
ENCODING 695
SWIDTH 500 0
DWIDTH 7 0
BBX 11 14 -2 -2
BITMAP 
0000
0000
0d80
0e80
0d00
0d00
0000
0000
0000
0000
0000
0000
0000
0000
ENDCHAR
STARTCHAR U+02B8
ENCODING 696
SWIDTH 500 0
DWIDTH 7 0
BBX 11 14 -2 -2
BITMAP 
0000
0000
0e00
1a00
0c00
1800
3000
0000
0000
0000
0000
0000
0000
0000
ENDCHAR
STARTCHAR U+02B9
ENCODING 697
SWIDTH 500 0
DWIDTH 7 0
BBX 11 14 -2 -2
BITMAP 
0000
0600
0c00
0c00
1800
0000
0000
0000
0000
0000
0000
0000
0000
0000
ENDCHAR
STARTCHAR U+02BA
ENCODING 698
SWIDTH 500 0
DWIDTH 7 0
BBX 11 14 -2 -2
BITMAP 
0000
06c0
0cc0
0d80
1b00
0000
0000
0000
0000
0000
0000
0000
0000
0000
ENDCHAR
STARTCHAR U+02BB
ENCODING 699
SWIDTH 500 0
DWIDTH 7 0
BBX 11 14 -2 -2
BITMAP 
0000
0300
0600
0c00
0e00
0000
0000
0000
0000
0000
0000
0000
0000
0000
ENDCHAR
STARTCHAR U+02BC
ENCODING 700
SWIDTH 500 0
DWIDTH 7 0
BBX 11 14 -2 -2
BITMAP 
0000
0000
0700
0600
0600
0c00
0000
0000
0000
0000
0000
0000
0000
0000
ENDCHAR
STARTCHAR U+02BD
ENCODING 701
SWIDTH 500 0
DWIDTH 7 0
BBX 11 14 -2 -2
BITMAP 
0000
0000
0380
0600
0600
0300
0000
0000
0000
0000
0000
0000
0000
0000
ENDCHAR
STARTCHAR U+02BE
ENCODING 702
SWIDTH 500 0
DWIDTH 7 0
BBX 11 14 -2 -2
BITMAP 
0000
0600
0600
0600
0c00
0000
0000
0000
0000
0000
0000
0000
0000
0000
ENDCHAR
STARTCHAR U+02BF
ENCODING 703
SWIDTH 500 0
DWIDTH 7 0
BBX 11 14 -2 -2
BITMAP 
0000
0300
0600
0600
0600
0000
0000
0000
0000
0000
0000
0000
0000
0000
ENDCHAR
STARTCHAR U+02C0
ENCODING 704
SWIDTH 500 0
DWIDTH 7 0
BBX 11 14 -2 -2
BITMAP 
0000
0e00
0300
0600
0c00
0c00
0000
0000
0000
0000
0000
0000
0000
0000
ENDCHAR
STARTCHAR U+02C1
ENCODING 705
SWIDTH 500 0
DWIDTH 7 0
BBX 11 14 -2 -2
BITMAP 
0000
0700
0c00
0c00
0c00
0c00
0000
0000
0000
0000
0000
0000
0000
0000
ENDCHAR
STARTCHAR U+02C2
ENCODING 706
SWIDTH 500 0
DWIDTH 7 0
BBX 11 14 -2 -2
BITMAP 
0000
0380
0e00
0300
0000
0000
0000
0000
0000
0000
0000
0000
0000
0000
ENDCHAR
STARTCHAR U+02C3
ENCODING 707
SWIDTH 500 0
DWIDTH 7 0
BBX 11 14 -2 -2
BITMAP 
0000
0e00
0780
1c00
0000
0000
0000
0000
0000
0000
0000
0000
0000
0000
ENDCHAR
STARTCHAR U+02C4
ENCODING 708
SWIDTH 500 0
DWIDTH 7 0
BBX 11 14 -2 -2
BITMAP 
0000
0300
0e80
1980
0000
0000
0000
0000
0000
0000
0000
0000
0000
0000
ENDCHAR
STARTCHAR U+02C5
ENCODING 709
SWIDTH 500 0
DWIDTH 7 0
BBX 11 14 -2 -2
BITMAP 
0000
0cc0
0680
0700
0000
0000
0000
0000
0000
0000
0000
0000
0000
0000
ENDCHAR
STARTCHAR U+02C6
ENCODING 710
SWIDTH 500 0
DWIDTH 7 0
BBX 11 14 -2 -2
BITMAP 
0380
06c0
0000
0000
0000
0000
0000
0000
0000
0000
0000
0000
0000
0000
ENDCHAR
STARTCHAR U+02C7
ENCODING 711
SWIDTH 500 0
DWIDTH 7 0
BBX 11 14 -2 -2
BITMAP 
06c0
0380
0000
0000
0000
0000
0000
0000
0000
0000
0000
0000
0000
0000
ENDCHAR
STARTCHAR U+02C8
ENCODING 712
SWIDTH 500 0
DWIDTH 7 0
BBX 11 14 -2 -2
BITMAP 
0000
0300
0300
0600
0000
0000
0000
0000
0000
0000
0000
0000
0000
0000
ENDCHAR
STARTCHAR U+02C9
ENCODING 713
SWIDTH 500 0
DWIDTH 7 0
BBX 11 14 -2 -2
BITMAP 
0000
07c0
0000
0000
0000
0000
0000
0000
0000
0000
0000
0000
0000
0000
ENDCHAR
STARTCHAR U+02CA
ENCODING 714
SWIDTH 500 0
DWIDTH 7 0
BBX 11 14 -2 -2
BITMAP 
0000
0300
0600
0000
0000
0000
0000
0000
0000
0000
0000
0000
0000
0000
ENDCHAR
STARTCHAR U+02CB
ENCODING 715
SWIDTH 500 0
DWIDTH 7 0
BBX 11 14 -2 -2
BITMAP 
0000
0600
0300
0000
0000
0000
0000
0000
0000
0000
0000
0000
0000
0000
ENDCHAR
STARTCHAR U+02CC
ENCODING 716
SWIDTH 500 0
DWIDTH 7 0
BBX 11 14 -2 -2
BITMAP 
0000
0000
0000
0000
0000
0000
0000
0000
0000
0000
1800
1800
3000
0000
ENDCHAR
STARTCHAR U+02CD
ENCODING 717
SWIDTH 500 0
DWIDTH 7 0
BBX 11 14 -2 -2
BITMAP 
0000
0000
0000
0000
0000
0000
0000
0000
0000
0000
0000
0000
fc00
0000
ENDCHAR
STARTCHAR U+02CE
ENCODING 718
SWIDTH 500 0
DWIDTH 7 0
BBX 11 14 -2 -2
BITMAP 
0000
0000
0000
0000
0000
0000
0000
0000
0000
0000
0000
3000
3000
0000
ENDCHAR
STARTCHAR U+02CF
ENCODING 719
SWIDTH 500 0
DWIDTH 7 0
BBX 11 14 -2 -2
BITMAP 
0000
0000
0000
0000
0000
0000
0000
0000
0000
0000
0000
3800
6000
0000
ENDCHAR
STARTCHAR U+02D0
ENCODING 720
SWIDTH 500 0
DWIDTH 7 0
BBX 11 14 -2 -2
BITMAP 
0000
0000
0000
0000
0000
0f00
0c00
0000
0000
0000
1800
3c00
0000
0000
ENDCHAR
STARTCHAR U+02D1
ENCODING 721
SWIDTH 500 0
DWIDTH 7 0
BBX 11 14 -2 -2
BITMAP 
0000
0000
0000
0000
0000
0f00
0c00
0000
0000
0000
0000
0000
0000
0000
ENDCHAR
STARTCHAR U+02D2
ENCODING 722
SWIDTH 500 0
DWIDTH 7 0
BBX 11 14 -2 -2
BITMAP 
0000
0000
0000
0000
0000
0000
1800
0c00
1800
3000
0000
0000
0000
0000
ENDCHAR
STARTCHAR U+02D3
ENCODING 723
SWIDTH 500 0
DWIDTH 7 0
BBX 11 14 -2 -2
BITMAP 
0000
0000
0000
0000
0000
0000
0c00
1800
1800
1800
0000
0000
0000
0000
ENDCHAR
STARTCHAR U+02D4
ENCODING 724
SWIDTH 500 0
DWIDTH 7 0
BBX 11 14 -2 -2
BITMAP 
0300
0780
0000
0000
0000
0000
0000
0000
0000
0000
0000
0000
0000
0000
ENDCHAR
STARTCHAR U+02D5
ENCODING 725
SWIDTH 500 0
DWIDTH 7 0
BBX 11 14 -2 -2
BITMAP 
0000
0780
0300
0000
0000
0000
0000
0000
0000
0000
0000
0000
0000
0000
ENDCHAR
STARTCHAR U+02D6
ENCODING 726
SWIDTH 500 0
DWIDTH 7 0
BBX 11 14 -2 -2
BITMAP 
0300
0780
0300
0000
0000
0000
0000
0000
0000
0000
0000
0000
0000
0000
ENDCHAR
STARTCHAR U+02D7
ENCODING 727
SWIDTH 500 0
DWIDTH 7 0
BBX 11 14 -2 -2
BITMAP 
0000
0780
0000
0000
0000
0000
0000
0000
0000
0000
0000
0000
0000
0000
ENDCHAR
STARTCHAR U+02D8
ENCODING 728
SWIDTH 500 0
DWIDTH 7 0
BBX 11 14 -2 -2
BITMAP 
0cc0
0780
0000
0000
0000
0000
0000
0000
0000
0000
0000
0000
0000
0000
ENDCHAR
STARTCHAR U+02D9
ENCODING 729
SWIDTH 500 0
DWIDTH 7 0
BBX 11 14 -2 -2
BITMAP 
0300
0300
0000
0000
0000
0000
0000
0000
0000
0000
0000
0000
0000
0000
ENDCHAR
STARTCHAR U+02DA
ENCODING 730
SWIDTH 500 0
DWIDTH 7 0
BBX 11 14 -2 -2
BITMAP 
0380
06c0
0380
0000
0000
0000
0000
0000
0000
0000
0000
0000
0000
0000
ENDCHAR
STARTCHAR U+02DB
ENCODING 731
SWIDTH 500 0
DWIDTH 7 0
BBX 11 14 -2 -2
BITMAP 
0000
0000
0000
0000
0000
0000
0000
0000
0000
0000
0000
0000
3000
1c00
ENDCHAR
STARTCHAR U+02DC
ENCODING 732
SWIDTH 500 0
DWIDTH 7 0
BBX 11 14 -2 -2
BITMAP 
0760
0dc0
0000
0000
0000
0000
0000
0000
0000
0000
0000
0000
0000
0000
ENDCHAR
STARTCHAR U+02DD
ENCODING 733
SWIDTH 500 0
DWIDTH 7 0
BBX 11 14 -2 -2
BITMAP 
06c0
0d80
0000
0000
0000
0000
0000
0000
0000
0000
0000
0000
0000
0000
ENDCHAR
STARTCHAR U+02DE
ENCODING 734
SWIDTH 500 0
DWIDTH 7 0
BBX 11 14 -2 -2
BITMAP 
0000
0000
0000
0000
0000
1800
6800
0c00
0000
0000
0000
0000
0000
0000
ENDCHAR
STARTCHAR U+02DF
ENCODING 735
SWIDTH 500 0
DWIDTH 7 0
BBX 11 14 -2 -2
BITMAP 
0000
0000
0000
0000
0000
0dc0
0d00
0600
1d00
3300
0000
0000
0000
0000
ENDCHAR
STARTCHAR U+02E0
ENCODING 736
SWIDTH 500 0
DWIDTH 7 0
BBX 11 14 -2 -2
BITMAP 
0000
0000
0d00
0e00
0c00
0e00
0000
0000
0000
0000
0000
0000
0000
0000
ENDCHAR
STARTCHAR U+02E1
ENCODING 737
SWIDTH 500 0
DWIDTH 7 0
BBX 11 14 -2 -2
BITMAP 
0000
0000
0600
0c00
0c00
0600
0000
0000
0000
0000
0000
0000
0000
0000
ENDCHAR
STARTCHAR U+02E2
ENCODING 738
SWIDTH 500 0
DWIDTH 7 0
BBX 11 14 -2 -2
BITMAP 
0000
0000
0e00
1800
0c00
1800
0000
0000
0000
0000
0000
0000
0000
0000
ENDCHAR
STARTCHAR U+02E3
ENCODING 739
SWIDTH 500 0
DWIDTH 7 0
BBX 11 14 -2 -2
BITMAP 
0000
0000
0f00
0c00
1a00
1a00
0000
0000
0000
0000
0000
0000
0000
0000
ENDCHAR
STARTCHAR U+02E4
ENCODING 740
SWIDTH 500 0
DWIDTH 7 0
BBX 11 14 -2 -2
BITMAP 
0000
0600
0c00
0c00
0c00
0000
0000
0000
0000
0000
0000
0000
0000
0000
ENDCHAR
STARTCHAR U+02E5
ENCODING 741
SWIDTH 500 0
DWIDTH 7 0
BBX 11 14 -2 -2
BITMAP 
0000
0000
0000
1e00
0600
0600
0c00
0c00
0c00
1800
1800
1800
0000
0000
ENDCHAR
STARTCHAR U+02E6
ENCODING 742
SWIDTH 500 0
DWIDTH 7 0
BBX 11 14 -2 -2
BITMAP 
0000
0000
0000
0600
0600
1e00
0c00
0c00
0c00
1800
1800
1800
0000
0000
ENDCHAR
STARTCHAR U+02E7
ENCODING 743
SWIDTH 500 0
DWIDTH 7 0
BBX 11 14 -2 -2
BITMAP 
0000
0000
0000
0600
0600
0600
0c00
3c00
0c00
1800
1800
1800
0000
0000
ENDCHAR
STARTCHAR U+02E8
ENCODING 744
SWIDTH 500 0
DWIDTH 7 0
BBX 11 14 -2 -2
BITMAP 
0000
0000
0000
0600
0600
0600
0c00
0c00
0c00
7800
1800
1800
0000
0000
ENDCHAR
STARTCHAR U+02E9
ENCODING 745
SWIDTH 500 0
DWIDTH 7 0
BBX 11 14 -2 -2
BITMAP 
0000
0000
0000
0600
0600
0600
0c00
0c00
0c00
1800
1800
7800
0000
0000
ENDCHAR
STARTCHAR U+02EA
ENCODING 746
SWIDTH 500 0
DWIDTH 7 0
BBX 11 14 -2 -2
BITMAP 
0000
0000
0000
0000
0000
0000
0000
3000
3000
6000
6000
7800
0000
0000
ENDCHAR
STARTCHAR U+02EB
ENCODING 747
SWIDTH 500 0
DWIDTH 7 0
BBX 11 14 -2 -2
BITMAP 
0000
0000
0000
0000
0000
0000
0000
3000
3000
7800
6000
6000
0000
0000
ENDCHAR
STARTCHAR U+02EC
ENCODING 748
SWIDTH 500 0
DWIDTH 7 0
BBX 11 14 -2 -2
BITMAP 
0000
0000
0000
0000
0000
0000
0000
0000
0000
0000
6600
3400
3800
0000
ENDCHAR
STARTCHAR U+02ED
ENCODING 749
SWIDTH 500 0
DWIDTH 7 0
BBX 11 14 -2 -2
BITMAP 
0000
0fc0
0000
1f80
0000
0000
0000
0000
0000
0000
0000
0000
0000
0000
ENDCHAR
STARTCHAR U+02EE
ENCODING 750
SWIDTH 500 0
DWIDTH 7 0
BBX 11 14 -2 -2
BITMAP 
0000
0000
0ec0
0d80
0d80
1b00
0000
0000
0000
0000
0000
0000
0000
0000
ENDCHAR
STARTCHAR U+0300
ENCODING 768
SWIDTH 500 0
DWIDTH 7 0
BBX 11 14 -2 -2
BITMAP 
0e00
0380
0000
0000
0000
0000
0000
0000
0000
0000
0000
0000
0000
0000
ENDCHAR
STARTCHAR U+0301
ENCODING 769
SWIDTH 500 0
DWIDTH 7 0
BBX 11 14 -2 -2
BITMAP 
0000
01c0
0700
0000
0000
0000
0000
0000
0000
0000
0000
0000
0000
0000
ENDCHAR
STARTCHAR U+0302
ENCODING 770
SWIDTH 500 0
DWIDTH 7 0
BBX 11 14 -2 -2
BITMAP 
0000
0380
0ec0
18c0
0000
0000
0000
0000
0000
0000
0000
0000
0000
0000
ENDCHAR
STARTCHAR U+0303
ENCODING 771
SWIDTH 500 0
DWIDTH 7 0
BBX 11 14 -2 -2
BITMAP 
0760
0dc0
0000
0000
0000
0000
0000
0000
0000
0000
0000
0000
0000
0000
ENDCHAR
STARTCHAR U+0304
ENCODING 772
SWIDTH 500 0
DWIDTH 7 0
BBX 11 14 -2 -2
BITMAP 
07c0
0000
0000
0000
0000
0000
0000
0000
0000
0000
0000
0000
0000
0000
ENDCHAR
STARTCHAR U+0305
ENCODING 773
SWIDTH 500 0
DWIDTH 7 0
BBX 11 14 -2 -2
BITMAP 
0fc0
0000
0000
0000
0000
0000
0000
0000
0000
0000
0000
0000
0000
0000
ENDCHAR
STARTCHAR U+0306
ENCODING 774
SWIDTH 500 0
DWIDTH 7 0
BBX 11 14 -2 -2
BITMAP 
0000
0c60
07c0
0000
0000
0000
0000
0000
0000
0000
0000
0000
0000
0000
ENDCHAR
STARTCHAR U+0307
ENCODING 775
SWIDTH 500 0
DWIDTH 7 0
BBX 11 14 -2 -2
BITMAP 
0000
0300
0300
0000
0000
0000
0000
0000
0000
0000
0000
0000
0000
0000
ENDCHAR
STARTCHAR U+0308
ENCODING 776
SWIDTH 500 0
DWIDTH 7 0
BBX 11 14 -2 -2
BITMAP 
0000
06c0
06c0
0000
0000
0000
0000
0000
0000
0000
0000
0000
0000
0000
ENDCHAR
STARTCHAR U+0309
ENCODING 777
SWIDTH 500 0
DWIDTH 7 0
BBX 11 14 -2 -2
BITMAP 
0700
0300
0000
0000
0000
0000
0000
0000
0000
0000
0000
0000
0000
0000
ENDCHAR
STARTCHAR U+030A
ENCODING 778
SWIDTH 500 0
DWIDTH 7 0
BBX 11 14 -2 -2
BITMAP 
0380
06c0
0380
0000
0000
0000
0000
0000
0000
0000
0000
0000
0000
0000
ENDCHAR
STARTCHAR U+030B
ENCODING 779
SWIDTH 500 0
DWIDTH 7 0
BBX 11 14 -2 -2
BITMAP 
06c0
0d80
0000
0000
0000
0000
0000
0000
0000
0000
0000
0000
0000
0000
ENDCHAR
STARTCHAR U+030C
ENCODING 780
SWIDTH 500 0
DWIDTH 7 0
BBX 11 14 -2 -2
BITMAP 
0cc0
0680
0300
0000
0000
0000
0000
0000
0000
0000
0000
0000
0000
0000
ENDCHAR
STARTCHAR U+030D
ENCODING 781
SWIDTH 500 0
DWIDTH 7 0
BBX 11 14 -2 -2
BITMAP 
0300
0300
0300
0600
0000
0000
0000
0000
0000
0000
0000
0000
0000
0000
ENDCHAR
STARTCHAR U+030E
ENCODING 782
SWIDTH 500 0
DWIDTH 7 0
BBX 11 14 -2 -2
BITMAP 
0680
0680
0680
0d00
0000
0000
0000
0000
0000
0000
0000
0000
0000
0000
ENDCHAR
STARTCHAR U+030F
ENCODING 783
SWIDTH 500 0
DWIDTH 7 0
BBX 11 14 -2 -2
BITMAP 
1dc0
0660
0000
0000
0000
0000
0000
0000
0000
0000
0000
0000
0000
0000
ENDCHAR
STARTCHAR U+0310
ENCODING 784
SWIDTH 500 0
DWIDTH 7 0
BBX 11 14 -2 -2
BITMAP 
0380
0c60
07c0
0000
0000
0000
0000
0000
0000
0000
0000
0000
0000
0000
ENDCHAR
STARTCHAR U+0311
ENCODING 785
SWIDTH 500 0
DWIDTH 7 0
BBX 11 14 -2 -2
BITMAP 
0780
0cc0
0cc0
0000
0000
0000
0000
0000
0000
0000
0000
0000
0000
0000
ENDCHAR
STARTCHAR U+0312
ENCODING 786
SWIDTH 500 0
DWIDTH 7 0
BBX 11 14 -2 -2
BITMAP 
0000
0300
0600
0e00
0000
0000
0000
0000
0000
0000
0000
0000
0000
0000
ENDCHAR
STARTCHAR U+0313
ENCODING 787
SWIDTH 500 0
DWIDTH 7 0
BBX 11 14 -2 -2
BITMAP 
0000
0700
0600
0c00
0000
0000
0000
0000
0000
0000
0000
0000
0000
0000
ENDCHAR
STARTCHAR U+0314
ENCODING 788
SWIDTH 500 0
DWIDTH 7 0
BBX 11 14 -2 -2
BITMAP 
0000
0700
0600
0600
0000
0000
0000
0000
0000
0000
0000
0000
0000
0000
ENDCHAR
STARTCHAR U+0315
ENCODING 789
SWIDTH 500 0
DWIDTH 7 0
BBX 11 14 -2 -2
BITMAP 
0000
0000
01c0
0180
0300
0000
0000
0000
0000
0000
0000
0000
0000
0000
ENDCHAR
STARTCHAR U+0316
ENCODING 790
SWIDTH 500 0
DWIDTH 7 0
BBX 11 14 -2 -2
BITMAP 
0000
0000
0000
0000
0000
0000
0000
0000
0000
0000
0000
0000
e000
3800
ENDCHAR
STARTCHAR U+0317
ENCODING 791
SWIDTH 500 0
DWIDTH 7 0
BBX 11 14 -2 -2
BITMAP 
0000
0000
0000
0000
0000
0000
0000
0000
0000
0000
0000
0000
1c00
7000
ENDCHAR
STARTCHAR U+0318
ENCODING 792
SWIDTH 500 0
DWIDTH 7 0
BBX 11 14 -2 -2
BITMAP 
0000
0000
0000
0000
0000
0000
0000
0000
0000
0000
0c00
3c00
1800
0000
ENDCHAR
STARTCHAR U+0319
ENCODING 793
SWIDTH 500 0
DWIDTH 7 0
BBX 11 14 -2 -2
BITMAP 
0000
0000
0000
0000
0000
0000
0000
0000
0000
0000
3000
3c00
6000
0000
ENDCHAR
STARTCHAR U+031A
ENCODING 794
SWIDTH 500 0
DWIDTH 7 0
BBX 11 14 -2 -2
BITMAP 
0000
0fc0
00c0
0180
0000
0000
0000
0000
0000
0000
0000
0000
0000
0000
ENDCHAR
STARTCHAR U+031B
ENCODING 795
SWIDTH 500 0
DWIDTH 7 0
BBX 11 14 -2 -2
BITMAP 
0000
0000
0060
00c0
0180
0000
0000
0000
0000
0000
0000
0000
0000
0000
ENDCHAR
STARTCHAR U+031C
ENCODING 796
SWIDTH 500 0
DWIDTH 7 0
BBX 11 14 -2 -2
BITMAP 
0000
0000
0000
0000
0000
0000
0000
0000
0000
0000
0000
3c00
6000
3800
ENDCHAR
STARTCHAR U+031D
ENCODING 797
SWIDTH 500 0
DWIDTH 7 0
BBX 11 14 -2 -2
BITMAP 
0000
0000
0000
0000
0000
0000
0000
0000
0000
0000
1800
1800
7800
0000
ENDCHAR
STARTCHAR U+031E
ENCODING 798
SWIDTH 500 0
DWIDTH 7 0
BBX 11 14 -2 -2
BITMAP 
0000
0000
0000
0000
0000
0000
0000
0000
0000
0000
0000
3c00
3000
3000
ENDCHAR
STARTCHAR U+031F
ENCODING 799
SWIDTH 500 0
DWIDTH 7 0
BBX 11 14 -2 -2
BITMAP 
0000
0000
0000
0000
0000
0000
0000
0000
0000
1800
1800
7e00
3000
3000
ENDCHAR
STARTCHAR U+0320
ENCODING 800
SWIDTH 500 0
DWIDTH 7 0
BBX 11 14 -2 -2
BITMAP 
0000
0000
0000
0000
0000
0000
0000
0000
0000
0000
0000
0000
7800
0000
ENDCHAR
STARTCHAR U+0321
ENCODING 801
SWIDTH 500 0
DWIDTH 7 0
BBX 11 14 -2 -2
BITMAP 
0000
0000
0000
0000
0000
0000
0000
0000
0000
0000
0000
0600
3400
1c00
ENDCHAR
STARTCHAR U+0322
ENCODING 802
SWIDTH 500 0
DWIDTH 7 0
BBX 11 14 -2 -2
BITMAP 
0000
0000
0000
0000
0000
0000
0000
0000
0000
0000
0000
0c00
1a00
1c00
ENDCHAR
STARTCHAR U+0323
ENCODING 803
SWIDTH 500 0
DWIDTH 7 0
BBX 11 14 -2 -2
BITMAP 
0000
0000
0000
0000
0000
0000
0000
0000
0000
0000
0000
0000
0000
3000
ENDCHAR
STARTCHAR U+0324
ENCODING 804
SWIDTH 500 0
DWIDTH 7 0
BBX 11 14 -2 -2
BITMAP 
0000
0000
0000
0000
0000
0000
0000
0000
0000
0000
0000
0000
0000
6800
ENDCHAR
STARTCHAR U+0325
ENCODING 805
SWIDTH 500 0
DWIDTH 7 0
BBX 11 14 -2 -2
BITMAP 
0000
0000
0000
0000
0000
0000
0000
0000
0000
0000
0000
3800
6800
3000
ENDCHAR
STARTCHAR U+0326
ENCODING 806
SWIDTH 500 0
DWIDTH 7 0
BBX 11 14 -2 -2
BITMAP 
0000
0000
0000
0000
0000
0000
0000
0000
0000
0000
0000
3800
3000
6000
ENDCHAR
STARTCHAR U+0327
ENCODING 807
SWIDTH 500 0
DWIDTH 7 0
BBX 11 14 -2 -2
BITMAP 
0000
0000
0000
0000
0000
0000
0000
0000
0000
0000
0000
1800
1800
7000
ENDCHAR
STARTCHAR U+0328
ENCODING 808
SWIDTH 500 0
DWIDTH 7 0
BBX 11 14 -2 -2
BITMAP 
0000
0000
0000
0000
0000
0000
0000
0000
0000
0000
0000
1c00
3600
1c00
ENDCHAR
STARTCHAR U+0329
ENCODING 809
SWIDTH 500 0
DWIDTH 7 0
BBX 11 14 -2 -2
BITMAP 
0000
0000
0000
0000
0000
0000
0000
0000
0000
0000
0000
1800
3000
3000
ENDCHAR
STARTCHAR U+032A
ENCODING 810
SWIDTH 500 0
DWIDTH 7 0
BBX 11 14 -2 -2
BITMAP 
0000
0000
0000
0000
0000
0000
0000
0000
0000
0000
0000
7e00
cc00
0000
ENDCHAR
STARTCHAR U+032B
ENCODING 811
SWIDTH 500 0
DWIDTH 7 0
BBX 11 14 -2 -2
BITMAP 
0000
0000
0000
0000
0000
0000
0000
0000
0000
0000
0000
6a00
7400
6800
ENDCHAR
STARTCHAR U+032C
ENCODING 812
SWIDTH 500 0
DWIDTH 7 0
BBX 11 14 -2 -2
BITMAP 
0000
0000
0000
0000
0000
0000
0000
0000
0000
0000
0000
6e00
6800
3000
ENDCHAR
STARTCHAR U+032D
ENCODING 813
SWIDTH 500 0
DWIDTH 7 0
BBX 11 14 -2 -2
BITMAP 
0000
0000
0000
0000
0000
0000
0000
0000
0000
0000
0000
3800
6c00
c600
ENDCHAR
STARTCHAR U+032E
ENCODING 814
SWIDTH 500 0
DWIDTH 7 0
BBX 11 14 -2 -2
BITMAP 
0000
0000
0000
0000
0000
0000
0000
0000
0000
0000
0000
6300
6600
3c00
ENDCHAR
STARTCHAR U+032F
ENCODING 815
SWIDTH 500 0
DWIDTH 7 0
BBX 11 14 -2 -2
BITMAP 
0000
0000
0000
0000
0000
0000
0000
0000
0000
0000
0000
3800
6c00
cc00
ENDCHAR
STARTCHAR U+0330
ENCODING 816
SWIDTH 500 0
DWIDTH 7 0
BBX 11 14 -2 -2
BITMAP 
0000
0000
0000
0000
0000
0000
0000
0000
0000
0000
0000
0000
7600
dc00
ENDCHAR
STARTCHAR U+0331
ENCODING 817
SWIDTH 500 0
DWIDTH 7 0
BBX 11 14 -2 -2
BITMAP 
0000
0000
0000
0000
0000
0000
0000
0000
0000
0000
0000
0000
fc00
0000
ENDCHAR
STARTCHAR U+0332
ENCODING 818
SWIDTH 500 0
DWIDTH 7 0
BBX 11 14 -2 -2
BITMAP 
0000
0000
0000
0000
0000
0000
0000
0000
0000
0000
0000
0000
fe00
0000
ENDCHAR
STARTCHAR U+0333
ENCODING 819
SWIDTH 500 0
DWIDTH 7 0
BBX 11 14 -2 -2
BITMAP 
0000
0000
0000
0000
0000
0000
0000
0000
0000
0000
0000
ff00
0000
fe00
ENDCHAR
STARTCHAR U+0334
ENCODING 820
SWIDTH 500 0
DWIDTH 7 0
BBX 11 14 -2 -2
BITMAP 
0000
0000
0000
0000
0000
0000
1b00
3500
3600
0000
0000
0000
0000
0000
ENDCHAR
STARTCHAR U+0335
ENCODING 821
SWIDTH 500 0
DWIDTH 7 0
BBX 11 14 -2 -2
BITMAP 
0000
0000
0000
0000
0000
0000
3f00
0000
0000
0000
0000
0000
0000
0000
ENDCHAR
STARTCHAR U+0336
ENCODING 822
SWIDTH 500 0
DWIDTH 7 0
BBX 11 14 -2 -2
BITMAP 
0000
0000
0000
0000
0000
0000
7f80
0000
0000
0000
0000
0000
0000
0000
ENDCHAR
STARTCHAR U+0337
ENCODING 823
SWIDTH 500 0
DWIDTH 7 0
BBX 11 14 -2 -2
BITMAP 
0000
0000
0000
0000
0000
0000
0300
0600
1c00
3000
6000
0000
0000
0000
ENDCHAR
STARTCHAR U+0338
ENCODING 824
SWIDTH 500 0
DWIDTH 7 0
BBX 11 14 -2 -2
BITMAP 
0000
0000
0000
0180
0180
0300
0600
0c00
1800
1800
3000
6000
c000
0000
ENDCHAR
STARTCHAR U+0339
ENCODING 825
SWIDTH 500 0
DWIDTH 7 0
BBX 11 14 -2 -2
BITMAP 
0000
0000
0000
0000
0000
0000
0000
0000
0000
0000
0000
1800
0c00
3800
ENDCHAR
STARTCHAR U+033A
ENCODING 826
SWIDTH 500 0
DWIDTH 7 0
BBX 11 14 -2 -2
BITMAP 
0000
0000
0000
0000
0000
0000
0000
0000
0000
0000
0000
6600
fc00
0000
ENDCHAR
STARTCHAR U+033B
ENCODING 827
SWIDTH 500 0
DWIDTH 7 0
BBX 11 14 -2 -2
BITMAP 
0000
0000
0000
0000
0000
0000
0000
0000
0000
0000
0000
3c00
6800
7800
ENDCHAR
STARTCHAR U+033C
ENCODING 828
SWIDTH 500 0
DWIDTH 7 0
BBX 11 14 -2 -2
BITMAP 
0000
0000
0000
0000
0000
0000
0000
0000
0000
0000
0000
ee00
ba00
0000
ENDCHAR
STARTCHAR U+033D
ENCODING 829
SWIDTH 500 0
DWIDTH 7 0
BBX 11 14 -2 -2
BITMAP 
0000
0ec0
0700
1d80
0000
0000
0000
0000
0000
0000
0000
0000
0000
0000
ENDCHAR
STARTCHAR U+033E
ENCODING 830
SWIDTH 500 0
DWIDTH 7 0
BBX 11 14 -2 -2
BITMAP 
0380
0700
0380
0e00
0000
0000
0000
0000
0000
0000
0000
0000
0000
0000
ENDCHAR
STARTCHAR U+033F
ENCODING 831
SWIDTH 500 0
DWIDTH 7 0
BBX 11 14 -2 -2
BITMAP 
0fc0
0000
0fc0
0000
0000
0000
0000
0000
0000
0000
0000
0000
0000
0000
ENDCHAR
STARTCHAR U+0340
ENCODING 832
SWIDTH 500 0
DWIDTH 7 0
BBX 11 14 -2 -2
BITMAP 
0e00
0380
0000
0000
0000
0000
0000
0000
0000
0000
0000
0000
0000
0000
ENDCHAR
STARTCHAR U+0341
ENCODING 833
SWIDTH 500 0
DWIDTH 7 0
BBX 11 14 -2 -2
BITMAP 
0000
01c0
0700
0000
0000
0000
0000
0000
0000
0000
0000
0000
0000
0000
ENDCHAR
STARTCHAR U+0342
ENCODING 834
SWIDTH 500 0
DWIDTH 7 0
BBX 11 14 -2 -2
BITMAP 
0ec0
1b80
0000
0000
0000
0000
0000
0000
0000
0000
0000
0000
0000
0000
ENDCHAR
STARTCHAR U+0343
ENCODING 835
SWIDTH 500 0
DWIDTH 7 0
BBX 11 14 -2 -2
BITMAP 
0000
0700
0600
0c00
0000
0000
0000
0000
0000
0000
0000
0000
0000
0000
ENDCHAR
STARTCHAR U+0344
ENCODING 836
SWIDTH 500 0
DWIDTH 7 0
BBX 11 14 -2 -2
BITMAP 
0300
0d40
0d40
0600
0000
0000
0000
0000
0000
0000
0000
0000
0000
0000
ENDCHAR
STARTCHAR U+0345
ENCODING 837
SWIDTH 500 0
DWIDTH 7 0
BBX 11 14 -2 -2
BITMAP 
0000
0000
0000
0000
0000
0000
0000
0000
0000
0000
0000
0000
3000
3800
ENDCHAR
STARTCHAR U+0346
ENCODING 838
SWIDTH 500 0
DWIDTH 7 0
BBX 11 14 -2 -2
BITMAP 
0780
0680
0000
0000
0000
0000
0000
0000
0000
0000
0000
0000
0000
0000
ENDCHAR
STARTCHAR U+0347
ENCODING 839
SWIDTH 500 0
DWIDTH 7 0
BBX 11 14 -2 -2
BITMAP 
0000
0000
0000
0000
0000
0000
0000
0000
0000
0000
0000
3c00
0000
7800
ENDCHAR
STARTCHAR U+0348
ENCODING 840
SWIDTH 500 0
DWIDTH 7 0
BBX 11 14 -2 -2
BITMAP 
0000
0000
0000
0000
0000
0000
0000
0000
0000
0000
0000
3400
6800
6800
ENDCHAR
STARTCHAR U+0349
ENCODING 841
SWIDTH 500 0
DWIDTH 7 0
BBX 11 14 -2 -2
BITMAP 
0000
0000
0000
0000
0000
0000
0000
0000
0000
0000
0000
3e00
0c00
0c00
ENDCHAR
STARTCHAR U+034A
ENCODING 842
SWIDTH 500 0
DWIDTH 7 0
BBX 11 14 -2 -2
BITMAP 
0180
0f60
1bc0
0c00
0000
0000
0000
0000
0000
0000
0000
0000
0000
0000
ENDCHAR
STARTCHAR U+034B
ENCODING 843
SWIDTH 500 0
DWIDTH 7 0
BBX 11 14 -2 -2
BITMAP 
0180
0e60
1bc0
0000
0c00
0000
0000
0000
0000
0000
0000
0000
0000
0000
ENDCHAR
STARTCHAR U+034C
ENCODING 844
SWIDTH 500 0
DWIDTH 7 0
BBX 11 14 -2 -2
BITMAP 
0760
0dc0
0f60
1980
0000
0000
0000
0000
0000
0000
0000
0000
0000
0000
ENDCHAR
STARTCHAR U+034D
ENCODING 845
SWIDTH 500 0
DWIDTH 7 0
BBX 11 14 -2 -2
BITMAP 
0000
0000
0000
0000
0000
0000
0000
0000
0000
0000
0000
6600
fe00
cc00
ENDCHAR
STARTCHAR U+034E
ENCODING 846
SWIDTH 500 0
DWIDTH 7 0
BBX 11 14 -2 -2
BITMAP 
0000
0000
0000
0000
0000
0000
0000
0000
0000
0000
1800
7c00
d400
3000
ENDCHAR
STARTCHAR U+0360
ENCODING 864
SWIDTH 500 0
DWIDTH 7 0
BBX 11 14 -2 -2
BITMAP 
0000
03a0
06c0
0000
0000
0000
0000
0000
0000
0000
0000
0000
0000
0000
ENDCHAR
STARTCHAR U+0361
ENCODING 865
SWIDTH 500 0
DWIDTH 7 0
BBX 11 14 -2 -2
BITMAP 
0000
03c0
0660
0000
0000
0000
0000
0000
0000
0000
0000
0000
0000
0000
ENDCHAR
STARTCHAR U+0362
ENCODING 866
SWIDTH 500 0
DWIDTH 7 0
BBX 11 14 -2 -2
BITMAP 
0000
0000
0000
0000
0000
0000
0000
0000
0000
0000
0000
0600
7e00
0c00
ENDCHAR
STARTCHAR U+0374
ENCODING 884
SWIDTH 500 0
DWIDTH 7 0
BBX 11 14 -2 -2
BITMAP 
0000
0000
0000
0700
0600
0c00
0000
0000
0000
0000
0000
0000
0000
0000
ENDCHAR
STARTCHAR U+0375
ENCODING 885
SWIDTH 500 0
DWIDTH 7 0
BBX 11 14 -2 -2
BITMAP 
0000
0000
0000
0000
0000
0000
0000
0000
0000
0000
0000
1c00
3000
6000
ENDCHAR
STARTCHAR U+037A
ENCODING 890
SWIDTH 500 0
DWIDTH 7 0
BBX 11 14 -2 -2
BITMAP 
0000
0000
0000
0000
0000
0000
0000
0000
0000
0000
0000
0000
3000
3800
ENDCHAR
STARTCHAR U+037E
ENCODING 894
SWIDTH 500 0
DWIDTH 7 0
BBX 11 14 -2 -2
BITMAP 
0000
0000
0000
0000
0000
0000
0e00
0e00
0000
0000
3800
1800
3000
6000
ENDCHAR
STARTCHAR U+0384
ENCODING 900
SWIDTH 500 0
DWIDTH 7 0
BBX 11 14 -2 -2
BITMAP 
0300
0300
0300
0000
0000
0000
0000
0000
0000
0000
0000
0000
0000
0000
ENDCHAR
STARTCHAR U+0385
ENCODING 901
SWIDTH 500 0
DWIDTH 7 0
BBX 11 14 -2 -2
BITMAP 
0300
0300
0300
1980
1980
0000
0000
0000
0000
0000
0000
0000
0000
0000
ENDCHAR
STARTCHAR U+0386
ENCODING 902
SWIDTH 500 0
DWIDTH 7 0
BBX 11 14 -2 -2
BITMAP 
1800
1800
1800
0700
0700
0d00
1b00
1f00
3300
6300
6300
6300
0000
0000
ENDCHAR
STARTCHAR U+0387
ENCODING 903
SWIDTH 500 0
DWIDTH 7 0
BBX 11 14 -2 -2
BITMAP 
0000
0000
0000
0000
0000
0000
0c00
1e00
0c00
0000
0000
0000
0000
0000
ENDCHAR
STARTCHAR U+0388
ENCODING 904
SWIDTH 500 0
DWIDTH 7 0
BBX 11 14 -2 -2
BITMAP 
1800
1800
1800
1fc0
1800
1800
3000
3f00
3000
6000
6000
7f00
0000
0000
ENDCHAR
STARTCHAR U+0389
ENCODING 905
SWIDTH 500 0
DWIDTH 7 0
BBX 11 14 -2 -2
BITMAP 
1800
1800
1800
18c0
18c0
18c0
3180
3f80
3180
6300
6300
6300
0000
0000
ENDCHAR
STARTCHAR U+038A
ENCODING 906
SWIDTH 500 0
DWIDTH 7 0
BBX 11 14 -2 -2
BITMAP 
1800
1800
1800
0f80
0600
0600
0c00
0c00
0c00
1800
1800
7e00
0000
0000
ENDCHAR
STARTCHAR U+038C
ENCODING 908
SWIDTH 500 0
DWIDTH 7 0
BBX 11 14 -2 -2
BITMAP 
1800
1800
1800
0f80
18c0
18c0
3180
3180
3180
6300
6300
3e00
0000
0000
ENDCHAR
STARTCHAR U+038E
ENCODING 910
SWIDTH 500 0
DWIDTH 7 0
BBX 11 14 -2 -2
BITMAP 
1800
1800
1800
1980
1980
1980
1b00
1a00
1c00
1800
1800
1800
0000
0000
ENDCHAR
STARTCHAR U+038F
ENCODING 911
SWIDTH 500 0
DWIDTH 7 0
BBX 11 14 -2 -2
BITMAP 
1800
1800
1800
0f80
18c0
18c0
3180
3180
3300
3600
1c00
7f00
0000
0000
ENDCHAR
STARTCHAR U+0390
ENCODING 912
SWIDTH 500 0
DWIDTH 7 0
BBX 11 14 -2 -2
BITMAP 
0300
0300
0300
1980
1980
0600
0c00
0c00
0c00
0c00
0600
0000
0000
0000
ENDCHAR
STARTCHAR U+0391
ENCODING 913
SWIDTH 500 0
DWIDTH 7 0
BBX 11 14 -2 -2
BITMAP 
0000
0000
0000
0700
0700
0d00
1b00
1f00
3300
6300
6300
6300
0000
0000
ENDCHAR
STARTCHAR U+0392
ENCODING 914
SWIDTH 500 0
DWIDTH 7 0
BBX 11 14 -2 -2
BITMAP 
0000
0000
0000
1f80
0cc0
0cc0
1980
1e00
1b00
3300
3300
7e00
0000
0000
ENDCHAR
STARTCHAR U+0393
ENCODING 915
SWIDTH 500 0
DWIDTH 7 0
BBX 11 14 -2 -2
BITMAP 
0000
0000
0000
1fc0
1800
1800
3000
3000
3000
6000
6000
6000
0000
0000
ENDCHAR
STARTCHAR U+0394
ENCODING 916
SWIDTH 500 0
DWIDTH 7 0
BBX 11 14 -2 -2
BITMAP 
0000
0000
0000
0700
0700
0d00
1b00
1b00
3300
6300
6300
7f00
0000
0000
ENDCHAR
STARTCHAR U+0395
ENCODING 917
SWIDTH 500 0
DWIDTH 7 0
BBX 11 14 -2 -2
BITMAP 
0000
0000
0000
1fc0
1800
1800
3000
3f00
3000
6000
6000
7f00
0000
0000
ENDCHAR
STARTCHAR U+0396
ENCODING 918
SWIDTH 500 0
DWIDTH 7 0
BBX 11 14 -2 -2
BITMAP 
0000
0000
0000
1fc0
0180
0300
0600
0c00
1800
3000
6000
7f00
0000
0000
ENDCHAR
STARTCHAR U+0397
ENCODING 919
SWIDTH 500 0
DWIDTH 7 0
BBX 11 14 -2 -2
BITMAP 
0000
0000
0000
18c0
18c0
18c0
3180
3f80
3180
6300
6300
6300
0000
0000
ENDCHAR
STARTCHAR U+0398
ENCODING 920
SWIDTH 500 0
DWIDTH 7 0
BBX 11 14 -2 -2
BITMAP 
0000
0000
0000
0f80
18c0
18c0
3180
3f80
3180
6300
6300
3e00
0000
0000
ENDCHAR
STARTCHAR U+0399
ENCODING 921
SWIDTH 500 0
DWIDTH 7 0
BBX 11 14 -2 -2
BITMAP 
0000
0000
0000
1f80
0600
0600
0c00
0c00
0c00
1800
1800
7e00
0000
0000
ENDCHAR
STARTCHAR U+039A
ENCODING 922
SWIDTH 500 0
DWIDTH 7 0
BBX 11 14 -2 -2
BITMAP 
0000
0000
0000
18c0
1980
1b00
3400
3800
3400
6c00
6600
6300
0000
0000
ENDCHAR
STARTCHAR U+039B
ENCODING 923
SWIDTH 500 0
DWIDTH 7 0
BBX 11 14 -2 -2
BITMAP 
0000
0000
0000
0700
0700
0d00
1b00
1b00
3300
6300
6300
6300
0000
0000
ENDCHAR
STARTCHAR U+039C
ENCODING 924
SWIDTH 500 0
DWIDTH 7 0
BBX 11 14 -2 -2
BITMAP 
0000
0000
0000
18c0
1dc0
1dc0
3680
3680
3180
6300
6300
6300
0000
0000
ENDCHAR
STARTCHAR U+039D
ENCODING 925
SWIDTH 500 0
DWIDTH 7 0
BBX 11 14 -2 -2
BITMAP 
0000
0000
0000
1cc0
1cc0
1cc0
3580
3680
3680
6700
6700
6300
0000
0000
ENDCHAR
STARTCHAR U+039E
ENCODING 926
SWIDTH 500 0
DWIDTH 7 0
BBX 11 14 -2 -2
BITMAP 
0000
0000
0000
1fc0
0000
0000
0000
1f00
0000
0000
0000
7f00
0000
0000
ENDCHAR
STARTCHAR U+039F
ENCODING 927
SWIDTH 500 0
DWIDTH 7 0
BBX 11 14 -2 -2
BITMAP 
0000
0000
0000
0f80
18c0
18c0
3180
3180
3180
6300
6300
3e00
0000
0000
ENDCHAR
STARTCHAR U+03A0
ENCODING 928
SWIDTH 500 0
DWIDTH 7 0
BBX 11 14 -2 -2
BITMAP 
0000
0000
0000
3fc0
1980
1980
3300
3300
3300
6600
6600
6600
0000
0000
ENDCHAR
STARTCHAR U+03A1
ENCODING 929
SWIDTH 500 0
DWIDTH 7 0
BBX 11 14 -2 -2
BITMAP 
0000
0000
0000
1f80
18c0
18c0
3180
3f00
3000
6000
6000
6000
0000
0000
ENDCHAR
STARTCHAR U+03A3
ENCODING 931
SWIDTH 500 0
DWIDTH 7 0
BBX 11 14 -2 -2
BITMAP 
0000
0000
0000
1fc0
1800
0c00
0c00
0600
1c00
3000
6000
7f00
0000
0000
ENDCHAR
STARTCHAR U+03A4
ENCODING 932
SWIDTH 500 0
DWIDTH 7 0
BBX 11 14 -2 -2
BITMAP 
0000
0000
0000
3fc0
0600
0600
0c00
0c00
0c00
1800
1800
1800
0000
0000
ENDCHAR
STARTCHAR U+03A5
ENCODING 933
SWIDTH 500 0
DWIDTH 7 0
BBX 11 14 -2 -2
BITMAP 
0000
0000
0000
1980
1980
1980
1b00
1a00
1c00
1800
1800
1800
0000
0000
ENDCHAR
STARTCHAR U+03A6
ENCODING 934
SWIDTH 500 0
DWIDTH 7 0
BBX 11 14 -2 -2
BITMAP 
0000
0000
0000
1f80
0600
0f00
1d00
3500
3600
3c00
1800
7e00
0000
0000
ENDCHAR
STARTCHAR U+03A7
ENCODING 935
SWIDTH 500 0
DWIDTH 7 0
BBX 11 14 -2 -2
BITMAP 
0000
0000
0000
18c0
18c0
1980
1b00
0c00
1a00
3600
6300
6300
0000
0000
ENDCHAR
STARTCHAR U+03A8
ENCODING 936
SWIDTH 500 0
DWIDTH 7 0
BBX 11 14 -2 -2
BITMAP 
0000
0000
0000
1a80
1a80
1a80
1d00
0e00
0c00
1800
1800
1800
0000
0000
ENDCHAR
STARTCHAR U+03A9
ENCODING 937
SWIDTH 500 0
DWIDTH 7 0
BBX 11 14 -2 -2
BITMAP 
0000
0000
0000
0f80
18c0
18c0
3180
3180
3300
3600
1c00
7f00
0000
0000
ENDCHAR
STARTCHAR U+03AA
ENCODING 938
SWIDTH 500 0
DWIDTH 7 0
BBX 11 14 -2 -2
BITMAP 
0680
0680
0000
1f80
0600
0600
0c00
0c00
0c00
1800
1800
7e00
0000
0000
ENDCHAR
STARTCHAR U+03AB
ENCODING 939
SWIDTH 500 0
DWIDTH 7 0
BBX 11 14 -2 -2
BITMAP 
0680
0680
0000
1980
1980
1980
1b00
1a00
1c00
1800
1800
1800
0000
0000
ENDCHAR
STARTCHAR U+03AC
ENCODING 940
SWIDTH 500 0
DWIDTH 7 0
BBX 11 14 -2 -2
BITMAP 
0000
0300
0300
0600
0000
0e80
1a80
3300
3300
6600
6d00
3b00
0000
0000
ENDCHAR
STARTCHAR U+03AD
ENCODING 941
SWIDTH 500 0
DWIDTH 7 0
BBX 11 14 -2 -2
BITMAP 
0000
0300
0300
0600
0000
0f80
1800
3000
3e00
6000
6000
3e00
0000
0000
ENDCHAR
STARTCHAR U+03AE
ENCODING 942
SWIDTH 500 0
DWIDTH 7 0
BBX 11 14 -2 -2
BITMAP 
0000
0300
0300
0600
0000
1f00
3980
3180
3180
6300
6300
6300
0600
0600
ENDCHAR
STARTCHAR U+03AF
ENCODING 943
SWIDTH 500 0
DWIDTH 7 0
BBX 11 14 -2 -2
BITMAP 
0000
0300
0300
0600
0000
0600
0c00
0c00
0c00
1800
1800
0e00
0000
0000
ENDCHAR
STARTCHAR U+03B0
ENCODING 944
SWIDTH 500 0
DWIDTH 7 0
BBX 11 14 -2 -2
BITMAP 
0300
0300
0300
1980
1980
0000
3180
3180
3180
6300
6300
3e00
0000
0000
ENDCHAR
STARTCHAR U+03B1
ENCODING 945
SWIDTH 500 0
DWIDTH 7 0
BBX 11 14 -2 -2
BITMAP 
0000
0000
0000
0000
0000
0e80
1a80
3300
3300
6600
6d00
3b00
0000
0000
ENDCHAR
STARTCHAR U+03B2
ENCODING 946
SWIDTH 500 0
DWIDTH 7 0
BBX 11 14 -2 -2
BITMAP 
0000
0000
0000
0f00
1980
1980
3300
3f00
3300
6300
6300
7e00
c000
c000
ENDCHAR
STARTCHAR U+03B3
ENCODING 947
SWIDTH 500 0
DWIDTH 7 0
BBX 11 14 -2 -2
BITMAP 
0000
0000
0000
0000
0000
1980
0d80
0d00
0f00
0c00
0c00
1800
3000
0000
ENDCHAR
STARTCHAR U+03B4
ENCODING 948
SWIDTH 500 0
DWIDTH 7 0
BBX 11 14 -2 -2
BITMAP 
0000
0000
0000
0780
0c00
0c00
0e00
1b00
3300
6300
6300
3e00
0000
0000
ENDCHAR
STARTCHAR U+03B5
ENCODING 949
SWIDTH 500 0
DWIDTH 7 0
BBX 11 14 -2 -2
BITMAP 
0000
0000
0000
0000
0000
0f80
1800
3000
3e00
6000
6000
3e00
0000
0000
ENDCHAR
STARTCHAR U+03B6
ENCODING 950
SWIDTH 500 0
DWIDTH 7 0
BBX 11 14 -2 -2
BITMAP 
0000
0000
0000
1800
1800
0f00
0c00
1800
3000
3000
6000
3800
0c00
7800
ENDCHAR
STARTCHAR U+03B7
ENCODING 951
SWIDTH 500 0
DWIDTH 7 0
BBX 11 14 -2 -2
BITMAP 
0000
0000
0000
0000
0000
1f00
3980
3180
3180
6300
6300
6300
0600
0600
ENDCHAR
STARTCHAR U+03B8
ENCODING 952
SWIDTH 500 0
DWIDTH 7 0
BBX 11 14 -2 -2
BITMAP 
0000
0000
0000
0700
0d80
1980
3180
3f80
3180
3300
3600
1c00
0000
0000
ENDCHAR
STARTCHAR U+03B9
ENCODING 953
SWIDTH 500 0
DWIDTH 7 0
BBX 11 14 -2 -2
BITMAP 
0000
0000
0000
0000
0000
0600
0c00
0c00
0c00
1800
1800
0e00
0000
0000
ENDCHAR
STARTCHAR U+03BA
ENCODING 954
SWIDTH 500 0
DWIDTH 7 0
BBX 11 14 -2 -2
BITMAP 
0000
0000
0000
0000
0000
1b80
3600
3400
3800
6800
6c00
6600
0000
0000
ENDCHAR
STARTCHAR U+03BB
ENCODING 955
SWIDTH 500 0
DWIDTH 7 0
BBX 11 14 -2 -2
BITMAP 
0000
0000
0000
1c00
0600
0600
0600
0600
0e00
1a00
3300
6300
0000
0000
ENDCHAR
STARTCHAR U+03BC
ENCODING 956
SWIDTH 500 0
DWIDTH 7 0
BBX 11 14 -2 -2
BITMAP 
0000
0000
0000
0000
0000
18c0
3180
3180
3180
7700
6d00
6300
c000
c000
ENDCHAR
STARTCHAR U+03BD
ENCODING 957
SWIDTH 500 0
DWIDTH 7 0
BBX 11 14 -2 -2
BITMAP 
0000
0000
0000
0000
0000
1980
3180
3300
3600
6c00
6800
7000
0000
0000
ENDCHAR
STARTCHAR U+03BE
ENCODING 958
SWIDTH 500 0
DWIDTH 7 0
BBX 11 14 -2 -2
BITMAP 
0000
0000
0000
1800
1800
0f80
1800
3000
1f00
3000
6000
3c00
0600
3c00
ENDCHAR
STARTCHAR U+03BF
ENCODING 959
SWIDTH 500 0
DWIDTH 7 0
BBX 11 14 -2 -2
BITMAP 
0000
0000
0000
0000
0000
0f00
1980
3180
3180
6300
6300
3e00
0000
0000
ENDCHAR
STARTCHAR U+03C0
ENCODING 960
SWIDTH 500 0
DWIDTH 7 0
BBX 11 14 -2 -2
BITMAP 
0000
0000
0000
0000
0000
1fc0
1b00
1b00
1b00
3600
3600
3600
0000
0000
ENDCHAR
STARTCHAR U+03C1
ENCODING 961
SWIDTH 500 0
DWIDTH 7 0
BBX 11 14 -2 -2
BITMAP 
0000
0000
0000
0000
0000
0f00
1980
3180
3180
6300
7300
6e00
c000
c000
ENDCHAR
STARTCHAR U+03C2
ENCODING 962
SWIDTH 500 0
DWIDTH 7 0
BBX 11 14 -2 -2
BITMAP 
0000
0000
0000
0000
0000
0f80
1800
3000
3000
3000
3000
1c00
0600
7c00
ENDCHAR
STARTCHAR U+03C3
ENCODING 963
SWIDTH 500 0
DWIDTH 7 0
BBX 11 14 -2 -2
BITMAP 
0000
0000
0000
0000
0000
0fc0
1b00
3300
3300
6600
6600
3c00
0000
0000
ENDCHAR
STARTCHAR U+03C4
ENCODING 964
SWIDTH 500 0
DWIDTH 7 0
BBX 11 14 -2 -2
BITMAP 
0000
0000
0000
0000
0000
1fc0
0c00
0c00
0c00
1800
1800
0e00
0000
0000
ENDCHAR
STARTCHAR U+03C5
ENCODING 965
SWIDTH 500 0
DWIDTH 7 0
BBX 11 14 -2 -2
BITMAP 
0000
0000
0000
0000
0000
18c0
3180
3180
3180
6300
6300
3e00
0000
0000
ENDCHAR
STARTCHAR U+03C6
ENCODING 966
SWIDTH 500 0
DWIDTH 7 0
BBX 11 14 -2 -2
BITMAP 
0000
0000
0000
0000
0000
0f00
1d00
3500
3500
6a00
6a00
3c00
3000
3000
ENDCHAR
STARTCHAR U+03C7
ENCODING 967
SWIDTH 500 0
DWIDTH 7 0
BBX 11 14 -2 -2
BITMAP 
0000
0000
0000
0000
0000
1b00
1b00
1a00
1c00
1800
3400
6c00
6c00
cc00
ENDCHAR
STARTCHAR U+03C8
ENCODING 968
SWIDTH 500 0
DWIDTH 7 0
BBX 11 14 -2 -2
BITMAP 
0000
0000
0000
0600
0600
1a80
3500
3500
3500
6a00
6a00
3c00
3000
3000
ENDCHAR
STARTCHAR U+03C9
ENCODING 969
SWIDTH 500 0
DWIDTH 7 0
BBX 11 14 -2 -2
BITMAP 
0000
0000
0000
0000
0000
0d80
1980
3180
3180
6d00
6d00
3a00
0000
0000
ENDCHAR
STARTCHAR U+03CA
ENCODING 970
SWIDTH 500 0
DWIDTH 7 0
BBX 11 14 -2 -2
BITMAP 
0000
0000
0680
0d00
0000
0600
0c00
0c00
0c00
1800
1800
0e00
0000
0000
ENDCHAR
STARTCHAR U+03CB
ENCODING 971
SWIDTH 500 0
DWIDTH 7 0
BBX 11 14 -2 -2
BITMAP 
0000
0000
06c0
0d80
0000
18c0
3180
3180
3180
6300
6300
3e00
0000
0000
ENDCHAR
STARTCHAR U+03CC
ENCODING 972
SWIDTH 500 0
DWIDTH 7 0
BBX 11 14 -2 -2
BITMAP 
0000
0300
0300
0600
0000
0f00
1980
3180
3180
6300
6300
3e00
0000
0000
ENDCHAR
STARTCHAR U+03CD
ENCODING 973
SWIDTH 500 0
DWIDTH 7 0
BBX 11 14 -2 -2
BITMAP 
0000
0300
0300
0600
0000
18c0
3180
3180
3180
6300
6300
3e00
0000
0000
ENDCHAR
STARTCHAR U+03CE
ENCODING 974
SWIDTH 500 0
DWIDTH 7 0
BBX 11 14 -2 -2
BITMAP 
0000
0300
0300
0600
0000
0d80
1980
3180
3180
6d00
6d00
3a00
0000
0000
ENDCHAR
STARTCHAR U+03D5
ENCODING 981
SWIDTH 500 0
DWIDTH 7 0
BBX 11 14 -2 -2
BITMAP 
0000
0000
0000
0600
0600
0f00
1d00
3500
3500
6a00
6a00
3c00
3000
3000
ENDCHAR
STARTCHAR U+03DD
ENCODING 989
SWIDTH 500 0
DWIDTH 7 0
BBX 11 14 -2 -2
BITMAP 
0000
0000
0000
0000
0000
1f80
3000
3000
3e00
6000
6000
6000
c000
c000
ENDCHAR
STARTCHAR U+03E2
ENCODING 994
SWIDTH 500 0
DWIDTH 7 0
BBX 11 14 -2 -2
BITMAP 
0000
0000
0000
1a80
1a80
1a80
3500
3500
3d00
3600
0600
3c00
0000
0000
ENDCHAR
STARTCHAR U+03E3
ENCODING 995
SWIDTH 500 0
DWIDTH 7 0
BBX 11 14 -2 -2
BITMAP 
0000
0000
0000
0000
0000
1a80
3500
3500
3500
6a00
6a00
3600
0c00
7800
ENDCHAR
STARTCHAR U+03E5
ENCODING 997
SWIDTH 500 0
DWIDTH 7 0
BBX 11 14 -2 -2
BITMAP 
0000
0000
0680
0d00
1b00
1b00
0e00
0600
0600
0c00
0c00
0c00
0000
0000
ENDCHAR
STARTCHAR U+03EA
ENCODING 1002
SWIDTH 500 0
DWIDTH 7 0
BBX 11 14 -2 -2
BITMAP 
0000
0000
0dc0
0600
0600
0e00
1a00
1a00
3600
6600
6600
7e00
0000
0000
ENDCHAR
STARTCHAR U+03EB
ENCODING 1003
SWIDTH 500 0
DWIDTH 7 0
BBX 11 14 -2 -2
BITMAP 
0000
0000
0000
0000
0000
1b80
0c00
1a00
3600
3600
6600
7e00
0000
0000
ENDCHAR
STARTCHAR U+03EE
ENCODING 1006
SWIDTH 500 0
DWIDTH 7 0
BBX 11 14 -2 -2
BITMAP 
0000
0000
0780
0600
1f80
1a80
0c00
0c00
0c00
1800
1800
1800
0000
0000
ENDCHAR
STARTCHAR U+03EF
ENCODING 1007
SWIDTH 500 0
DWIDTH 7 0
BBX 11 14 -2 -2
BITMAP 
0000
0000
0000
0000
0600
0680
3f00
3400
0c00
1800
1800
0000
0000
0000
ENDCHAR
STARTCHAR U+03F3
ENCODING 1011
SWIDTH 500 0
DWIDTH 7 0
BBX 11 14 -2 -2
BITMAP 
0000
0000
00c0
0180
0000
0380
0300
0300
0300
0600
0600
6600
6c00
3800
ENDCHAR
STARTCHAR U+03F4
ENCODING 1012
SWIDTH 500 0
DWIDTH 7 0
BBX 11 14 -2 -2
BITMAP 
0000
0000
0780
0cc0
18c0
18c0
3f80
3180
3180
6300
6300
3e00
0000
0000
ENDCHAR
STARTCHAR U+0401
ENCODING 1025
SWIDTH 500 0
DWIDTH 7 0
BBX 11 14 -2 -2
BITMAP 
06c0
06c0
0000
1fc0
1800
1800
3000
3f80
3000
6000
6000
7f00
0000
0000
ENDCHAR
STARTCHAR U+0402
ENCODING 1026
SWIDTH 500 0
DWIDTH 7 0
BBX 11 14 -2 -2
BITMAP 
0000
0000
0000
3fc0
0600
0600
0f00
0d80
0d80
1b00
1b00
1e00
0000
0000
ENDCHAR
STARTCHAR U+0403
ENCODING 1027
SWIDTH 500 0
DWIDTH 7 0
BBX 11 14 -2 -2
BITMAP 
01c0
0700
0000
1fc0
1800
1800
3000
3000
3000
6000
6000
6000
0000
0000
ENDCHAR
STARTCHAR U+0404
ENCODING 1028
SWIDTH 500 0
DWIDTH 7 0
BBX 11 14 -2 -2
BITMAP 
0000
0000
0000
0780
0cc0
1800
3000
3f00
3000
3000
3300
1e00
0000
0000
ENDCHAR
STARTCHAR U+0405
ENCODING 1029
SWIDTH 500 0
DWIDTH 7 0
BBX 11 14 -2 -2
BITMAP 
0000
0000
0000
0f80
18c0
1800
0c00
0600
0300
6300
6300
3e00
0000
0000
ENDCHAR
STARTCHAR U+0406
ENCODING 1030
SWIDTH 500 0
DWIDTH 7 0
BBX 11 14 -2 -2
BITMAP 
0000
0000
0000
1f80
0600
0600
0c00
0c00
0c00
1800
1800
7e00
0000
0000
ENDCHAR
STARTCHAR U+0407
ENCODING 1031
SWIDTH 500 0
DWIDTH 7 0
BBX 11 14 -2 -2
BITMAP 
0680
0680
0000
1f80
0600
0600
0c00
0c00
0c00
1800
1800
7e00
0000
0000
ENDCHAR
STARTCHAR U+0408
ENCODING 1032
SWIDTH 500 0
DWIDTH 7 0
BBX 11 14 -2 -2
BITMAP 
0000
0000
0000
03c0
0180
0180
0300
0300
0300
6600
6600
3c00
0000
0000
ENDCHAR
STARTCHAR U+0409
ENCODING 1033
SWIDTH 500 0
DWIDTH 7 0
BBX 11 14 -2 -2
BITMAP 
0000
0000
0000
1f00
1b00
1b00
3700
3680
3680
6d00
6d00
ce00
0000
0000
ENDCHAR
STARTCHAR U+040A
ENCODING 1034
SWIDTH 500 0
DWIDTH 7 0
BBX 11 14 -2 -2
BITMAP 
0000
0000
0000
1b00
1b00
1b00
3700
3e80
3680
6d00
6d00
6e00
0000
0000
ENDCHAR
STARTCHAR U+040B
ENCODING 1035
SWIDTH 500 0
DWIDTH 7 0
BBX 11 14 -2 -2
BITMAP 
0000
0000
0000
1f80
0600
0600
0f00
0d80
0d80
1b00
1b00
1b00
0000
0000
ENDCHAR
STARTCHAR U+040C
ENCODING 1036
SWIDTH 500 0
DWIDTH 7 0
BBX 11 14 -2 -2
BITMAP 
01c0
0700
0000
18c0
1980
1b00
3400
3800
3400
6c00
6600
6300
0000
0000
ENDCHAR
STARTCHAR U+040E
ENCODING 1038
SWIDTH 500 0
DWIDTH 7 0
BBX 11 14 -2 -2
BITMAP 
06c0
0380
0000
18c0
18c0
1980
1b00
0e00
0600
0c00
1800
7000
0000
0000
ENDCHAR
STARTCHAR U+040F
ENCODING 1039
SWIDTH 500 0
DWIDTH 7 0
BBX 11 14 -2 -2
BITMAP 
0000
0000
0000
1980
1980
1980
3300
3300
3f00
1800
1800
1800
0000
0000
ENDCHAR
STARTCHAR U+0410
ENCODING 1040
SWIDTH 500 0
DWIDTH 7 0
BBX 11 14 -2 -2
BITMAP 
0000
0000
0000
0700
0700
0d00
1b00
1f00
3300
6300
6300
6300
0000
0000
ENDCHAR
STARTCHAR U+0411
ENCODING 1041
SWIDTH 500 0
DWIDTH 7 0
BBX 11 14 -2 -2
BITMAP 
0000
0000
0000
1f80
1800
1800
3000
3e00
3300
6300
6300
7e00
0000
0000
ENDCHAR
STARTCHAR U+0412
ENCODING 1042
SWIDTH 500 0
DWIDTH 7 0
BBX 11 14 -2 -2
BITMAP 
0000
0000
0000
1f80
18c0
18c0
3180
3e00
3300
6300
6300
7e00
0000
0000
ENDCHAR
STARTCHAR U+0413
ENCODING 1043
SWIDTH 500 0
DWIDTH 7 0
BBX 11 14 -2 -2
BITMAP 
0000
0000
0000
1fc0
1800
1800
3000
3000
3000
6000
6000
6000
0000
0000
ENDCHAR
STARTCHAR U+0414
ENCODING 1044
SWIDTH 500 0
DWIDTH 7 0
BBX 11 14 -2 -2
BITMAP 
0000
0000
0000
0780
0680
0d80
0d00
1b00
3300
3600
6600
fe00
8600
0000
ENDCHAR
STARTCHAR U+0415
ENCODING 1045
SWIDTH 500 0
DWIDTH 7 0
BBX 11 14 -2 -2
BITMAP 
0000
0000
0000
1fc0
1800
1800
3000
3f00
3000
6000
6000
7f00
0000
0000
ENDCHAR
STARTCHAR U+0416
ENCODING 1046
SWIDTH 500 0
DWIDTH 7 0
BBX 11 14 -2 -2
BITMAP 
0000
0000
0000
36c0
36c0
3680
3500
1e00
3600
6a00
db00
db00
0000
0000
ENDCHAR
STARTCHAR U+0417
ENCODING 1047
SWIDTH 500 0
DWIDTH 7 0
BBX 11 14 -2 -2
BITMAP 
0000
0000
0000
0f80
18c0
00c0
0180
0e00
0300
0300
6300
3e00
0000
0000
ENDCHAR
STARTCHAR U+0418
ENCODING 1048
SWIDTH 500 0
DWIDTH 7 0
BBX 11 14 -2 -2
BITMAP 
0000
0000
0000
19c0
19c0
1b40
3680
3580
3980
6b00
7300
6300
0000
0000
ENDCHAR
STARTCHAR U+0419
ENCODING 1049
SWIDTH 500 0
DWIDTH 7 0
BBX 11 14 -2 -2
BITMAP 
06c0
0380
0000
19c0
19c0
1b40
3680
3580
3980
6b00
7300
6300
0000
0000
ENDCHAR
STARTCHAR U+041A
ENCODING 1050
SWIDTH 500 0
DWIDTH 7 0
BBX 11 14 -2 -2
BITMAP 
0000
0000
0000
18c0
1980
1b00
3400
3800
3400
6c00
6600
6300
0000
0000
ENDCHAR
STARTCHAR U+041B
ENCODING 1051
SWIDTH 500 0
DWIDTH 7 0
BBX 11 14 -2 -2
BITMAP 
0000
0000
0000
07c0
06c0
06c0
0d80
0d80
0d80
1b00
1b00
7300
0000
0000
ENDCHAR
STARTCHAR U+041C
ENCODING 1052
SWIDTH 500 0
DWIDTH 7 0
BBX 11 14 -2 -2
BITMAP 
0000
0000
0000
18c0
1dc0
1dc0
3680
3680
3180
6300
6300
6300
0000
0000
ENDCHAR
STARTCHAR U+041D
ENCODING 1053
SWIDTH 500 0
DWIDTH 7 0
BBX 11 14 -2 -2
BITMAP 
0000
0000
0000
18c0
18c0
18c0
3180
3f80
3180
6300
6300
6300
0000
0000
ENDCHAR
STARTCHAR U+041E
ENCODING 1054
SWIDTH 500 0
DWIDTH 7 0
BBX 11 14 -2 -2
BITMAP 
0000
0000
0000
0f80
18c0
18c0
3180
3180
3180
6300
6300
3e00
0000
0000
ENDCHAR
STARTCHAR U+041F
ENCODING 1055
SWIDTH 500 0
DWIDTH 7 0
BBX 11 14 -2 -2
BITMAP 
0000
0000
0000
1fc0
18c0
18c0
3180
3180
3180
6300
6300
6300
0000
0000
ENDCHAR
STARTCHAR U+0420
ENCODING 1056
SWIDTH 500 0
DWIDTH 7 0
BBX 11 14 -2 -2
BITMAP 
0000
0000
0000
1f80
18c0
18c0
3180
3f00
3000
6000
6000
6000
0000
0000
ENDCHAR
STARTCHAR U+0421
ENCODING 1057
SWIDTH 500 0
DWIDTH 7 0
BBX 11 14 -2 -2
BITMAP 
0000
0000
0000
0f80
18c0
18c0
3000
3000
3000
6300
6300
3e00
0000
0000
ENDCHAR
STARTCHAR U+0422
ENCODING 1058
SWIDTH 500 0
DWIDTH 7 0
BBX 11 14 -2 -2
BITMAP 
0000
0000
0000
3fc0
0600
0600
0c00
0c00
0c00
1800
1800
1800
0000
0000
ENDCHAR
STARTCHAR U+0423
ENCODING 1059
SWIDTH 500 0
DWIDTH 7 0
BBX 11 14 -2 -2
BITMAP 
0000
0000
0000
18c0
18c0
1980
1b00
0e00
0600
0c00
1800
7000
0000
0000
ENDCHAR
STARTCHAR U+0424
ENCODING 1060
SWIDTH 500 0
DWIDTH 7 0
BBX 11 14 -2 -2
BITMAP 
0000
0000
0000
0600
1f00
3680
6d80
6d80
6d00
3e00
1800
1800
0000
0000
ENDCHAR
STARTCHAR U+0425
ENCODING 1061
SWIDTH 500 0
DWIDTH 7 0
BBX 11 14 -2 -2
BITMAP 
0000
0000
0000
18c0
18c0
1980
1b00
0c00
1a00
3600
6300
6300
0000
0000
ENDCHAR
STARTCHAR U+0426
ENCODING 1062
SWIDTH 500 0
DWIDTH 7 0
BBX 11 14 -2 -2
BITMAP 
0000
0000
0000
18c0
18c0
18c0
3180
3180
3180
6300
6300
7f00
0600
0c00
ENDCHAR
STARTCHAR U+0427
ENCODING 1063
SWIDTH 500 0
DWIDTH 7 0
BBX 11 14 -2 -2
BITMAP 
0000
0000
0000
18c0
18c0
18c0
1980
0f80
0180
0300
0300
0300
0000
0000
ENDCHAR
STARTCHAR U+0428
ENCODING 1064
SWIDTH 500 0
DWIDTH 7 0
BBX 11 14 -2 -2
BITMAP 
0000
0000
0000
1b40
1b40
1b40
3680
3680
3680
6d00
6d00
7f00
0000
0000
ENDCHAR
STARTCHAR U+0429
ENCODING 1065
SWIDTH 500 0
DWIDTH 7 0
BBX 11 14 -2 -2
BITMAP 
0000
0000
0000
1b40
1b40
1b40
3680
3680
3680
6d00
6d00
7f00
0600
0c00
ENDCHAR
STARTCHAR U+042A
ENCODING 1066
SWIDTH 500 0
DWIDTH 7 0
BBX 11 14 -2 -2
BITMAP 
0000
0000
0000
3c00
0c00
0c00
1800
1e00
1b00
3300
3300
3e00
0000
0000
ENDCHAR
STARTCHAR U+042B
ENCODING 1067
SWIDTH 500 0
DWIDTH 7 0
BBX 11 14 -2 -2
BITMAP 
0000
0000
0000
18c0
18c0
18c0
3180
3980
3580
6d00
6d00
7b00
0000
0000
ENDCHAR
STARTCHAR U+042C
ENCODING 1068
SWIDTH 500 0
DWIDTH 7 0
BBX 11 14 -2 -2
BITMAP 
0000
0000
0000
1800
1800
1800
3000
3e00
3300
6300
6300
7e00
0000
0000
ENDCHAR
STARTCHAR U+042D
ENCODING 1069
SWIDTH 500 0
DWIDTH 7 0
BBX 11 14 -2 -2
BITMAP 
0000
0000
0000
0f00
1980
0180
0180
1f80
0180
0300
6600
3c00
0000
0000
ENDCHAR
STARTCHAR U+042E
ENCODING 1070
SWIDTH 500 0
DWIDTH 7 0
BBX 11 14 -2 -2
BITMAP 
0000
0000
0000
1b80
1ac0
1ac0
3580
3d80
3580
6b00
6b00
6e00
0000
0000
ENDCHAR
STARTCHAR U+042F
ENCODING 1071
SWIDTH 500 0
DWIDTH 7 0
BBX 11 14 -2 -2
BITMAP 
0000
0000
0000
0fc0
18c0
18c0
1980
0f80
1d80
3300
6300
6300
0000
0000
ENDCHAR
STARTCHAR U+0430
ENCODING 1072
SWIDTH 500 0
DWIDTH 7 0
BBX 11 14 -2 -2
BITMAP 
0000
0000
0000
0000
0000
1f00
3180
0780
1d80
3300
6700
3d00
0000
0000
ENDCHAR
STARTCHAR U+0431
ENCODING 1073
SWIDTH 500 0
DWIDTH 7 0
BBX 11 14 -2 -2
BITMAP 
0000
0000
0000
0000
0000
1f80
3000
3000
3e00
6300
6300
7e00
0000
0000
ENDCHAR
STARTCHAR U+0432
ENCODING 1074
SWIDTH 500 0
DWIDTH 7 0
BBX 11 14 -2 -2
BITMAP 
0000
0000
0000
0000
0000
1f00
3180
3180
3e00
6300
6300
7e00
0000
0000
ENDCHAR
STARTCHAR U+0433
ENCODING 1075
SWIDTH 500 0
DWIDTH 7 0
BBX 11 14 -2 -2
BITMAP 
0000
0000
0000
0000
0000
1fc0
3000
3000
3000
6000
6000
6000
0000
0000
ENDCHAR
STARTCHAR U+0434
ENCODING 1076
SWIDTH 500 0
DWIDTH 7 0
BBX 11 14 -2 -2
BITMAP 
0000
0000
0000
0000
0000
0d80
0d00
1b00
3300
3600
6600
fe00
8600
0000
ENDCHAR
STARTCHAR U+0435
ENCODING 1077
SWIDTH 500 0
DWIDTH 7 0
BBX 11 14 -2 -2
BITMAP 
0000
0000
0000
0000
0000
0f00
1980
3180
3f80
6000
6300
3e00
0000
0000
ENDCHAR
STARTCHAR U+0436
ENCODING 1078
SWIDTH 500 0
DWIDTH 7 0
BBX 11 14 -2 -2
BITMAP 
0000
0000
0000
0000
0000
1a80
3500
3500
1e00
3a00
6a00
6a00
0000
0000
ENDCHAR
STARTCHAR U+0437
ENCODING 1079
SWIDTH 500 0
DWIDTH 7 0
BBX 11 14 -2 -2
BITMAP 
0000
0000
0000
0000
0000
1f00
3180
0180
0600
0300
6300
3e00
0000
0000
ENDCHAR
STARTCHAR U+0438
ENCODING 1080
SWIDTH 500 0
DWIDTH 7 0
BBX 11 14 -2 -2
BITMAP 
0000
0000
0000
0000
0000
19c0
3380
3680
3580
6d00
6b00
7300
0000
0000
ENDCHAR
STARTCHAR U+0439
ENCODING 1081
SWIDTH 500 0
DWIDTH 7 0
BBX 11 14 -2 -2
BITMAP 
0000
0000
06c0
0300
0000
19c0
3380
3680
3580
6d00
6b00
7300
0000
0000
ENDCHAR
STARTCHAR U+043A
ENCODING 1082
SWIDTH 500 0
DWIDTH 7 0
BBX 11 14 -2 -2
BITMAP 
0000
0000
0000
0000
0000
1bc0
3600
3400
3c00
6c00
6600
6300
0000
0000
ENDCHAR
STARTCHAR U+043B
ENCODING 1083
SWIDTH 500 0
DWIDTH 7 0
BBX 11 14 -2 -2
BITMAP 
0000
0000
0000
0000
0000
07c0
0d80
0d80
0d80
1b00
1b00
7300
0000
0000
ENDCHAR
STARTCHAR U+043C
ENCODING 1084
SWIDTH 500 0
DWIDTH 7 0
BBX 11 14 -2 -2
BITMAP 
0000
0000
0000
0000
0000
18c0
3b80
3b80
3a80
6d00
6300
6300
0000
0000
ENDCHAR
STARTCHAR U+043D
ENCODING 1085
SWIDTH 500 0
DWIDTH 7 0
BBX 11 14 -2 -2
BITMAP 
0000
0000
0000
0000
0000
18c0
3180
3180
3f80
6300
6300
6300
0000
0000
ENDCHAR
STARTCHAR U+043E
ENCODING 1086
SWIDTH 500 0
DWIDTH 7 0
BBX 11 14 -2 -2
BITMAP 
0000
0000
0000
0000
0000
0f00
1980
3180
3180
6300
6300
3e00
0000
0000
ENDCHAR
STARTCHAR U+043F
ENCODING 1087
SWIDTH 500 0
DWIDTH 7 0
BBX 11 14 -2 -2
BITMAP 
0000
0000
0000
0000
0000
1fc0
3180
3180
3180
6300
6300
6300
0000
0000
ENDCHAR
STARTCHAR U+0440
ENCODING 1088
SWIDTH 500 0
DWIDTH 7 0
BBX 11 14 -2 -2
BITMAP 
0000
0000
0000
0000
0000
1f00
3980
3180
3180
6300
7300
6e00
c000
c000
ENDCHAR
STARTCHAR U+0441
ENCODING 1089
SWIDTH 500 0
DWIDTH 7 0
BBX 11 14 -2 -2
BITMAP 
0000
0000
0000
0000
0000
0f00
1980
3000
3000
6000
6300
3e00
0000
0000
ENDCHAR
STARTCHAR U+0442
ENCODING 1090
SWIDTH 500 0
DWIDTH 7 0
BBX 11 14 -2 -2
BITMAP 
0000
0000
0000
0000
0000
3fc0
0c00
0c00
0c00
1800
1800
1800
0000
0000
ENDCHAR
STARTCHAR U+0443
ENCODING 1091
SWIDTH 500 0
DWIDTH 7 0
BBX 11 14 -2 -2
BITMAP 
0000
0000
0000
0000
0000
1980
1980
1b00
1a00
1a00
0c00
1800
3000
e000
ENDCHAR
STARTCHAR U+0444
ENCODING 1092
SWIDTH 500 0
DWIDTH 7 0
BBX 11 14 -2 -2
BITMAP 
0000
0000
0000
0600
0600
0f00
1d00
3500
3500
6a00
6a00
3c00
3000
3000
ENDCHAR
STARTCHAR U+0445
ENCODING 1093
SWIDTH 500 0
DWIDTH 7 0
BBX 11 14 -2 -2
BITMAP 
0000
0000
0000
0000
0000
18c0
1980
1b00
1c00
3600
6300
6300
0000
0000
ENDCHAR
STARTCHAR U+0446
ENCODING 1094
SWIDTH 500 0
DWIDTH 7 0
BBX 11 14 -2 -2
BITMAP 
0000
0000
0000
0000
0000
1980
3300
3300
3300
6600
6600
7f00
0c00
1800
ENDCHAR
STARTCHAR U+0447
ENCODING 1095
SWIDTH 500 0
DWIDTH 7 0
BBX 11 14 -2 -2
BITMAP 
0000
0000
0000
0000
0000
18c0
3180
3180
1f80
0300
0300
0300
0000
0000
ENDCHAR
STARTCHAR U+0448
ENCODING 1096
SWIDTH 500 0
DWIDTH 7 0
BBX 11 14 -2 -2
BITMAP 
0000
0000
0000
0000
0000
1a80
3500
3500
3500
6a00
6a00
7e00
0000
0000
ENDCHAR
STARTCHAR U+0449
ENCODING 1097
SWIDTH 500 0
DWIDTH 7 0
BBX 11 14 -2 -2
BITMAP 
0000
0000
0000
0000
0000
1a80
3500
3500
3500
6a00
6a00
7f00
0c00
1800
ENDCHAR
STARTCHAR U+044A
ENCODING 1098
SWIDTH 500 0
DWIDTH 7 0
BBX 11 14 -2 -2
BITMAP 
0000
0000
0000
0000
0000
3c00
1800
1800
1e00
3300
3300
3e00
0000
0000
ENDCHAR
STARTCHAR U+044B
ENCODING 1099
SWIDTH 500 0
DWIDTH 7 0
BBX 11 14 -2 -2
BITMAP 
0000
0000
0000
0000
0000
1980
3300
3300
3b00
6a00
6a00
7600
0000
0000
ENDCHAR
STARTCHAR U+044C
ENCODING 1100
SWIDTH 500 0
DWIDTH 7 0
BBX 11 14 -2 -2
BITMAP 
0000
0000
0000
0000
0000
1800
3000
3000
3e00
6300
6300
7e00
0000
0000
ENDCHAR
STARTCHAR U+044D
ENCODING 1101
SWIDTH 500 0
DWIDTH 7 0
BBX 11 14 -2 -2
BITMAP 
0000
0000
0000
0000
0000
1e00
3300
0180
0f80
0300
6600
3c00
0000
0000
ENDCHAR
STARTCHAR U+044E
ENCODING 1102
SWIDTH 500 0
DWIDTH 7 0
BBX 11 14 -2 -2
BITMAP 
0000
0000
0000
0000
0000
1b80
3680
3580
3d80
6b00
6b00
6e00
0000
0000
ENDCHAR
STARTCHAR U+044F
ENCODING 1103
SWIDTH 500 0
DWIDTH 7 0
BBX 11 14 -2 -2
BITMAP 
0000
0000
0000
0000
0000
0fc0
1980
3180
1f80
1b00
3300
6300
0000
0000
ENDCHAR
STARTCHAR U+0451
ENCODING 1105
SWIDTH 500 0
DWIDTH 7 0
BBX 11 14 -2 -2
BITMAP 
0000
0000
06c0
0d80
0000
0f00
1980
3180
3f80
6000
6300
3e00
0000
0000
ENDCHAR
STARTCHAR U+0452
ENCODING 1106
SWIDTH 500 0
DWIDTH 7 0
BBX 11 14 -2 -2
BITMAP 
0000
0000
0000
0c00
0c00
1f00
1800
1e00
1b00
3300
3300
3e00
0000
0000
ENDCHAR
STARTCHAR U+0453
ENCODING 1107
SWIDTH 500 0
DWIDTH 7 0
BBX 11 14 -2 -2
BITMAP 
0000
0000
03c0
0e00
0000
1fc0
3000
3000
3000
6000
6000
6000
0000
0000
ENDCHAR
STARTCHAR U+0454
ENCODING 1108
SWIDTH 500 0
DWIDTH 7 0
BBX 11 14 -2 -2
BITMAP 
0000
0000
0000
0000
0000
0f00
1980
3000
3e00
6000
3300
1e00
0000
0000
ENDCHAR
STARTCHAR U+0455
ENCODING 1109
SWIDTH 500 0
DWIDTH 7 0
BBX 11 14 -2 -2
BITMAP 
0000
0000
0000
0000
0000
0f00
1980
3000
1e00
0300
6300
3e00
0000
0000
ENDCHAR
STARTCHAR U+0456
ENCODING 1110
SWIDTH 500 0
DWIDTH 7 0
BBX 11 14 -2 -2
BITMAP 
0000
0000
0300
0600
0000
0e00
0c00
0c00
0c00
1800
1800
7e00
0000
0000
ENDCHAR
STARTCHAR U+0457
ENCODING 1111
SWIDTH 500 0
DWIDTH 7 0
BBX 11 14 -2 -2
BITMAP 
0000
0000
0d80
1b00
0000
0e00
0c00
0c00
0c00
1800
1800
7e00
0000
0000
ENDCHAR
STARTCHAR U+0458
ENCODING 1112
SWIDTH 500 0
DWIDTH 7 0
BBX 11 14 -2 -2
BITMAP 
0000
0000
00c0
0180
0000
0380
0300
0300
0300
0600
0600
0600
cc00
7800
ENDCHAR
STARTCHAR U+0459
ENCODING 1113
SWIDTH 500 0
DWIDTH 7 0
BBX 11 14 -2 -2
BITMAP 
0000
0000
0000
0000
0000
0f00
1a00
1a00
1b00
3500
3500
6e00
0000
0000
ENDCHAR
STARTCHAR U+045A
ENCODING 1114
SWIDTH 500 0
DWIDTH 7 0
BBX 11 14 -2 -2
BITMAP 
0000
0000
0000
0000
0000
1a00
3400
3400
3e00
6b00
6b00
6e00
0000
0000
ENDCHAR
STARTCHAR U+045B
ENCODING 1115
SWIDTH 500 0
DWIDTH 7 0
BBX 11 14 -2 -2
BITMAP 
0000
0000
0000
0c00
0c00
1f00
1800
1a00
1d00
3300
3300
3300
0000
0000
ENDCHAR
STARTCHAR U+045C
ENCODING 1116
SWIDTH 500 0
DWIDTH 7 0
BBX 11 14 -2 -2
BITMAP 
0000
0000
03c0
0e00
0000
1bc0
3600
3400
3c00
6c00
6600
6300
0000
0000
ENDCHAR
STARTCHAR U+045E
ENCODING 1118
SWIDTH 500 0
DWIDTH 7 0
BBX 11 14 -2 -2
BITMAP 
0000
0000
06c0
0300
0000
1980
1980
1b00
1a00
1a00
0c00
1800
3000
e000
ENDCHAR
STARTCHAR U+045F
ENCODING 1119
SWIDTH 500 0
DWIDTH 7 0
BBX 11 14 -2 -2
BITMAP 
0000
0000
0000
0000
0000
1980
3300
3300
3300
6600
7e00
1800
3000
3000
ENDCHAR
STARTCHAR U+0460
ENCODING 1120
SWIDTH 500 0
DWIDTH 7 0
BBX 11 14 -2 -2
BITMAP 
0000
0000
0680
0d80
1980
1980
3300
3300
3500
6a00
6a00
3400
0000
0000
ENDCHAR
STARTCHAR U+0461
ENCODING 1121
SWIDTH 500 0
DWIDTH 7 0
BBX 11 14 -2 -2
BITMAP 
0000
0000
0000
0000
0000
0d00
1b00
3500
3500
6a00
6a00
3400
0000
0000
ENDCHAR
STARTCHAR U+0462
ENCODING 1122
SWIDTH 500 0
DWIDTH 7 0
BBX 11 14 -2 -2
BITMAP 
0000
0000
0600
3f00
0c00
0c00
1e00
1b00
1b00
3600
3600
3c00
0000
0000
ENDCHAR
STARTCHAR U+0463
ENCODING 1123
SWIDTH 500 0
DWIDTH 7 0
BBX 11 14 -2 -2
BITMAP 
0000
0000
0000
0c00
0c00
3f00
1800
1800
1c00
3600
3600
3c00
0000
0000
ENDCHAR
STARTCHAR U+0466
ENCODING 1126
SWIDTH 500 0
DWIDTH 7 0
BBX 11 14 -2 -2
BITMAP 
0000
0000
0300
0700
0d00
0d00
1a00
3500
3500
6a00
6a00
6a00
0000
0000
ENDCHAR
STARTCHAR U+0467
ENCODING 1127
SWIDTH 500 0
DWIDTH 7 0
BBX 11 14 -2 -2
BITMAP 
0000
0000
0000
0000
0000
0600
0e00
1a00
1e00
3a00
6a00
6a00
0000
0000
ENDCHAR
STARTCHAR U+046A
ENCODING 1130
SWIDTH 500 0
DWIDTH 7 0
BBX 11 14 -2 -2
BITMAP 
0000
0000
0fc0
1980
1980
0d00
0e00
1e00
3600
6a00
6a00
6a00
0000
0000
ENDCHAR
STARTCHAR U+046B
ENCODING 1131
SWIDTH 500 0
DWIDTH 7 0
BBX 11 14 -2 -2
BITMAP 
0000
0000
0000
0000
0000
0f00
1a00
1a00
1e00
3a00
6a00
6a00
0000
0000
ENDCHAR
STARTCHAR U+0470
ENCODING 1136
SWIDTH 500 0
DWIDTH 7 0
BBX 11 14 -2 -2
BITMAP 
0000
0000
0d40
1a80
1a80
1a80
3500
3500
1e00
1800
1800
1800
0000
0000
ENDCHAR
STARTCHAR U+0471
ENCODING 1137
SWIDTH 500 0
DWIDTH 7 0
BBX 11 14 -2 -2
BITMAP 
0000
0000
0000
0000
0000
1a80
3500
3500
3500
6a00
6a00
3c00
3000
3000
ENDCHAR
STARTCHAR U+047A
ENCODING 1146
SWIDTH 500 0
DWIDTH 7 0
BBX 11 14 -2 -2
BITMAP 
0000
0300
0780
0e80
1980
1980
3300
3300
3300
6600
6a00
3c00
3000
0000
ENDCHAR
STARTCHAR U+047B
ENCODING 1147
SWIDTH 500 0
DWIDTH 7 0
BBX 11 14 -2 -2
BITMAP 
0000
0000
0000
0000
0600
0f00
1d00
3300
3300
6600
6a00
3c00
3000
0000
ENDCHAR
STARTCHAR U+047C
ENCODING 1148
SWIDTH 500 0
DWIDTH 7 0
BBX 11 14 -2 -2
BITMAP 
00c0
0fc0
0c00
0000
0d00
1b00
3300
3300
3500
6a00
6a00
3400
0000
0000
ENDCHAR
STARTCHAR U+047D
ENCODING 1149
SWIDTH 500 0
DWIDTH 7 0
BBX 11 14 -2 -2
BITMAP 
0000
00c0
0fc0
1800
0000
0d00
1b00
3500
3500
6a00
6a00
3400
0000
0000
ENDCHAR
STARTCHAR U+047E
ENCODING 1150
SWIDTH 500 0
DWIDTH 7 0
BBX 11 14 -2 -2
BITMAP 
0fc0
0300
0000
0d00
1980
1980
3300
3300
3500
6a00
6a00
3400
0000
0000
ENDCHAR
STARTCHAR U+047F
ENCODING 1151
SWIDTH 500 0
DWIDTH 7 0
BBX 11 14 -2 -2
BITMAP 
0000
0000
0fc0
0600
0000
1980
3300
3500
3500
6a00
6a00
3400
0000
0000
ENDCHAR
STARTCHAR U+0482
ENCODING 1154
SWIDTH 500 0
DWIDTH 7 0
BBX 11 14 -2 -2
BITMAP 
0000
0000
0000
0000
0680
0700
3500
1800
3400
0000
0000
0000
0000
0000
ENDCHAR
STARTCHAR U+048C
ENCODING 1164
SWIDTH 500 0
DWIDTH 7 0
BBX 11 14 -2 -2
BITMAP 
0000
0000
0c00
3e00
1800
1800
3e00
3300
3300
6600
6600
7c00
0000
0000
ENDCHAR
STARTCHAR U+048D
ENCODING 1165
SWIDTH 500 0
DWIDTH 7 0
BBX 11 14 -2 -2
BITMAP 
0000
0000
0000
0000
0000
1800
7c00
3000
3c00
6600
6600
7c00
0000
0000
ENDCHAR
STARTCHAR U+0490
ENCODING 1168
SWIDTH 500 0
DWIDTH 7 0
BBX 11 14 -2 -2
BITMAP 
0000
0060
0060
1fc0
1800
1800
3000
3000
3000
6000
6000
6000
0000
0000
ENDCHAR
STARTCHAR U+0491
ENCODING 1169
SWIDTH 500 0
DWIDTH 7 0
BBX 11 14 -2 -2
BITMAP 
0000
0000
0000
00c0
00c0
1fc0
3000
3000
3000
6000
6000
6000
0000
0000
ENDCHAR
STARTCHAR U+04AD
ENCODING 1197
SWIDTH 500 0
DWIDTH 7 0
BBX 11 14 -2 -2
BITMAP 
0000
0000
0000
0000
0000
1f80
3500
0c00
0c00
1800
1800
1800
1800
1800
ENDCHAR
STARTCHAR U+04AE
ENCODING 1198
SWIDTH 500 0
DWIDTH 7 0
BBX 11 14 -2 -2
BITMAP 
0000
0000
0cc0
1980
1980
1b00
1a00
0c00
0c00
1800
1800
1800
0000
0000
ENDCHAR
STARTCHAR U+04AF
ENCODING 1199
SWIDTH 500 0
DWIDTH 7 0
BBX 11 14 -2 -2
BITMAP 
0000
0000
0000
0000
0000
1980
3300
3300
3600
3400
1800
1800
3000
3000
ENDCHAR
STARTCHAR U+04B0
ENCODING 1200
SWIDTH 500 0
DWIDTH 7 0
BBX 11 14 -2 -2
BITMAP 
0000
0000
0cc0
1980
1980
1b00
1a00
3f00
1800
1800
1800
1800
0000
0000
ENDCHAR
STARTCHAR U+04B1
ENCODING 1201
SWIDTH 500 0
DWIDTH 7 0
BBX 11 14 -2 -2
BITMAP 
0000
0000
0000
0000
0000
1980
3300
3300
3600
3400
7e00
3000
3000
3000
ENDCHAR
STARTCHAR U+04BB
ENCODING 1211
SWIDTH 500 0
DWIDTH 7 0
BBX 11 14 -2 -2
BITMAP 
0000
0000
0c00
1800
1800
1800
3600
3b00
3300
6600
6600
6600
0000
0000
ENDCHAR
STARTCHAR U+04C0
ENCODING 1216
SWIDTH 500 0
DWIDTH 7 0
BBX 11 14 -2 -2
BITMAP 
0000
0000
0780
0600
0600
0600
0c00
0c00
0c00
1800
1800
3c00
0000
0000
ENDCHAR
STARTCHAR U+04C1
ENCODING 1217
SWIDTH 500 0
DWIDTH 7 0
BBX 11 14 -2 -2
BITMAP 
0cc0
0780
0000
1a80
1a80
1a80
1d00
1e00
3600
6a00
6a00
6a00
0000
0000
ENDCHAR
STARTCHAR U+04C2
ENCODING 1218
SWIDTH 500 0
DWIDTH 7 0
BBX 11 14 -2 -2
BITMAP 
0000
0000
0dc0
0700
0000
1a80
3500
3500
1e00
3a00
6a00
6a00
0000
0000
ENDCHAR
STARTCHAR U+04D5
ENCODING 1237
SWIDTH 500 0
DWIDTH 7 0
BBX 11 14 -2 -2
BITMAP 
0000
0000
0000
0000
0000
1f80
3680
0680
1f80
3400
6c00
3f00
0000
0000
ENDCHAR
STARTCHAR U+04DC
ENCODING 1244
SWIDTH 500 0
DWIDTH 7 0
BBX 11 14 -2 -2
BITMAP 
0680
0680
0000
1a80
1a80
1a80
1d00
1e00
3600
6a00
6a00
6a00
0000
0000
ENDCHAR
STARTCHAR U+04DD
ENCODING 1245
SWIDTH 500 0
DWIDTH 7 0
BBX 11 14 -2 -2
BITMAP 
0000
0000
0680
0d00
0000
1a80
3500
3500
1e00
3a00
6a00
6a00
0000
0000
ENDCHAR
STARTCHAR U+0531
ENCODING 1329
SWIDTH 500 0
DWIDTH 7 0
BBX 11 14 -2 -2
BITMAP 
0000
0000
0000
1b00
1b00
1b00
3600
3600
3600
6c00
6f00
3b00
0000
0000
ENDCHAR
STARTCHAR U+0532
ENCODING 1330
SWIDTH 500 0
DWIDTH 7 0
BBX 11 14 -2 -2
BITMAP 
0000
0000
0000
0f80
18c0
18c0
3000
3f00
3180
6000
6000
6000
0000
0000
ENDCHAR
STARTCHAR U+0533
ENCODING 1331
SWIDTH 500 0
DWIDTH 7 0
BBX 11 14 -2 -2
BITMAP 
0000
0000
0000
0e00
1b00
1b00
1a00
0f00
0680
0c00
0c00
0c00
0000
0000
ENDCHAR
STARTCHAR U+0534
ENCODING 1332
SWIDTH 500 0
DWIDTH 7 0
BBX 11 14 -2 -2
BITMAP 
0000
0000
0000
0e00
1b00
1b00
0600
0700
0680
0c00
0c00
0c00
0000
0000
ENDCHAR
STARTCHAR U+0535
ENCODING 1333
SWIDTH 500 0
DWIDTH 7 0
BBX 11 14 -2 -2
BITMAP 
0000
0000
0000
1800
1800
1f00
3180
3000
3000
6300
6300
3e00
0000
0000
ENDCHAR
STARTCHAR U+0536
ENCODING 1334
SWIDTH 500 0
DWIDTH 7 0
BBX 11 14 -2 -2
BITMAP 
0000
0000
0000
0700
0d80
0d80
0d00
0700
0700
6c00
7e00
6300
0000
0000
ENDCHAR
STARTCHAR U+0537
ENCODING 1335
SWIDTH 500 0
DWIDTH 7 0
BBX 11 14 -2 -2
BITMAP 
0000
0000
0000
1800
1800
1800
3f00
3180
3000
6000
6000
3c00
0600
0000
ENDCHAR
STARTCHAR U+0538
ENCODING 1336
SWIDTH 500 0
DWIDTH 7 0
BBX 11 14 -2 -2
BITMAP 
0000
0000
0000
0f00
1980
1980
3000
3000
3000
6000
6000
7c00
0600
0000
ENDCHAR
STARTCHAR U+0539
ENCODING 1337
SWIDTH 500 0
DWIDTH 7 0
BBX 11 14 -2 -2
BITMAP 
0000
0000
0000
0f00
1980
1980
3780
3500
3600
6c00
6000
6000
0000
0000
ENDCHAR
STARTCHAR U+053A
ENCODING 1338
SWIDTH 500 0
DWIDTH 7 0
BBX 11 14 -2 -2
BITMAP 
0000
0000
0000
0180
0180
0180
0300
1f80
3300
6600
6600
3c00
0000
0000
ENDCHAR
STARTCHAR U+053B
ENCODING 1339
SWIDTH 500 0
DWIDTH 7 0
BBX 11 14 -2 -2
BITMAP 
0000
0000
0000
1800
1800
1800
3f00
3180
3180
6000
6000
6000
0000
0000
ENDCHAR
STARTCHAR U+053C
ENCODING 1340
SWIDTH 500 0
DWIDTH 7 0
BBX 11 14 -2 -2
BITMAP 
0000
0000
0000
1800
1800
1800
3000
3000
3000
6000
6000
3c00
0600
0000
ENDCHAR
STARTCHAR U+053D
ENCODING 1341
SWIDTH 500 0
DWIDTH 7 0
BBX 11 14 -2 -2
BITMAP 
0000
0000
0000
1800
1800
1ec0
3580
3580
3700
6000
6000
6000
0000
0000
ENDCHAR
STARTCHAR U+053E
ENCODING 1342
SWIDTH 500 0
DWIDTH 7 0
BBX 11 14 -2 -2
BITMAP 
0000
0000
0000
1fc0
0f80
1980
3180
3180
3180
6300
6300
3e00
0000
0000
ENDCHAR
STARTCHAR U+053F
ENCODING 1343
SWIDTH 500 0
DWIDTH 7 0
BBX 11 14 -2 -2
BITMAP 
0000
0000
0000
18c0
18c0
18c0
3180
3180
3180
1f00
0300
0300
0000
0000
ENDCHAR
STARTCHAR U+0540
ENCODING 1344
SWIDTH 500 0
DWIDTH 7 0
BBX 11 14 -2 -2
BITMAP 
0000
0000
0000
0300
0600
0700
0c00
1800
3000
7000
1c00
0700
0000
0000
ENDCHAR
STARTCHAR U+0541
ENCODING 1345
SWIDTH 500 0
DWIDTH 7 0
BBX 11 14 -2 -2
BITMAP 
0000
0000
0000
0700
0d80
0d80
0d00
0700
0700
3c00
6c00
3a00
0000
0000
ENDCHAR
STARTCHAR U+0542
ENCODING 1346
SWIDTH 500 0
DWIDTH 7 0
BBX 11 14 -2 -2
BITMAP 
0000
0000
0000
0e00
1b00
1b00
0600
0600
0600
0c00
0c00
0e00
0600
0000
ENDCHAR
STARTCHAR U+0543
ENCODING 1347
SWIDTH 500 0
DWIDTH 7 0
BBX 11 14 -2 -2
BITMAP 
0000
0000
0000
0180
0180
1f00
0e00
1b00
1b00
3600
3600
7f00
0000
0000
ENDCHAR
STARTCHAR U+0544
ENCODING 1348
SWIDTH 500 0
DWIDTH 7 0
BBX 11 14 -2 -2
BITMAP 
0000
0000
0000
1bc0
1b40
1b00
3600
3600
3600
6c00
6c00
3800
0000
0000
ENDCHAR
STARTCHAR U+0545
ENCODING 1349
SWIDTH 500 0
DWIDTH 7 0
BBX 11 14 -2 -2
BITMAP 
0000
0000
0000
0f80
18c0
18c0
0d80
0e00
0d00
6300
6300
3e00
0000
0000
ENDCHAR
STARTCHAR U+0546
ENCODING 1350
SWIDTH 500 0
DWIDTH 7 0
BBX 11 14 -2 -2
BITMAP 
0000
0000
0000
0c00
1800
1800
1800
1800
1800
3000
3300
1e00
0000
0000
ENDCHAR
STARTCHAR U+0547
ENCODING 1351
SWIDTH 500 0
DWIDTH 7 0
BBX 11 14 -2 -2
BITMAP 
0000
0000
0000
00c0
1f80
0c00
1800
3180
3180
6300
6300
3e00
0000
0000
ENDCHAR
STARTCHAR U+0548
ENCODING 1352
SWIDTH 500 0
DWIDTH 7 0
BBX 11 14 -2 -2
BITMAP 
0000
0000
0000
0f80
18c0
18c0
3180
3180
3180
6300
6300
6300
0000
0000
ENDCHAR
STARTCHAR U+0549
ENCODING 1353
SWIDTH 500 0
DWIDTH 7 0
BBX 11 14 -2 -2
BITMAP 
0000
0000
0000
0700
0d80
0d80
0d00
0700
0300
0600
7c00
0f00
0000
0000
ENDCHAR
STARTCHAR U+054A
ENCODING 1354
SWIDTH 500 0
DWIDTH 7 0
BBX 11 14 -2 -2
BITMAP 
0000
0000
0000
0f00
1a80
1a80
3500
0d00
0d00
0600
0600
0600
0000
0000
ENDCHAR
STARTCHAR U+054B
ENCODING 1355
SWIDTH 500 0
DWIDTH 7 0
BBX 11 14 -2 -2
BITMAP 
0000
0000
0000
0f00
1980
1980
1b00
0d00
0600
6c00
7e00
6300
0000
0000
ENDCHAR
STARTCHAR U+054C
ENCODING 1356
SWIDTH 500 0
DWIDTH 7 0
BBX 11 14 -2 -2
BITMAP 
0000
0000
0000
0e00
1b00
1b00
3780
3680
3600
6c00
6c00
6c00
0000
0000
ENDCHAR
STARTCHAR U+054D
ENCODING 1357
SWIDTH 500 0
DWIDTH 7 0
BBX 11 14 -2 -2
BITMAP 
0000
0000
0000
18c0
18c0
18c0
3180
3180
3180
6300
6300
3e00
0000
0000
ENDCHAR
STARTCHAR U+054E
ENCODING 1358
SWIDTH 500 0
DWIDTH 7 0
BBX 11 14 -2 -2
BITMAP 
0000
0000
0000
1b00
1b00
1b00
3600
3600
3600
1c00
0c00
0e00
0600
0000
ENDCHAR
STARTCHAR U+054F
ENCODING 1359
SWIDTH 500 0
DWIDTH 7 0
BBX 11 14 -2 -2
BITMAP 
0000
0000
0000
0f80
18c0
1800
0c00
0600
0300
6300
6300
3e00
0000
0000
ENDCHAR
STARTCHAR U+0550
ENCODING 1360
SWIDTH 500 0
DWIDTH 7 0
BBX 11 14 -2 -2
BITMAP 
0000
0000
0000
0f80
18c0
18c0
3000
3000
3000
6000
6000
6000
0000
0000
ENDCHAR
STARTCHAR U+0551
ENCODING 1361
SWIDTH 500 0
DWIDTH 7 0
BBX 11 14 -2 -2
BITMAP 
0000
0000
0000
0f80
18c0
1980
1f00
3180
0180
0300
6300
3e00
0000
0000
ENDCHAR
STARTCHAR U+0552
ENCODING 1362
SWIDTH 500 0
DWIDTH 7 0
BBX 11 14 -2 -2
BITMAP 
0000
0000
0000
1800
1800
1800
3e00
3300
3300
6300
6000
6000
0000
0000
ENDCHAR
STARTCHAR U+0553
ENCODING 1363
SWIDTH 500 0
DWIDTH 7 0
BBX 11 14 -2 -2
BITMAP 
0000
0000
0000
0600
0f00
1b00
3500
3500
3600
3c00
1800
0000
0000
0000
ENDCHAR
STARTCHAR U+0554
ENCODING 1364
SWIDTH 500 0
DWIDTH 7 0
BBX 11 14 -2 -2
BITMAP 
0000
0000
0000
0380
06c0
0780
3580
3f00
0d00
1800
1800
1800
0000
0000
ENDCHAR
STARTCHAR U+0555
ENCODING 1365
SWIDTH 500 0
DWIDTH 7 0
BBX 11 14 -2 -2
BITMAP 
0000
0000
0000
0f80
18c0
18c0
3180
3180
3180
6300
6300
3e00
0000
0000
ENDCHAR
STARTCHAR U+0556
ENCODING 1366
SWIDTH 500 0
DWIDTH 7 0
BBX 11 14 -2 -2
BITMAP 
0000
0000
0000
0f00
1b00
1b00
0f00
0680
0680
6d00
6d00
3e00
0000
0000
ENDCHAR
STARTCHAR U+0559
ENCODING 1369
SWIDTH 500 0
DWIDTH 7 0
BBX 11 14 -2 -2
BITMAP 
0c00
1800
0c00
0000
0000
0000
0000
0000
0000
0000
0000
0000
0000
0000
ENDCHAR
STARTCHAR U+055A
ENCODING 1370
SWIDTH 500 0
DWIDTH 7 0
BBX 11 14 -2 -2
BITMAP 
1800
0c00
1800
0000
0000
0000
0000
0000
0000
0000
0000
0000
0000
0000
ENDCHAR
STARTCHAR U+055B
ENCODING 1371
SWIDTH 500 0
DWIDTH 7 0
BBX 11 14 -2 -2
BITMAP 
0000
0300
0700
0c00
0000
0000
0000
0000
0000
0000
0000
0000
0000
0000
ENDCHAR
STARTCHAR U+055C
ENCODING 1372
SWIDTH 500 0
DWIDTH 7 0
BBX 11 14 -2 -2
BITMAP 
0000
01c0
0700
0000
0000
0000
0000
0000
0000
0000
0000
0000
0000
0000
ENDCHAR
STARTCHAR U+055D
ENCODING 1373
SWIDTH 500 0
DWIDTH 7 0
BBX 11 14 -2 -2
BITMAP 
0000
0300
0300
0300
0000
0000
0000
0000
0000
0000
0000
0000
0000
0000
ENDCHAR
STARTCHAR U+055E
ENCODING 1374
SWIDTH 500 0
DWIDTH 7 0
BBX 11 14 -2 -2
BITMAP 
0780
0d40
0d80
0000
0000
0000
0000
0000
0000
0000
0000
0000
0000
0000
ENDCHAR
STARTCHAR U+055F
ENCODING 1375
SWIDTH 500 0
DWIDTH 7 0
BBX 11 14 -2 -2
BITMAP 
0700
0d00
07c0
0000
0000
0000
0000
0000
0000
0000
0000
0000
0000
0000
ENDCHAR
STARTCHAR U+0561
ENCODING 1377
SWIDTH 500 0
DWIDTH 7 0
BBX 11 14 -2 -2
BITMAP 
0000
0000
0000
0000
0000
1980
3500
3500
3500
6a00
6a00
3400
0000
0000
ENDCHAR
STARTCHAR U+0562
ENCODING 1378
SWIDTH 500 0
DWIDTH 7 0
BBX 11 14 -2 -2
BITMAP 
0000
0000
0000
0000
0000
0000
1e00
3300
3300
6000
6000
7e00
c000
c000
ENDCHAR
STARTCHAR U+0563
ENCODING 1379
SWIDTH 500 0
DWIDTH 7 0
BBX 11 14 -2 -2
BITMAP 
0000
0000
0000
0000
0000
0000
1e00
3600
3600
6c00
6c00
3f00
1800
1800
ENDCHAR
STARTCHAR U+0564
ENCODING 1380
SWIDTH 500 0
DWIDTH 7 0
BBX 11 14 -2 -2
BITMAP 
0000
0000
0000
0000
0000
1e00
3a00
3600
3600
6c00
6c00
6f00
1800
1800
ENDCHAR
STARTCHAR U+0565
ENCODING 1381
SWIDTH 500 0
DWIDTH 7 0
BBX 11 14 -2 -2
BITMAP 
0000
0000
0000
1800
1800
1800
3f00
3000
3300
6600
7600
6e00
0000
0000
ENDCHAR
STARTCHAR U+0566
ENCODING 1382
SWIDTH 500 0
DWIDTH 7 0
BBX 11 14 -2 -2
BITMAP 
0000
0000
0000
0000
0000
0000
1e00
3600
3600
6c00
6c00
3c00
1800
1e00
ENDCHAR
STARTCHAR U+0567
ENCODING 1383
SWIDTH 500 0
DWIDTH 7 0
BBX 11 14 -2 -2
BITMAP 
0000
0000
0000
1800
1800
1f80
3000
3000
3000
6000
6000
3800
0c00
0000
ENDCHAR
STARTCHAR U+0568
ENCODING 1384
SWIDTH 500 0
DWIDTH 7 0
BBX 11 14 -2 -2
BITMAP 
0000
0000
0000
0000
0000
1f00
3980
3180
3180
6300
6300
6300
c000
fe00
ENDCHAR
STARTCHAR U+0569
ENCODING 1385
SWIDTH 500 0
DWIDTH 7 0
BBX 11 14 -2 -2
BITMAP 
0000
0000
0000
0000
0000
1e00
3b00
3300
3300
6f00
7600
6c00
c000
c000
ENDCHAR
STARTCHAR U+056A
ENCODING 1386
SWIDTH 500 0
DWIDTH 7 0
BBX 11 14 -2 -2
BITMAP 
0000
0000
0000
0180
0180
0180
1f80
3300
3300
6600
6600
3c00
0000
0000
ENDCHAR
STARTCHAR U+056B
ENCODING 1387
SWIDTH 500 0
DWIDTH 7 0
BBX 11 14 -2 -2
BITMAP 
0000
0000
0000
1800
1800
1800
3600
3b00
3300
6600
6600
6600
c000
c000
ENDCHAR
STARTCHAR U+056C
ENCODING 1388
SWIDTH 500 0
DWIDTH 7 0
BBX 11 14 -2 -2
BITMAP 
0000
0000
0000
0000
0000
1800
3000
3000
3000
6000
6000
6000
c000
fe00
ENDCHAR
STARTCHAR U+056D
ENCODING 1389
SWIDTH 500 0
DWIDTH 7 0
BBX 11 14 -2 -2
BITMAP 
0000
0000
0000
1800
1800
1800
3d80
3580
3580
6b00
6b00
6e00
c000
c000
ENDCHAR
STARTCHAR U+056E
ENCODING 1390
SWIDTH 500 0
DWIDTH 7 0
BBX 11 14 -2 -2
BITMAP 
0000
0000
0000
0000
1800
0c00
0c00
1f80
3600
6600
6600
3c00
0000
0000
ENDCHAR
STARTCHAR U+056F
ENCODING 1391
SWIDTH 500 0
DWIDTH 7 0
BBX 11 14 -2 -2
BITMAP 
0000
0000
0000
1800
1800
1800
3000
3300
3300
6600
6600
3e00
0c00
0c00
ENDCHAR
STARTCHAR U+0570
ENCODING 1392
SWIDTH 500 0
DWIDTH 7 0
BBX 11 14 -2 -2
BITMAP 
0000
0000
0000
1800
1800
1800
3600
3b00
3300
6600
6600
6600
0000
0000
ENDCHAR
STARTCHAR U+0571
ENCODING 1393
SWIDTH 500 0
DWIDTH 7 0
BBX 11 14 -2 -2
BITMAP 
0000
0000
0000
0600
0c00
0600
1f00
3300
3300
6600
6600
3e00
0000
0000
ENDCHAR
STARTCHAR U+0572
ENCODING 1394
SWIDTH 500 0
DWIDTH 7 0
BBX 11 14 -2 -2
BITMAP 
0000
0000
0000
0000
0000
1e00
3a00
3600
3600
6c00
6c00
6c00
1800
1e00
ENDCHAR
STARTCHAR U+0573
ENCODING 1395
SWIDTH 500 0
DWIDTH 7 0
BBX 11 14 -2 -2
BITMAP 
0000
0000
0000
0780
0cc0
0c00
3f80
1980
1980
3300
3700
1d00
0000
0000
ENDCHAR
STARTCHAR U+0574
ENCODING 1396
SWIDTH 500 0
DWIDTH 7 0
BBX 11 14 -2 -2
BITMAP 
0000
0000
0000
01c0
0300
0300
3600
3600
3600
6c00
6c00
3400
0000
0000
ENDCHAR
STARTCHAR U+0575
ENCODING 1397
SWIDTH 500 0
DWIDTH 7 0
BBX 11 14 -2 -2
BITMAP 
0000
0000
0000
0000
0000
0380
0300
0300
0300
0600
0600
6600
6c00
3800
ENDCHAR
STARTCHAR U+0576
ENCODING 1398
SWIDTH 500 0
DWIDTH 7 0
BBX 11 14 -2 -2
BITMAP 
0000
0000
0000
0f00
1980
1800
3300
3300
3300
6600
6e00
3a00
0000
0000
ENDCHAR
STARTCHAR U+0577
ENCODING 1399
SWIDTH 500 0
DWIDTH 7 0
BBX 11 14 -2 -2
BITMAP 
0000
0000
0000
0e00
1b00
0600
0600
0c00
1800
1800
3000
3f00
0000
0000
ENDCHAR
STARTCHAR U+0578
ENCODING 1400
SWIDTH 500 0
DWIDTH 7 0
BBX 11 14 -2 -2
BITMAP 
0000
0000
0000
0000
0000
1f00
3980
3180
3180
6300
6300
6300
0000
0000
ENDCHAR
STARTCHAR U+0579
ENCODING 1401
SWIDTH 500 0
DWIDTH 7 0
BBX 11 14 -2 -2
BITMAP 
0000
0000
0000
0300
0600
0600
0600
0c00
1800
1800
3000
3f00
0000
0000
ENDCHAR
STARTCHAR U+057A
ENCODING 1402
SWIDTH 500 0
DWIDTH 7 0
BBX 11 14 -2 -2
BITMAP 
0000
0000
0000
0000
0000
1980
3500
3500
3500
6a00
6a00
3600
0c00
0c00
ENDCHAR
STARTCHAR U+057B
ENCODING 1403
SWIDTH 500 0
DWIDTH 7 0
BBX 11 14 -2 -2
BITMAP 
0000
0000
0000
0e00
1b00
1a00
1a00
0c00
0c00
1800
3000
3f00
0000
0000
ENDCHAR
STARTCHAR U+057C
ENCODING 1404
SWIDTH 500 0
DWIDTH 7 0
BBX 11 14 -2 -2
BITMAP 
0000
0000
0000
0000
0000
1e00
3a00
3600
3600
6c00
6c00
6f00
0000
0000
ENDCHAR
STARTCHAR U+057D
ENCODING 1405
SWIDTH 500 0
DWIDTH 7 0
BBX 11 14 -2 -2
BITMAP 
0000
0000
0000
0000
0000
1980
3300
3300
3300
6600
6e00
3a00
0000
0000
ENDCHAR
STARTCHAR U+057E
ENCODING 1406
SWIDTH 500 0
DWIDTH 7 0
BBX 11 14 -2 -2
BITMAP 
0000
0000
0000
0300
0300
0300
3600
3600
3600
6c00
6c00
3c00
1800
1e00
ENDCHAR
STARTCHAR U+057F
ENCODING 1407
SWIDTH 500 0
DWIDTH 7 0
BBX 11 14 -2 -2
BITMAP 
0000
0000
0000
0000
0000
1b00
3780
3680
3680
6d00
6d00
3500
0000
0000
ENDCHAR
STARTCHAR U+0580
ENCODING 1408
SWIDTH 500 0
DWIDTH 7 0
BBX 11 14 -2 -2
BITMAP 
0000
0000
0000
0000
0000
1f00
3980
3180
3180
6300
6300
6300
c000
c000
ENDCHAR
STARTCHAR U+0581
ENCODING 1409
SWIDTH 500 0
DWIDTH 7 0
BBX 11 14 -2 -2
BITMAP 
0000
0000
0000
0000
0000
0f00
1980
3180
3180
3300
1f00
0300
c600
7c00
ENDCHAR
STARTCHAR U+0582
ENCODING 1410
SWIDTH 500 0
DWIDTH 7 0
BBX 11 14 -2 -2
BITMAP 
0000
0000
0000
0000
0000
1c00
1800
1800
1800
3000
3000
3c00
0000
0000
ENDCHAR
STARTCHAR U+0583
ENCODING 1411
SWIDTH 500 0
DWIDTH 7 0
BBX 11 14 -2 -2
BITMAP 
0000
0000
0000
0300
0300
0300
3600
3780
3680
6d00
6d00
3500
1800
1800
ENDCHAR
STARTCHAR U+0584
ENCODING 1412
SWIDTH 500 0
DWIDTH 7 0
BBX 11 14 -2 -2
BITMAP 
0000
0000
0000
0380
0600
0600
3f00
0c00
0c00
1800
1800
1800
0000
0000
ENDCHAR
STARTCHAR U+0585
ENCODING 1413
SWIDTH 500 0
DWIDTH 7 0
BBX 11 14 -2 -2
BITMAP 
0000
0000
0000
0000
0000
0f00
1980
3180
3180
6300
6300
3e00
0000
0000
ENDCHAR
STARTCHAR U+0586
ENCODING 1414
SWIDTH 500 0
DWIDTH 7 0
BBX 11 14 -2 -2
BITMAP 
0000
0000
0000
0f00
1b00
1b00
0f00
0680
0680
6d00
6d00
3e00
1800
1800
ENDCHAR
STARTCHAR U+0587
ENCODING 1415
SWIDTH 500 0
DWIDTH 7 0
BBX 11 14 -2 -2
BITMAP 
0000
0000
0000
1800
1800
1800
3600
3600
3600
6c00
6c00
3b00
0000
0000
ENDCHAR
STARTCHAR U+0589
ENCODING 1417
SWIDTH 500 0
DWIDTH 7 0
BBX 11 14 -2 -2
BITMAP 
0000
0000
0000
0000
0000
0700
0e00
0000
0000
0000
1c00
1c00
0000
0000
ENDCHAR
STARTCHAR U+058A
ENCODING 1418
SWIDTH 500 0
DWIDTH 7 0
BBX 11 14 -2 -2
BITMAP 
0000
0000
0000
0000
0000
0000
0000
3800
3700
1c00
0000
0000
0000
0000
ENDCHAR
STARTCHAR U+05BE
ENCODING 1470
SWIDTH 500 0
DWIDTH 7 0
BBX 11 14 -2 -2
BITMAP 
0000
07c0
0f80
0000
0000
0000
0000
0000
0000
0000
0000
0000
0000
0000
ENDCHAR
STARTCHAR U+05C0
ENCODING 1472
SWIDTH 500 0
DWIDTH 7 0
BBX 11 14 -2 -2
BITMAP 
0000
0000
0000
0000
0000
0600
0c00
0c00
0c00
1800
1800
1800
0000
0000
ENDCHAR
STARTCHAR U+05C3
ENCODING 1475
SWIDTH 500 0
DWIDTH 7 0
BBX 11 14 -2 -2
BITMAP 
0000
0000
0000
0000
0000
0600
0c00
0000
0000
1800
1800
0000
0000
0000
ENDCHAR
STARTCHAR U+05D0
ENCODING 1488
SWIDTH 500 0
DWIDTH 7 0
BBX 11 14 -2 -2
BITMAP 
0000
0000
0000
0000
18c0
18c0
1980
0d00
1a00
3600
6300
6300
0000
0000
ENDCHAR
STARTCHAR U+05D1
ENCODING 1489
SWIDTH 500 0
DWIDTH 7 0
BBX 11 14 -2 -2
BITMAP 
0000
0000
0000
0000
1f80
0180
0300
0300
0300
0600
0600
7f00
0000
0000
ENDCHAR
STARTCHAR U+05D2
ENCODING 1490
SWIDTH 500 0
DWIDTH 7 0
BBX 11 14 -2 -2
BITMAP 
0000
0000
0000
0000
0c00
0600
0600
0300
0f00
1a00
3300
6300
0000
0000
ENDCHAR
STARTCHAR U+05D3
ENCODING 1491
SWIDTH 500 0
DWIDTH 7 0
BBX 11 14 -2 -2
BITMAP 
0000
0000
0000
0000
1fc0
0180
0300
0300
0300
0600
0600
0600
0000
0000
ENDCHAR
STARTCHAR U+05D4
ENCODING 1492
SWIDTH 500 0
DWIDTH 7 0
BBX 11 14 -2 -2
BITMAP 
0000
0000
0000
0000
1fc0
00c0
0180
1980
1980
3300
3300
3300
0000
0000
ENDCHAR
STARTCHAR U+05D5
ENCODING 1493
SWIDTH 500 0
DWIDTH 7 0
BBX 11 14 -2 -2
BITMAP 
0000
0000
0000
0000
0f00
0300
0600
0600
0600
0c00
0c00
0c00
0000
0000
ENDCHAR
STARTCHAR U+05D6
ENCODING 1494
SWIDTH 500 0
DWIDTH 7 0
BBX 11 14 -2 -2
BITMAP 
0000
0000
0000
0000
0e00
0780
0680
0600
0600
0c00
0c00
0c00
0000
0000
ENDCHAR
STARTCHAR U+05D7
ENCODING 1495
SWIDTH 500 0
DWIDTH 7 0
BBX 11 14 -2 -2
BITMAP 
0000
0000
0000
0000
1fc0
0cc0
1980
1980
1980
3300
3300
3300
0000
0000
ENDCHAR
STARTCHAR U+05D8
ENCODING 1496
SWIDTH 500 0
DWIDTH 7 0
BBX 11 14 -2 -2
BITMAP 
0000
0000
0000
0000
19c0
1b40
3180
3180
3180
6300
6300
7f00
0000
0000
ENDCHAR
STARTCHAR U+05D9
ENCODING 1497
SWIDTH 500 0
DWIDTH 7 0
BBX 11 14 -2 -2
BITMAP 
0000
0000
0000
0000
0f00
0300
0600
0600
0000
0000
0000
0000
0000
0000
ENDCHAR
STARTCHAR U+05DA
ENCODING 1498
SWIDTH 500 0
DWIDTH 7 0
BBX 11 14 -2 -2
BITMAP 
0000
0000
0000
0000
1fc0
00c0
0180
0180
0180
0300
0300
0300
0600
0600
ENDCHAR
STARTCHAR U+05DB
ENCODING 1499
SWIDTH 500 0
DWIDTH 7 0
BBX 11 14 -2 -2
BITMAP 
0000
0000
0000
0000
1fc0
00c0
0180
0180
0180
0300
0300
7e00
0000
0000
ENDCHAR
STARTCHAR U+05DC
ENCODING 1500
SWIDTH 500 0
DWIDTH 7 0
BBX 11 14 -2 -2
BITMAP 
0000
0000
0600
0c00
0fc0
00c0
0180
0180
0300
0600
0c00
3800
0000
0000
ENDCHAR
STARTCHAR U+05DD
ENCODING 1501
SWIDTH 500 0
DWIDTH 7 0
BBX 11 14 -2 -2
BITMAP 
0000
0000
0000
0000
1fc0
0cc0
1980
1980
1980
3300
3300
3f00
0000
0000
ENDCHAR
STARTCHAR U+05DE
ENCODING 1502
SWIDTH 500 0
DWIDTH 7 0
BBX 11 14 -2 -2
BITMAP 
0000
0000
0000
0000
1b00
1f00
1b00
1b00
3300
3300
6300
6f00
0000
0000
ENDCHAR
STARTCHAR U+05DF
ENCODING 1503
SWIDTH 500 0
DWIDTH 7 0
BBX 11 14 -2 -2
BITMAP 
0000
0000
0000
0000
0f00
0300
0600
0600
0600
0c00
0c00
0c00
1800
1800
ENDCHAR
STARTCHAR U+05E0
ENCODING 1504
SWIDTH 500 0
DWIDTH 7 0
BBX 11 14 -2 -2
BITMAP 
0000
0000
0000
0000
0780
0180
0300
0300
0300
0600
0600
3e00
0000
0000
ENDCHAR
STARTCHAR U+05E1
ENCODING 1505
SWIDTH 500 0
DWIDTH 7 0
BBX 11 14 -2 -2
BITMAP 
0000
0000
0000
0000
1fc0
18c0
3180
3180
3180
6300
6600
7c00
0000
0000
ENDCHAR
STARTCHAR U+05E2
ENCODING 1506
SWIDTH 500 0
DWIDTH 7 0
BBX 11 14 -2 -2
BITMAP 
0000
0000
0000
0000
06c0
06c0
0d80
0d80
0d80
1b00
1b00
7f00
0000
0000
ENDCHAR
STARTCHAR U+05E3
ENCODING 1507
SWIDTH 500 0
DWIDTH 7 0
BBX 11 14 -2 -2
BITMAP 
0000
0000
0000
0000
1fc0
18c0
3180
3180
3d80
0300
0300
0300
0600
0600
ENDCHAR
STARTCHAR U+05E4
ENCODING 1508
SWIDTH 500 0
DWIDTH 7 0
BBX 11 14 -2 -2
BITMAP 
0000
0000
0000
0000
1fc0
18c0
3180
3180
3d80
0300
0300
7f00
0000
0000
ENDCHAR
STARTCHAR U+05E5
ENCODING 1509
SWIDTH 500 0
DWIDTH 7 0
BBX 11 14 -2 -2
BITMAP 
0000
0000
0000
0000
0d80
0d00
1b00
1a00
1c00
3000
3000
3000
6000
6000
ENDCHAR
STARTCHAR U+05E6
ENCODING 1510
SWIDTH 500 0
DWIDTH 7 0
BBX 11 14 -2 -2
BITMAP 
0000
0000
0000
0000
18c0
1980
1b00
0e00
0600
0600
0300
7f00
0000
0000
ENDCHAR
STARTCHAR U+05E7
ENCODING 1511
SWIDTH 500 0
DWIDTH 7 0
BBX 11 14 -2 -2
BITMAP 
0000
0000
0000
0000
1fc0
0d80
1980
1b00
1a00
3400
3000
3000
6000
6000
ENDCHAR
STARTCHAR U+05E8
ENCODING 1512
SWIDTH 500 0
DWIDTH 7 0
BBX 11 14 -2 -2
BITMAP 
0000
0000
0000
0000
1fc0
00c0
0180
0180
0180
0300
0300
0300
0000
0000
ENDCHAR
STARTCHAR U+05E9
ENCODING 1513
SWIDTH 500 0
DWIDTH 7 0
BBX 11 14 -2 -2
BITMAP 
0000
0000
0000
0000
1a80
1a80
3500
3500
3500
6a00
6a00
7e00
0000
0000
ENDCHAR
STARTCHAR U+05EA
ENCODING 1514
SWIDTH 500 0
DWIDTH 7 0
BBX 11 14 -2 -2
BITMAP 
0000
0000
0000
0000
0fc0
0cc0
1980
1980
1980
3300
3300
7300
0000
0000
ENDCHAR
STARTCHAR U+05F0
ENCODING 1520
SWIDTH 500 0
DWIDTH 7 0
BBX 11 14 -2 -2
BITMAP 
0000
0000
0000
0000
0000
1d80
1b00
1b00
1b00
3600
3600
3600
0000
0000
ENDCHAR
STARTCHAR U+05F1
ENCODING 1521
SWIDTH 500 0
DWIDTH 7 0
BBX 11 14 -2 -2
BITMAP 
0000
0000
0000
0000
0000
1d80
1b00
1b00
0300
0600
0600
0600
0000
0000
ENDCHAR
STARTCHAR U+05F2
ENCODING 1522
SWIDTH 500 0
DWIDTH 7 0
BBX 11 14 -2 -2
BITMAP 
0000
0000
0000
0000
0000
1d80
1b00
1b00
0000
0000
0000
0000
0000
0000
ENDCHAR
STARTCHAR U+05F3
ENCODING 1523
SWIDTH 500 0
DWIDTH 7 0
BBX 11 14 -2 -2
BITMAP 
0000
0000
0000
0000
0000
0e00
1800
0000
0000
0000
0000
0000
0000
0000
ENDCHAR
STARTCHAR U+05F4
ENCODING 1524
SWIDTH 500 0
DWIDTH 7 0
BBX 11 14 -2 -2
BITMAP 
0000
0000
0000
0000
0000
1d80
3600
0000
0000
0000
0000
0000
0000
0000
ENDCHAR
STARTCHAR U+0E01
ENCODING 3585
SWIDTH 500 0
DWIDTH 7 0
BBX 11 14 -2 -2
BITMAP 
0000
0000
0000
0000
0000
0e00
1b00
3b00
1b00
3600
3600
3600
0000
0000
ENDCHAR
STARTCHAR U+0E02
ENCODING 3586
SWIDTH 500 0
DWIDTH 7 0
BBX 11 14 -2 -2
BITMAP 
0000
0000
0000
0000
0000
0e80
1d00
0d00
1b00
3600
3600
1c00
0000
0000
ENDCHAR
STARTCHAR U+0E03
ENCODING 3587
SWIDTH 500 0
DWIDTH 7 0
BBX 11 14 -2 -2
BITMAP 
0000
0000
0000
0000
0000
1a80
3d00
0d00
1b00
3600
3600
1c00
0000
0000
ENDCHAR
STARTCHAR U+0E04
ENCODING 3588
SWIDTH 500 0
DWIDTH 7 0
BBX 11 14 -2 -2
BITMAP 
0000
0000
0000
0000
0000
0e00
1b00
3300
3d00
7a00
7600
3600
0000
0000
ENDCHAR
STARTCHAR U+0E05
ENCODING 3589
SWIDTH 500 0
DWIDTH 7 0
BBX 11 14 -2 -2
BITMAP 
0000
0000
0000
0000
0000
0f00
1d00
3300
3d00
7a00
7600
3600
0000
0000
ENDCHAR
STARTCHAR U+0E06
ENCODING 3590
SWIDTH 500 0
DWIDTH 7 0
BBX 11 14 -2 -2
BITMAP 
0000
0000
0000
0000
0000
1a80
3d00
0d00
1b00
3600
7a00
7400
0000
0000
ENDCHAR
STARTCHAR U+0E07
ENCODING 3591
SWIDTH 500 0
DWIDTH 7 0
BBX 11 14 -2 -2
BITMAP 
0000
0000
0000
0000
0000
0700
0e00
0600
0600
6c00
3400
1c00
0000
0000
ENDCHAR
STARTCHAR U+0E08
ENCODING 3592
SWIDTH 500 0
DWIDTH 7 0
BBX 11 14 -2 -2
BITMAP 
0000
0000
0000
0000
0000
1e00
3300
0300
1d00
3a00
1a00
1c00
0000
0000
ENDCHAR
STARTCHAR U+0E09
ENCODING 3593
SWIDTH 500 0
DWIDTH 7 0
BBX 11 14 -2 -2
BITMAP 
0000
0000
0000
0000
0000
1e00
3300
0300
3b00
7600
3700
3b00
0000
0000
ENDCHAR
STARTCHAR U+0E0A
ENCODING 3594
SWIDTH 500 0
DWIDTH 7 0
BBX 11 14 -2 -2
BITMAP 
0000
0000
0000
0300
0300
1e00
3c00
1a00
3600
6c00
6c00
3800
0000
0000
ENDCHAR
STARTCHAR U+0E0B
ENCODING 3595
SWIDTH 500 0
DWIDTH 7 0
BBX 11 14 -2 -2
BITMAP 
0000
0000
0000
0180
0180
1b00
3e00
0d00
1b00
3600
3600
1c00
0000
0000
ENDCHAR
STARTCHAR U+0E0C
ENCODING 3596
SWIDTH 500 0
DWIDTH 7 0
BBX 11 14 -2 -2
BITMAP 
0000
0000
0000
0000
0000
1cc0
3680
1a80
3680
6d00
7f00
7500
0000
0000
ENDCHAR
STARTCHAR U+0E0D
ENCODING 3597
SWIDTH 500 0
DWIDTH 7 0
BBX 11 14 -2 -2
BITMAP 
0000
0000
0000
0000
0000
1cc0
3680
1a80
3680
6d00
7700
7400
1e00
0000
ENDCHAR
STARTCHAR U+0E0E
ENCODING 3598
SWIDTH 500 0
DWIDTH 7 0
BBX 11 14 -2 -2
BITMAP 
0000
0000
0000
0000
0000
1e00
3300
1b00
1b00
3600
7600
7e00
3400
6c00
ENDCHAR
STARTCHAR U+0E0F
ENCODING 3599
SWIDTH 500 0
DWIDTH 7 0
BBX 11 14 -2 -2
BITMAP 
0000
0000
0000
0000
0000
1e00
3300
1b00
1b00
3600
7600
7e00
d400
6800
ENDCHAR
STARTCHAR U+0E10
ENCODING 3600
SWIDTH 500 0
DWIDTH 7 0
BBX 11 14 -2 -2
BITMAP 
0000
0000
0000
0000
0000
1f80
3000
1e00
0600
3a00
3a00
1e00
d400
6c00
ENDCHAR
STARTCHAR U+0E11
ENCODING 3601
SWIDTH 500 0
DWIDTH 7 0
BBX 11 14 -2 -2
BITMAP 
0000
0000
0000
0000
0000
1a80
3f00
0d00
1b00
3600
3600
3600
0000
0000
ENDCHAR
STARTCHAR U+0E12
ENCODING 3602
SWIDTH 500 0
DWIDTH 7 0
BBX 11 14 -2 -2
BITMAP 
0000
0000
0000
0000
0000
0d40
1e80
3680
3a80
6d00
6f00
6d00
0000
0000
ENDCHAR
STARTCHAR U+0E13
ENCODING 3603
SWIDTH 500 0
DWIDTH 7 0
BBX 11 14 -2 -2
BITMAP 
0000
0000
0000
0000
0000
1e80
3500
1d00
3500
6a00
6f00
7b00
0000
0000
ENDCHAR
STARTCHAR U+0E14
ENCODING 3604
SWIDTH 500 0
DWIDTH 7 0
BBX 11 14 -2 -2
BITMAP 
0000
0000
0000
0000
0000
0e00
1b00
3300
3d00
7a00
6a00
3600
0000
0000
ENDCHAR
STARTCHAR U+0E15
ENCODING 3605
SWIDTH 500 0
DWIDTH 7 0
BBX 11 14 -2 -2
BITMAP 
0000
0000
0000
0000
0000
0f00
1d00
3300
3d00
7a00
6a00
3600
0000
0000
ENDCHAR
STARTCHAR U+0E16
ENCODING 3606
SWIDTH 500 0
DWIDTH 7 0
BBX 11 14 -2 -2
BITMAP 
0000
0000
0000
0000
0000
0e00
1b00
3b00
1b00
3600
3a00
3a00
0000
0000
ENDCHAR
STARTCHAR U+0E17
ENCODING 3607
SWIDTH 500 0
DWIDTH 7 0
BBX 11 14 -2 -2
BITMAP 
0000
0000
0000
0000
0000
1f00
3d00
1b00
1b00
3600
3600
3600
0000
0000
ENDCHAR
STARTCHAR U+0E18
ENCODING 3608
SWIDTH 500 0
DWIDTH 7 0
BBX 11 14 -2 -2
BITMAP 
0000
0000
0000
0000
0000
0f80
1800
3c00
1a00
3600
3600
1c00
0000
0000
ENDCHAR
STARTCHAR U+0E19
ENCODING 3609
SWIDTH 500 0
DWIDTH 7 0
BBX 11 14 -2 -2
BITMAP 
0000
0000
0000
0000
0000
1d00
3a00
1a00
3600
6c00
6e00
3600
0000
0000
ENDCHAR
STARTCHAR U+0E1A
ENCODING 3610
SWIDTH 500 0
DWIDTH 7 0
BBX 11 14 -2 -2
BITMAP 
0000
0000
0000
0000
0000
1d80
3b00
1b00
1b00
3600
3600
1c00
0000
0000
ENDCHAR
STARTCHAR U+0E1B
ENCODING 3611
SWIDTH 500 0
DWIDTH 7 0
BBX 11 14 -2 -2
BITMAP 
0000
0000
0000
0180
0180
1d80
3b00
1b00
1b00
3600
3600
1c00
0000
0000
ENDCHAR
STARTCHAR U+0E1C
ENCODING 3612
SWIDTH 500 0
DWIDTH 7 0
BBX 11 14 -2 -2
BITMAP 
0000
0000
0000
0000
0000
1d80
3b00
3300
3500
6a00
6a00
3400
0000
0000
ENDCHAR
STARTCHAR U+0E1D
ENCODING 3613
SWIDTH 500 0
DWIDTH 7 0
BBX 11 14 -2 -2
BITMAP 
0000
0000
0000
0180
0180
1d80
3b00
3300
3500
6a00
6a00
3400
0000
0000
ENDCHAR
STARTCHAR U+0E1E
ENCODING 3614
SWIDTH 500 0
DWIDTH 7 0
BBX 11 14 -2 -2
BITMAP 
0000
0000
0000
0000
0000
1d80
3b00
1b00
3b00
6a00
6a00
3600
0000
0000
ENDCHAR
STARTCHAR U+0E1F
ENCODING 3615
SWIDTH 500 0
DWIDTH 7 0
BBX 11 14 -2 -2
BITMAP 
0000
0000
0000
0180
0180
1d80
3b00
1b00
3b00
6a00
6a00
3400
0000
0000
ENDCHAR
STARTCHAR U+0E20
ENCODING 3616
SWIDTH 500 0
DWIDTH 7 0
BBX 11 14 -2 -2
BITMAP 
0000
0000
0000
0000
0000
0e00
1b00
3b00
1b00
3600
7600
7600
0000
0000
ENDCHAR
STARTCHAR U+0E21
ENCODING 3617
SWIDTH 500 0
DWIDTH 7 0
BBX 11 14 -2 -2
BITMAP 
0000
0000
0000
0000
0000
1d80
3b00
1b00
1b00
3600
7a00
7400
0000
0000
ENDCHAR
STARTCHAR U+0E22
ENCODING 3618
SWIDTH 500 0
DWIDTH 7 0
BBX 11 14 -2 -2
BITMAP 
0000
0000
0000
0000
0000
1d80
3b00
3300
1d00
3600
6600
3c00
0000
0000
ENDCHAR
STARTCHAR U+0E23
ENCODING 3619
SWIDTH 500 0
DWIDTH 7 0
BBX 11 14 -2 -2
BITMAP 
0000
0000
0000
0000
0000
0f80
1800
3c00
0600
0600
0e00
0e00
0000
0000
ENDCHAR
STARTCHAR U+0E24
ENCODING 3620
SWIDTH 500 0
DWIDTH 7 0
BBX 11 14 -2 -2
BITMAP 
0000
0000
0000
0000
0000
0e00
1b00
3b00
1b00
3600
3a00
3a00
0c00
0c00
ENDCHAR
STARTCHAR U+0E25
ENCODING 3621
SWIDTH 500 0
DWIDTH 7 0
BBX 11 14 -2 -2
BITMAP 
0000
0000
0000
0000
0000
1e00
3300
0300
1d00
3600
7600
7600
0000
0000
ENDCHAR
STARTCHAR U+0E26
ENCODING 3622
SWIDTH 500 0
DWIDTH 7 0
BBX 11 14 -2 -2
BITMAP 
0000
0000
0000
0000
0000
0e00
1b00
3b00
1b00
3600
7600
7600
0c00
0c00
ENDCHAR
STARTCHAR U+0E27
ENCODING 3623
SWIDTH 500 0
DWIDTH 7 0
BBX 11 14 -2 -2
BITMAP 
0000
0000
0000
0000
0000
1e00
3300
0300
0300
0600
0e00
0e00
0000
0000
ENDCHAR
STARTCHAR U+0E28
ENCODING 3624
SWIDTH 500 0
DWIDTH 7 0
BBX 11 14 -2 -2
BITMAP 
0000
0000
0000
0180
0180
0e00
1b00
3300
3d00
7a00
7600
3600
0000
0000
ENDCHAR
STARTCHAR U+0E29
ENCODING 3625
SWIDTH 500 0
DWIDTH 7 0
BBX 11 14 -2 -2
BITMAP 
0000
0000
0000
0000
0000
1d80
3b00
1b00
1b80
3600
3600
1c00
0000
0000
ENDCHAR
STARTCHAR U+0E2A
ENCODING 3626
SWIDTH 500 0
DWIDTH 7 0
BBX 11 14 -2 -2
BITMAP 
0000
0000
0000
0180
0180
1e00
3300
0300
1d00
3600
7600
7600
0000
0000
ENDCHAR
STARTCHAR U+0E2B
ENCODING 3627
SWIDTH 500 0
DWIDTH 7 0
BBX 11 14 -2 -2
BITMAP 
0000
0000
0000
0000
0000
1d80
3b00
1a00
1e00
3600
3600
3600
0000
0000
ENDCHAR
STARTCHAR U+0E2C
ENCODING 3628
SWIDTH 500 0
DWIDTH 7 0
BBX 11 14 -2 -2
BITMAP 
0000
0000
0000
0180
0180
1d00
3b00
1b00
3b00
6a00
6a00
3400
0000
0000
ENDCHAR
STARTCHAR U+0E2D
ENCODING 3629
SWIDTH 500 0
DWIDTH 7 0
BBX 11 14 -2 -2
BITMAP 
0000
0000
0000
0000
0000
1e00
3300
0300
3b00
7600
6600
3c00
0000
0000
ENDCHAR
STARTCHAR U+0E2E
ENCODING 3630
SWIDTH 500 0
DWIDTH 7 0
BBX 11 14 -2 -2
BITMAP 
0000
0000
0000
0180
0180
0f00
3d00
0300
3b00
7600
6600
3c00
0000
0000
ENDCHAR
STARTCHAR U+0E2F
ENCODING 3631
SWIDTH 500 0
DWIDTH 7 0
BBX 11 14 -2 -2
BITMAP 
0000
0000
0000
0000
0000
1f80
3d00
0300
0300
0600
0600
0c00
0000
0000
ENDCHAR
STARTCHAR U+0E30
ENCODING 3632
SWIDTH 500 0
DWIDTH 7 0
BBX 11 14 -2 -2
BITMAP 
0000
0000
0000
0000
0000
0000
1d00
1e00
0000
3a00
3c00
0000
0000
0000
ENDCHAR
STARTCHAR U+0E31
ENCODING 3633
SWIDTH 500 0
DWIDTH 7 0
BBX 11 14 -2 -2
BITMAP 
0760
07c0
0000
0000
0000
0000
0000
0000
0000
0000
0000
0000
0000
0000
ENDCHAR
STARTCHAR U+0E32
ENCODING 3634
SWIDTH 500 0
DWIDTH 7 0
BBX 11 14 -2 -2
BITMAP 
0000
0000
0000
0000
0000
1e00
3300
0300
0300
0600
0600
0600
0000
0000
ENDCHAR
STARTCHAR U+0E33
ENCODING 3635
SWIDTH 500 0
DWIDTH 7 0
BBX 11 14 -2 -2
BITMAP 
0000
0000
0000
3800
3800
0e00
1b00
0300
0300
0600
0600
0600
0000
0000
ENDCHAR
STARTCHAR U+0E34
ENCODING 3636
SWIDTH 500 0
DWIDTH 7 0
BBX 11 14 -2 -2
BITMAP 
0000
0fc0
0000
0000
0000
0000
0000
0000
0000
0000
0000
0000
0000
0000
ENDCHAR
STARTCHAR U+0E35
ENCODING 3637
SWIDTH 500 0
DWIDTH 7 0
BBX 11 14 -2 -2
BITMAP 
00c0
0fc0
0000
0000
0000
0000
0000
0000
0000
0000
0000
0000
0000
0000
ENDCHAR
STARTCHAR U+0E36
ENCODING 3638
SWIDTH 500 0
DWIDTH 7 0
BBX 11 14 -2 -2
BITMAP 
01c0
0fc0
0000
0000
0000
0000
0000
0000
0000
0000
0000
0000
0000
0000
ENDCHAR
STARTCHAR U+0E37
ENCODING 3639
SWIDTH 500 0
DWIDTH 7 0
BBX 11 14 -2 -2
BITMAP 
0340
0fc0
0000
0000
0000
0000
0000
0000
0000
0000
0000
0000
0000
0000
ENDCHAR
STARTCHAR U+0E38
ENCODING 3640
SWIDTH 500 0
DWIDTH 7 0
BBX 11 14 -2 -2
BITMAP 
0000
0000
0000
0000
0000
0000
0000
0000
0000
0000
0000
0000
1c00
0c00
ENDCHAR
STARTCHAR U+0E39
ENCODING 3641
SWIDTH 500 0
DWIDTH 7 0
BBX 11 14 -2 -2
BITMAP 
0000
0000
0000
0000
0000
0000
0000
0000
0000
0000
0000
0000
3c00
1c00
ENDCHAR
STARTCHAR U+0E3A
ENCODING 3642
SWIDTH 500 0
DWIDTH 7 0
BBX 11 14 -2 -2
BITMAP 
0000
0000
0000
0000
0000
0000
0000
0000
0000
0000
0000
0000
1c00
1c00
ENDCHAR
STARTCHAR U+0E3F
ENCODING 3647
SWIDTH 500 0
DWIDTH 7 0
BBX 11 14 -2 -2
BITMAP 
0000
0000
0000
0000
0700
1f80
3680
3680
3f00
6d00
6d00
7e00
3800
0000
ENDCHAR
STARTCHAR U+0E40
ENCODING 3648
SWIDTH 500 0
DWIDTH 7 0
BBX 11 14 -2 -2
BITMAP 
0000
0000
0000
0000
0000
0600
0c00
0c00
0c00
1800
1c00
1c00
0000
0000
ENDCHAR
STARTCHAR U+0E41
ENCODING 3649
SWIDTH 500 0
DWIDTH 7 0
BBX 11 14 -2 -2
BITMAP 
0000
0000
0000
0000
0000
1b00
3600
3600
3600
6c00
7600
7600
0000
0000
ENDCHAR
STARTCHAR U+0E42
ENCODING 3650
SWIDTH 500 0
DWIDTH 7 0
BBX 11 14 -2 -2
BITMAP 
0000
0000
07c0
0c00
1f00
0300
0600
0600
0600
0c00
0e00
0e00
0000
0000
ENDCHAR
STARTCHAR U+0E43
ENCODING 3651
SWIDTH 500 0
DWIDTH 7 0
BBX 11 14 -2 -2
BITMAP 
0000
0000
0780
0d00
1b00
0f00
0600
0600
0600
0c00
0e00
0e00
0000
0000
ENDCHAR
STARTCHAR U+0E44
ENCODING 3652
SWIDTH 500 0
DWIDTH 7 0
BBX 11 14 -2 -2
BITMAP 
0000
0000
0d80
0f00
0300
0300
0600
0600
0600
0c00
0e00
0e00
0000
0000
ENDCHAR
STARTCHAR U+0E45
ENCODING 3653
SWIDTH 500 0
DWIDTH 7 0
BBX 11 14 -2 -2
BITMAP 
0000
0000
0000
0000
0000
1e00
3300
0300
0300
0600
0600
0600
0c00
0c00
ENDCHAR
STARTCHAR U+0E46
ENCODING 3654
SWIDTH 500 0
DWIDTH 7 0
BBX 11 14 -2 -2
BITMAP 
0000
0000
0000
0000
0000
1e80
3b00
0300
0300
0600
0600
0c00
1800
3000
ENDCHAR
STARTCHAR U+0E47
ENCODING 3655
SWIDTH 500 0
DWIDTH 7 0
BBX 11 14 -2 -2
BITMAP 
07e0
0d40
06c0
0000
0000
0000
0000
0000
0000
0000
0000
0000
0000
0000
ENDCHAR
STARTCHAR U+0E48
ENCODING 3656
SWIDTH 500 0
DWIDTH 7 0
BBX 11 14 -2 -2
BITMAP 
00c0
00c0
00c0
0000
0000
0000
0000
0000
0000
0000
0000
0000
0000
0000
ENDCHAR
STARTCHAR U+0E49
ENCODING 3657
SWIDTH 500 0
DWIDTH 7 0
BBX 11 14 -2 -2
BITMAP 
0700
0360
07c0
0000
0000
0000
0000
0000
0000
0000
0000
0000
0000
0000
ENDCHAR
STARTCHAR U+0E4A
ENCODING 3658
SWIDTH 500 0
DWIDTH 7 0
BBX 11 14 -2 -2
BITMAP 
0680
0da0
0ec0
0000
0000
0000
0000
0000
0000
0000
0000
0000
0000
0000
ENDCHAR
STARTCHAR U+0E4B
ENCODING 3659
SWIDTH 500 0
DWIDTH 7 0
BBX 11 14 -2 -2
BITMAP 
00c0
01e0
00c0
0000
0000
0000
0000
0000
0000
0000
0000
0000
0000
0000
ENDCHAR
STARTCHAR U+0E4C
ENCODING 3660
SWIDTH 500 0
DWIDTH 7 0
BBX 11 14 -2 -2
BITMAP 
00e0
0180
01c0
0000
0000
0000
0000
0000
0000
0000
0000
0000
0000
0000
ENDCHAR
STARTCHAR U+0E4D
ENCODING 3661
SWIDTH 500 0
DWIDTH 7 0
BBX 11 14 -2 -2
BITMAP 
0000
01c0
01c0
0000
0000
0000
0000
0000
0000
0000
0000
0000
0000
0000
ENDCHAR
STARTCHAR U+0E4E
ENCODING 3662
SWIDTH 500 0
DWIDTH 7 0
BBX 11 14 -2 -2
BITMAP 
0000
01e0
03c0
0700
0000
0000
0000
0000
0000
0000
0000
0000
0000
0000
ENDCHAR
STARTCHAR U+0E4F
ENCODING 3663
SWIDTH 500 0
DWIDTH 7 0
BBX 11 14 -2 -2
BITMAP 
0000
0000
0000
0000
0000
0000
1f00
3180
3680
6d00
6300
3e00
0000
0000
ENDCHAR
STARTCHAR U+0E50
ENCODING 3664
SWIDTH 500 0
DWIDTH 7 0
BBX 11 14 -2 -2
BITMAP 
0000
0000
0000
0000
0000
0000
1f00
3180
3180
6300
6300
3e00
0000
0000
ENDCHAR
STARTCHAR U+0E51
ENCODING 3665
SWIDTH 500 0
DWIDTH 7 0
BBX 11 14 -2 -2
BITMAP 
0000
0000
0000
0000
0000
0000
1f00
3180
3680
3d00
0300
3e00
0000
0000
ENDCHAR
STARTCHAR U+0E52
ENCODING 3666
SWIDTH 500 0
DWIDTH 7 0
BBX 11 14 -2 -2
BITMAP 
0000
0000
0000
0000
1800
1800
3680
3580
3680
6d00
6300
3f00
0000
0000
ENDCHAR
STARTCHAR U+0E53
ENCODING 3667
SWIDTH 500 0
DWIDTH 7 0
BBX 11 14 -2 -2
BITMAP 
0000
0000
0000
0000
0000
0000
1d00
3680
3680
6d00
7300
7300
0000
0000
ENDCHAR
STARTCHAR U+0E54
ENCODING 3668
SWIDTH 500 0
DWIDTH 7 0
BBX 11 14 -2 -2
BITMAP 
0000
0000
0000
0000
00c0
0180
1f00
3000
3700
6e00
6c00
3f00
0000
0000
ENDCHAR
STARTCHAR U+0E55
ENCODING 3669
SWIDTH 500 0
DWIDTH 7 0
BBX 11 14 -2 -2
BITMAP 
0000
0000
0000
0000
00c0
0780
1f00
3000
3700
6e00
6c00
3f00
0000
0000
ENDCHAR
STARTCHAR U+0E56
ENCODING 3670
SWIDTH 500 0
DWIDTH 7 0
BBX 11 14 -2 -2
BITMAP 
0000
0000
0000
0000
0000
1800
1b00
0d80
0180
3b00
3b00
3e00
0000
0000
ENDCHAR
STARTCHAR U+0E57
ENCODING 3671
SWIDTH 500 0
DWIDTH 7 0
BBX 11 14 -2 -2
BITMAP 
0000
0000
0000
0000
00c0
00c0
1a80
3680
3680
6d00
7500
7600
0000
0000
ENDCHAR
STARTCHAR U+0E58
ENCODING 3672
SWIDTH 500 0
DWIDTH 7 0
BBX 11 14 -2 -2
BITMAP 
0000
0000
0000
0000
0000
03c0
1e00
3000
3000
6e00
6a00
7600
0000
0000
ENDCHAR
STARTCHAR U+0E59
ENCODING 3673
SWIDTH 500 0
DWIDTH 7 0
BBX 11 14 -2 -2
BITMAP 
0000
0000
0000
0000
00c0
00c0
0e80
1d00
3400
6c00
7400
7600
0000
0000
ENDCHAR
STARTCHAR U+0E5A
ENCODING 3674
SWIDTH 500 0
DWIDTH 7 0
BBX 11 14 -2 -2
BITMAP 
0000
0000
0000
0000
1d40
1f80
0680
0d00
0e00
1a00
3400
6b00
0000
0000
ENDCHAR
STARTCHAR U+0E5B
ENCODING 3675
SWIDTH 500 0
DWIDTH 7 0
BBX 11 14 -2 -2
BITMAP 
0000
0000
0000
0000
0000
0c00
1c00
3600
3b80
6800
7000
7000
0000
0000
ENDCHAR
STARTCHAR U+0E81
ENCODING 3713
SWIDTH 500 0
DWIDTH 7 0
BBX 11 14 -2 -2
BITMAP 
0000
0000
0000
0000
0000
1e00
1b00
1b00
1b00
3600
3600
7600
0000
0000
ENDCHAR
STARTCHAR U+0E82
ENCODING 3714
SWIDTH 500 0
DWIDTH 7 0
BBX 11 14 -2 -2
BITMAP 
0000
0000
0000
0000
0000
0e00
3b00
3b00
1e00
3000
6c00
3600
0000
0000
ENDCHAR
STARTCHAR U+0E84
ENCODING 3716
SWIDTH 500 0
DWIDTH 7 0
BBX 11 14 -2 -2
BITMAP 
0000
0000
0000
0000
0000
0e00
1b00
3b00
3b00
6600
7600
7600
0000
0000
ENDCHAR
STARTCHAR U+0E87
ENCODING 3719
SWIDTH 500 0
DWIDTH 7 0
BBX 11 14 -2 -2
BITMAP 
0000
0000
0000
0000
0000
0e00
1b00
0300
0300
0600
7600
6600
6c00
3800
ENDCHAR
STARTCHAR U+0E88
ENCODING 3720
SWIDTH 500 0
DWIDTH 7 0
BBX 11 14 -2 -2
BITMAP 
0000
0000
0000
0000
0000
1e00
3300
0300
1d00
3e00
0600
0600
0000
0000
ENDCHAR
STARTCHAR U+0E8A
ENCODING 3722
SWIDTH 500 0
DWIDTH 7 0
BBX 11 14 -2 -2
BITMAP 
0000
0000
0000
0000
0000
0e00
3b00
3b00
1e00
3000
6800
3400
0c00
0c00
ENDCHAR
STARTCHAR U+0E8D
ENCODING 3725
SWIDTH 500 0
DWIDTH 7 0
BBX 11 14 -2 -2
BITMAP 
0000
0000
0000
0000
0000
1d80
3b00
3300
3b00
7600
6600
3c00
0000
0000
ENDCHAR
STARTCHAR U+0E94
ENCODING 3732
SWIDTH 500 0
DWIDTH 7 0
BBX 11 14 -2 -2
BITMAP 
0000
0000
0000
0000
0000
0e00
1b00
3300
3300
6600
7a00
7a00
0000
0000
ENDCHAR
STARTCHAR U+0E95
ENCODING 3733
SWIDTH 500 0
DWIDTH 7 0
BBX 11 14 -2 -2
BITMAP 
0000
0000
0000
0000
0000
0f00
1d00
3500
3300
6600
7a00
7a00
0000
0000
ENDCHAR
STARTCHAR U+0E96
ENCODING 3734
SWIDTH 500 0
DWIDTH 7 0
BBX 11 14 -2 -2
BITMAP 
0000
0000
0000
0000
0000
1e00
1b00
1b00
1b00
3600
3a00
3a00
0c00
0c00
ENDCHAR
STARTCHAR U+0E97
ENCODING 3735
SWIDTH 500 0
DWIDTH 7 0
BBX 11 14 -2 -2
BITMAP 
0000
0000
0000
0000
0000
3b00
7700
3500
3500
6a00
6a00
3600
0000
0000
ENDCHAR
STARTCHAR U+0E99
ENCODING 3737
SWIDTH 500 0
DWIDTH 7 0
BBX 11 14 -2 -2
BITMAP 
0000
0000
0000
0000
0000
1d80
3b00
1b00
1b00
3600
3a00
6c00
0000
0000
ENDCHAR
STARTCHAR U+0E9A
ENCODING 3738
SWIDTH 500 0
DWIDTH 7 0
BBX 11 14 -2 -2
BITMAP 
0000
0000
0000
0000
0000
1d80
3b00
1b00
1b00
3600
3600
1c00
0000
0000
ENDCHAR
STARTCHAR U+0E9B
ENCODING 3739
SWIDTH 500 0
DWIDTH 7 0
BBX 11 14 -2 -2
BITMAP 
0000
0000
0000
0180
0180
1d80
3b00
1b00
1b00
3600
3600
1c00
0000
0000
ENDCHAR
STARTCHAR U+0E9C
ENCODING 3740
SWIDTH 500 0
DWIDTH 7 0
BBX 11 14 -2 -2
BITMAP 
0000
0000
0000
0000
0000
1d80
3b80
3300
3500
6a00
6a00
3400
0000
0000
ENDCHAR
STARTCHAR U+0E9D
ENCODING 3741
SWIDTH 500 0
DWIDTH 7 0
BBX 11 14 -2 -2
BITMAP 
0000
0000
0000
0180
0180
1d80
3b00
3300
3500
6a00
6a00
3400
0000
0000
ENDCHAR
STARTCHAR U+0E9E
ENCODING 3742
SWIDTH 500 0
DWIDTH 7 0
BBX 11 14 -2 -2
BITMAP 
0000
0000
0000
0000
0000
1d80
3b00
1b00
3b00
6a00
6a00
3400
0000
0000
ENDCHAR
STARTCHAR U+0E9F
ENCODING 3743
SWIDTH 500 0
DWIDTH 7 0
BBX 11 14 -2 -2
BITMAP 
0000
0000
0000
0180
0180
1d80
3b00
1b00
3b00
6a00
6a00
3400
0000
0000
ENDCHAR
STARTCHAR U+0EA1
ENCODING 3745
SWIDTH 500 0
DWIDTH 7 0
BBX 11 14 -2 -2
BITMAP 
0000
0000
0000
0000
0000
1980
1b00
1b00
1b00
3600
7a00
7400
0000
0000
ENDCHAR
STARTCHAR U+0EA2
ENCODING 3746
SWIDTH 500 0
DWIDTH 7 0
BBX 11 14 -2 -2
BITMAP 
0000
0000
0000
0180
0180
1d80
3b00
3300
3b00
7600
6600
3c00
0000
0000
ENDCHAR
STARTCHAR U+0EA3
ENCODING 3747
SWIDTH 500 0
DWIDTH 7 0
BBX 11 14 -2 -2
BITMAP 
0000
0000
0000
0000
0000
0e00
1b00
3800
1c00
7600
7600
3c00
0000
0000
ENDCHAR
STARTCHAR U+0EA5
ENCODING 3749
SWIDTH 500 0
DWIDTH 7 0
BBX 11 14 -2 -2
BITMAP 
0000
0000
0000
0000
0000
1e00
3300
0300
1b00
3a00
7600
7600
0000
0000
ENDCHAR
STARTCHAR U+0EA7
ENCODING 3751
SWIDTH 500 0
DWIDTH 7 0
BBX 11 14 -2 -2
BITMAP 
0000
0000
0000
0000
0000
1e00
3300
0300
0300
7600
7600
3c00
0000
0000
ENDCHAR
STARTCHAR U+0EAA
ENCODING 3754
SWIDTH 500 0
DWIDTH 7 0
BBX 11 14 -2 -2
BITMAP 
0000
0000
0000
0000
0180
1f00
3700
3d00
1b00
3a00
7600
7600
0000
0000
ENDCHAR
STARTCHAR U+0EAB
ENCODING 3755
SWIDTH 500 0
DWIDTH 7 0
BBX 11 14 -2 -2
BITMAP 
0000
0000
0000
0000
0000
3f00
7500
3500
3500
6a00
6a00
3600
0000
0000
ENDCHAR
STARTCHAR U+0EAD
ENCODING 3757
SWIDTH 500 0
DWIDTH 7 0
BBX 11 14 -2 -2
BITMAP 
0000
0000
0000
0000
0000
0e00
1b00
3300
1f00
7600
7600
3c00
0000
0000
ENDCHAR
STARTCHAR U+0EAE
ENCODING 3758
SWIDTH 500 0
DWIDTH 7 0
BBX 11 14 -2 -2
BITMAP 
0000
0000
0000
0000
0000
0e80
1b00
3800
1c00
7600
7600
3c00
0000
0000
ENDCHAR
STARTCHAR U+0EAF
ENCODING 3759
SWIDTH 500 0
DWIDTH 7 0
BBX 11 14 -2 -2
BITMAP 
0000
0000
0000
0000
0000
1d80
3b00
3500
1f00
0c00
1c00
3800
6000
0000
ENDCHAR
STARTCHAR U+0EB0
ENCODING 3760
SWIDTH 500 0
DWIDTH 7 0
BBX 11 14 -2 -2
BITMAP 
0000
0000
0000
0000
0000
0000
1d00
1e00
0000
3a00
3c00
0000
0000
0000
ENDCHAR
STARTCHAR U+0EB1
ENCODING 3761
SWIDTH 500 0
DWIDTH 7 0
BBX 11 14 -2 -2
BITMAP 
0ec0
0f80
0000
0000
0000
0000
0000
0000
0000
0000
0000
0000
0000
0000
ENDCHAR
STARTCHAR U+0EB2
ENCODING 3762
SWIDTH 500 0
DWIDTH 7 0
BBX 11 14 -2 -2
BITMAP 
0000
0000
0000
0000
0000
0e00
3b00
3b00
0300
0600
0600
0600
0000
0000
ENDCHAR
STARTCHAR U+0EB3
ENCODING 3763
SWIDTH 500 0
DWIDTH 7 0
BBX 11 14 -2 -2
BITMAP 
0000
0000
0000
3800
3800
0700
1d80
1d80
0180
0300
0300
0300
0000
0000
ENDCHAR
STARTCHAR U+0EB4
ENCODING 3764
SWIDTH 500 0
DWIDTH 7 0
BBX 11 14 -2 -2
BITMAP 
1f80
1980
0000
0000
0000
0000
0000
0000
0000
0000
0000
0000
0000
0000
ENDCHAR
STARTCHAR U+0EB5
ENCODING 3765
SWIDTH 500 0
DWIDTH 7 0
BBX 11 14 -2 -2
BITMAP 
1f80
19c0
0000
0000
0000
0000
0000
0000
0000
0000
0000
0000
0000
0000
ENDCHAR
STARTCHAR U+0EB6
ENCODING 3766
SWIDTH 500 0
DWIDTH 7 0
BBX 11 14 -2 -2
BITMAP 
1f80
1a80
0000
0000
0000
0000
0000
0000
0000
0000
0000
0000
0000
0000
ENDCHAR
STARTCHAR U+0EB7
ENCODING 3767
SWIDTH 500 0
DWIDTH 7 0
BBX 11 14 -2 -2
BITMAP 
1f80
1ac0
0000
0000
0000
0000
0000
0000
0000
0000
0000
0000
0000
0000
ENDCHAR
STARTCHAR U+0EB8
ENCODING 3768
SWIDTH 500 0
DWIDTH 7 0
BBX 11 14 -2 -2
BITMAP 
0000
0000
0000
0000
0000
0000
0000
0000
0000
0000
0000
0000
3800
1800
ENDCHAR
STARTCHAR U+0EB9
ENCODING 3769
SWIDTH 500 0
DWIDTH 7 0
BBX 11 14 -2 -2
BITMAP 
0000
0000
0000
0000
0000
0000
0000
0000
0000
0000
0000
0000
7800
3800
ENDCHAR
STARTCHAR U+0EBB
ENCODING 3771
SWIDTH 500 0
DWIDTH 7 0
BBX 11 14 -2 -2
BITMAP 
0f80
0ec0
0000
0000
0000
0000
0000
0000
0000
0000
0000
0000
0000
0000
ENDCHAR
STARTCHAR U+0EBC
ENCODING 3772
SWIDTH 500 0
DWIDTH 7 0
BBX 11 14 -2 -2
BITMAP 
0000
0000
0000
0000
0000
0000
0000
0000
0000
0000
0000
0000
ec00
d800
ENDCHAR
STARTCHAR U+0EBD
ENCODING 3773
SWIDTH 500 0
DWIDTH 7 0
BBX 11 14 -2 -2
BITMAP 
0000
0000
0000
0000
0000
0f80
1a00
0e00
0600
0600
7600
6600
6c00
3800
ENDCHAR
STARTCHAR U+0EC0
ENCODING 3776
SWIDTH 500 0
DWIDTH 7 0
BBX 11 14 -2 -2
BITMAP 
0000
0000
0000
0000
0000
0600
0c00
0c00
0c00
1800
1c00
1c00
0000
0000
ENDCHAR
STARTCHAR U+0EC1
ENCODING 3777
SWIDTH 500 0
DWIDTH 7 0
BBX 11 14 -2 -2
BITMAP 
0000
0000
0000
0000
0000
1b00
3600
3600
3600
6c00
7600
7600
0000
0000
ENDCHAR
STARTCHAR U+0EC2
ENCODING 3778
SWIDTH 500 0
DWIDTH 7 0
BBX 11 14 -2 -2
BITMAP 
0000
0000
1c00
3600
1b00
0c00
0c00
0c00
0c00
1800
1c00
1c00
0000
0000
ENDCHAR
STARTCHAR U+0EC3
ENCODING 3779
SWIDTH 500 0
DWIDTH 7 0
BBX 11 14 -2 -2
BITMAP 
0000
0000
0700
0d00
1b00
0f00
0600
0600
0600
0c00
0e00
0e00
0000
0000
ENDCHAR
STARTCHAR U+0EC4
ENCODING 3780
SWIDTH 500 0
DWIDTH 7 0
BBX 11 14 -2 -2
BITMAP 
0000
0000
0d80
0f00
0d00
0300
0600
0600
0600
0c00
0e00
0e00
0000
0000
ENDCHAR
STARTCHAR U+0EC6
ENCODING 3782
SWIDTH 500 0
DWIDTH 7 0
BBX 11 14 -2 -2
BITMAP 
0000
0000
0000
0000
0000
1f80
3500
3d00
0300
0600
0600
0600
cc00
7800
ENDCHAR
STARTCHAR U+0EC7
ENCODING 3783
SWIDTH 500 0
DWIDTH 7 0
BBX 11 14 -2 -2
BITMAP 
0000
0000
0000
0000
0000
0000
0000
0000
0000
0000
0000
0000
0000
0000
ENDCHAR
STARTCHAR U+0EC8
ENCODING 3784
SWIDTH 500 0
DWIDTH 7 0
BBX 11 14 -2 -2
BITMAP 
0180
0180
0180
0000
0000
0000
0000
0000
0000
0000
0000
0000
0000
0000
ENDCHAR
STARTCHAR U+0EC9
ENCODING 3785
SWIDTH 500 0
DWIDTH 7 0
BBX 11 14 -2 -2
BITMAP 
0700
0360
07c0
0000
0000
0000
0000
0000
0000
0000
0000
0000
0000
0000
ENDCHAR
STARTCHAR U+0ECA
ENCODING 3786
SWIDTH 500 0
DWIDTH 7 0
BBX 11 14 -2 -2
BITMAP 
0680
0da0
0ec0
0000
0000
0000
0000
0000
0000
0000
0000
0000
0000
0000
ENDCHAR
STARTCHAR U+0ECB
ENCODING 3787
SWIDTH 500 0
DWIDTH 7 0
BBX 11 14 -2 -2
BITMAP 
0180
03c0
0180
0000
0000
0000
0000
0000
0000
0000
0000
0000
0000
0000
ENDCHAR
STARTCHAR U+0ECC
ENCODING 3788
SWIDTH 500 0
DWIDTH 7 0
BBX 11 14 -2 -2
BITMAP 
01c0
0780
0700
0000
0000
0000
0000
0000
0000
0000
0000
0000
0000
0000
ENDCHAR
STARTCHAR U+0ECD
ENCODING 3789
SWIDTH 500 0
DWIDTH 7 0
BBX 11 14 -2 -2
BITMAP 
0000
0380
0380
0000
0000
0000
0000
0000
0000
0000
0000
0000
0000
0000
ENDCHAR
STARTCHAR U+0ED0
ENCODING 3792
SWIDTH 500 0
DWIDTH 7 0
BBX 11 14 -2 -2
BITMAP 
0000
0000
0000
0000
0000
0000
1e00
3300
3300
6600
6600
3c00
0000
0000
ENDCHAR
STARTCHAR U+0ED1
ENCODING 3793
SWIDTH 500 0
DWIDTH 7 0
BBX 11 14 -2 -2
BITMAP 
0000
0000
0000
0000
0000
0000
1e00
3300
3d00
3a00
0600
3c00
0000
0000
ENDCHAR
STARTCHAR U+0ED2
ENCODING 3794
SWIDTH 500 0
DWIDTH 7 0
BBX 11 14 -2 -2
BITMAP 
0000
0000
0000
0000
0000
0f80
1800
3000
3600
6e00
6e00
3c00
0000
0000
ENDCHAR
STARTCHAR U+0ED3
ENCODING 3795
SWIDTH 500 0
DWIDTH 7 0
BBX 11 14 -2 -2
BITMAP 
0000
0000
0000
0700
0680
0300
3300
1b00
1b00
3600
7a00
7400
0000
0000
ENDCHAR
STARTCHAR U+0ED4
ENCODING 3796
SWIDTH 500 0
DWIDTH 7 0
BBX 11 14 -2 -2
BITMAP 
0000
0000
0000
0000
0000
0380
1e00
3000
3600
6c00
6c00
3e00
0000
0000
ENDCHAR
STARTCHAR U+0ED5
ENCODING 3797
SWIDTH 500 0
DWIDTH 7 0
BBX 11 14 -2 -2
BITMAP 
0000
0000
0000
0000
0000
0780
1e00
3000
3600
6c00
6c00
3e00
0000
0000
ENDCHAR
STARTCHAR U+0ED6
ENCODING 3798
SWIDTH 500 0
DWIDTH 7 0
BBX 11 14 -2 -2
BITMAP 
0000
0000
0000
0700
0680
0300
3b00
3b00
3300
6a00
6a00
3400
0000
0000
ENDCHAR
STARTCHAR U+0ED7
ENCODING 3799
SWIDTH 500 0
DWIDTH 7 0
BBX 11 14 -2 -2
BITMAP 
0000
0000
0000
0000
0000
1e00
1b00
1b00
1b00
3600
7600
7600
0c00
0c00
ENDCHAR
STARTCHAR U+0ED8
ENCODING 3800
SWIDTH 500 0
DWIDTH 7 0
BBX 11 14 -2 -2
BITMAP 
0000
0000
0000
0000
0000
1d00
3700
7300
3300
0e00
1a00
3400
7c00
ec00
ENDCHAR
STARTCHAR U+0ED9
ENCODING 3801
SWIDTH 500 0
DWIDTH 7 0
BBX 11 14 -2 -2
BITMAP 
0000
0000
0000
0000
0000
1d80
3500
6d00
6d00
da00
ea00
ec00
0000
0000
ENDCHAR
STARTCHAR U+0EDB
ENCODING 3803
SWIDTH 500 0
DWIDTH 7 0
BBX 11 14 -2 -2
BITMAP 
0000
0000
0000
0000
0000
3f40
7580
3580
3580
6b00
6f00
3700
0000
0000
ENDCHAR
STARTCHAR U+0EDC
ENCODING 3804
SWIDTH 500 0
DWIDTH 7 0
BBX 11 14 -2 -2
BITMAP 
0000
0000
0000
0000
0000
3740
7580
3580
3580
6b00
6f00
3700
0000
0000
ENDCHAR
STARTCHAR U+10D0
ENCODING 4304
SWIDTH 500 0
DWIDTH 7 0
BBX 11 14 -2 -2
BITMAP 
0000
0000
0000
0000
0000
0000
0000
1800
0c00
0600
6600
3c00
0000
0000
ENDCHAR
STARTCHAR U+10D1
ENCODING 4305
SWIDTH 500 0
DWIDTH 7 0
BBX 11 14 -2 -2
BITMAP 
0000
0000
0000
0c00
0e00
0600
0c00
1e00
3600
6600
6600
3c00
0000
0000
ENDCHAR
STARTCHAR U+10D2
ENCODING 4306
SWIDTH 500 0
DWIDTH 7 0
BBX 11 14 -2 -2
BITMAP 
0000
0000
0000
0000
0000
0c00
1c00
3400
0c00
3c00
6600
6600
6c00
3800
ENDCHAR
STARTCHAR U+10D3
ENCODING 4307
SWIDTH 500 0
DWIDTH 7 0
BBX 11 14 -2 -2
BITMAP 
0000
0000
0000
0000
0000
0000
0000
1e00
3500
6d00
6600
6000
3800
0c00
ENDCHAR
STARTCHAR U+10D4
ENCODING 4308
SWIDTH 500 0
DWIDTH 7 0
BBX 11 14 -2 -2
BITMAP 
0000
0000
0000
0000
0000
0e00
1b00
3300
0300
0600
0600
6600
6c00
3800
ENDCHAR
STARTCHAR U+10D5
ENCODING 4309
SWIDTH 500 0
DWIDTH 7 0
BBX 11 14 -2 -2
BITMAP 
0000
0000
0000
0000
0000
0e00
1b00
3300
0c00
0600
0600
6600
6c00
3800
ENDCHAR
STARTCHAR U+10D6
ENCODING 4310
SWIDTH 500 0
DWIDTH 7 0
BBX 11 14 -2 -2
BITMAP 
0000
0000
0000
0c00
1a00
1b80
1e00
0f00
0d00
1b00
1b00
0e00
0000
0000
ENDCHAR
STARTCHAR U+10D7
ENCODING 4311
SWIDTH 500 0
DWIDTH 7 0
BBX 11 14 -2 -2
BITMAP 
0000
0000
0000
0000
0000
0000
0000
1b00
3500
6d00
6d00
3b00
0000
0000
ENDCHAR
STARTCHAR U+10D8
ENCODING 4312
SWIDTH 500 0
DWIDTH 7 0
BBX 11 14 -2 -2
BITMAP 
0000
0000
0000
0000
0000
0000
0000
1c00
3600
6600
6600
3400
0000
0000
ENDCHAR
STARTCHAR U+10D9
ENCODING 4313
SWIDTH 500 0
DWIDTH 7 0
BBX 11 14 -2 -2
BITMAP 
0000
0000
0000
0000
0000
0300
0300
0300
0c00
0600
0600
6600
6c00
3800
ENDCHAR
STARTCHAR U+10DA
ENCODING 4314
SWIDTH 500 0
DWIDTH 7 0
BBX 11 14 -2 -2
BITMAP 
0000
0000
0000
0000
0000
0000
0000
1a80
3d80
6b00
6300
6000
3c00
0600
ENDCHAR
STARTCHAR U+10DB
ENCODING 4315
SWIDTH 500 0
DWIDTH 7 0
BBX 11 14 -2 -2
BITMAP 
0000
0000
0000
0f00
1980
1980
0300
1f00
3300
6600
6600
3c00
0000
0000
ENDCHAR
STARTCHAR U+10DC
ENCODING 4316
SWIDTH 500 0
DWIDTH 7 0
BBX 11 14 -2 -2
BITMAP 
0000
0000
0000
0f80
1800
1800
3000
3c00
3600
6600
6600
3c00
0000
0000
ENDCHAR
STARTCHAR U+10DD
ENCODING 4317
SWIDTH 500 0
DWIDTH 7 0
BBX 11 14 -2 -2
BITMAP 
0000
0000
0000
0000
0000
0000
0000
1a00
3e00
6a00
6a00
6600
0000
0000
ENDCHAR
STARTCHAR U+10DE
ENCODING 4318
SWIDTH 500 0
DWIDTH 7 0
BBX 11 14 -2 -2
BITMAP 
0000
0000
0000
0600
0300
0300
0300
0c00
0600
6600
6600
3c00
0000
0000
ENDCHAR
STARTCHAR U+10DF
ENCODING 4319
SWIDTH 500 0
DWIDTH 7 0
BBX 11 14 -2 -2
BITMAP 
0000
0000
0000
0000
0000
0000
0300
0700
3500
3a00
3600
0600
6c00
3800
ENDCHAR
STARTCHAR U+10E0
ENCODING 4320
SWIDTH 500 0
DWIDTH 7 0
BBX 11 14 -2 -2
BITMAP 
0000
0000
0000
0000
0180
0f00
1800
3a00
3e00
6a00
6a00
6600
0000
0000
ENDCHAR
STARTCHAR U+10E1
ENCODING 4321
SWIDTH 500 0
DWIDTH 7 0
BBX 11 14 -2 -2
BITMAP 
0000
0000
0000
1800
1800
1800
3400
3800
3400
6600
6600
3c00
0000
0000
ENDCHAR
STARTCHAR U+10E2
ENCODING 4322
SWIDTH 500 0
DWIDTH 7 0
BBX 11 14 -2 -2
BITMAP 
0000
0000
0000
0600
0d00
0d00
1e00
3b00
3f00
6a00
6600
6600
6c00
3800
ENDCHAR
STARTCHAR U+10E3
ENCODING 4323
SWIDTH 500 0
DWIDTH 7 0
BBX 11 14 -2 -2
BITMAP 
0000
0000
0000
0000
0000
1b80
0d80
0d80
0180
0300
0300
1b00
1a00
0c00
ENDCHAR
STARTCHAR U+10E4
ENCODING 4324
SWIDTH 500 0
DWIDTH 7 0
BBX 11 14 -2 -2
BITMAP 
0000
0000
0000
0000
0000
0000
0000
1b00
3500
3500
1a00
0600
3600
1c00
ENDCHAR
STARTCHAR U+10E5
ENCODING 4325
SWIDTH 500 0
DWIDTH 7 0
BBX 11 14 -2 -2
BITMAP 
0000
0000
0000
0180
0380
0180
0300
0f00
1b00
0600
0600
0600
cc00
7800
ENDCHAR
STARTCHAR U+10E6
ENCODING 4326
SWIDTH 500 0
DWIDTH 7 0
BBX 11 14 -2 -2
BITMAP 
0000
0000
0000
0000
0000
0000
0000
1a00
3e00
6a00
6600
6000
3800
0c00
ENDCHAR
STARTCHAR U+10E7
ENCODING 4327
SWIDTH 500 0
DWIDTH 7 0
BBX 11 14 -2 -2
BITMAP 
0000
0000
0000
0000
0000
0000
3300
3300
3300
1e00
0600
6600
6c00
3800
ENDCHAR
STARTCHAR U+10E8
ENCODING 4328
SWIDTH 500 0
DWIDTH 7 0
BBX 11 14 -2 -2
BITMAP 
0000
0000
0000
0d00
1a80
1a80
3500
3300
0f00
1a00
3600
1c00
0000
0000
ENDCHAR
STARTCHAR U+10E9
ENCODING 4329
SWIDTH 500 0
DWIDTH 7 0
BBX 11 14 -2 -2
BITMAP 
0000
0000
0000
0e00
1b00
1a00
3c00
3000
3c00
6600
6600
6600
0000
0000
ENDCHAR
STARTCHAR U+10EA
ENCODING 4330
SWIDTH 500 0
DWIDTH 7 0
BBX 11 14 -2 -2
BITMAP 
0000
0000
0000
0000
0000
1b00
3300
3300
3400
6600
6600
6600
6c00
3800
ENDCHAR
STARTCHAR U+10EB
ENCODING 4331
SWIDTH 500 0
DWIDTH 7 0
BBX 11 14 -2 -2
BITMAP 
0000
0000
0000
0300
0180
0180
0300
1f00
3300
6600
6600
3c00
0000
0000
ENDCHAR
STARTCHAR U+10EC
ENCODING 4332
SWIDTH 500 0
DWIDTH 7 0
BBX 11 14 -2 -2
BITMAP 
0000
0000
0000
0d00
1a80
1a80
3000
3000
3f00
6600
3400
3800
1800
3000
ENDCHAR
STARTCHAR U+10ED
ENCODING 4333
SWIDTH 500 0
DWIDTH 7 0
BBX 11 14 -2 -2
BITMAP 
0000
0000
0000
0300
0700
0d00
0600
0e80
1b00
1d00
0c00
0c00
d800
7000
ENDCHAR
STARTCHAR U+10EE
ENCODING 4334
SWIDTH 500 0
DWIDTH 7 0
BBX 11 14 -2 -2
BITMAP 
0000
0000
0000
1800
1800
1b00
3400
3e00
3600
6600
6600
3c00
0000
0000
ENDCHAR
STARTCHAR U+10EF
ENCODING 4335
SWIDTH 500 0
DWIDTH 7 0
BBX 11 14 -2 -2
BITMAP 
0000
0000
0000
0000
0000
0000
0000
1980
0f00
0c00
1a00
3300
3000
e000
ENDCHAR
STARTCHAR U+10F0
ENCODING 4336
SWIDTH 500 0
DWIDTH 7 0
BBX 11 14 -2 -2
BITMAP 
0000
0000
0600
0300
0180
0600
0300
0300
0c00
6600
6600
3c00
0000
0000
ENDCHAR
STARTCHAR U+10F1
ENCODING 4337
SWIDTH 500 0
DWIDTH 7 0
BBX 11 14 -2 -2
BITMAP 
0000
0000
0d00
1b00
1980
1a00
3300
3300
3400
6600
6600
3c00
0000
0000
ENDCHAR
STARTCHAR U+10F2
ENCODING 4338
SWIDTH 500 0
DWIDTH 7 0
BBX 11 14 -2 -2
BITMAP 
0000
0000
0000
0000
0000
0000
1e00
3300
3300
3600
3400
7e00
0000
0000
ENDCHAR
STARTCHAR U+10F3
ENCODING 4339
SWIDTH 500 0
DWIDTH 7 0
BBX 11 14 -2 -2
BITMAP 
0000
0000
0000
0000
0000
0000
1f00
0300
0c00
1e00
0600
0600
cc00
7800
ENDCHAR
STARTCHAR U+10F4
ENCODING 4340
SWIDTH 500 0
DWIDTH 7 0
BBX 11 14 -2 -2
BITMAP 
0000
0000
0000
0600
0c00
0600
0300
0300
0c00
0600
0600
6600
6c00
3800
ENDCHAR
STARTCHAR U+10F5
ENCODING 4341
SWIDTH 500 0
DWIDTH 7 0
BBX 11 14 -2 -2
BITMAP 
0000
0000
0000
0e00
1b00
1b00
0f00
0600
1f00
3400
6c00
3800
0000
0000
ENDCHAR
STARTCHAR U+10F6
ENCODING 4342
SWIDTH 500 0
DWIDTH 7 0
BBX 11 14 -2 -2
BITMAP 
0000
0000
0000
0000
0c00
0c00
0c00
1e00
3600
3a00
1c00
1800
1800
1800
ENDCHAR
STARTCHAR U+10FB
ENCODING 4347
SWIDTH 500 0
DWIDTH 7 0
BBX 11 14 -2 -2
BITMAP 
0000
0000
0000
0000
0000
0c00
3c00
1b00
0780
3600
7800
3000
0000
0000
ENDCHAR
STARTCHAR U+1161
ENCODING 4449
SWIDTH 500 0
DWIDTH 7 0
BBX 11 14 -2 -2
BITMAP 
0000
00c0
00c0
0180
0180
01c0
0300
0300
0000
0000
0000
0000
0000
0000
ENDCHAR
STARTCHAR U+1162
ENCODING 4450
SWIDTH 500 0
DWIDTH 7 0
BBX 11 14 -2 -2
BITMAP 
0000
01a0
01a0
0340
0340
03c0
0680
0680
0000
0000
0000
0000
0000
0000
ENDCHAR
STARTCHAR U+1163
ENCODING 4451
SWIDTH 500 0
DWIDTH 7 0
BBX 11 14 -2 -2
BITMAP 
0000
00c0
00c0
01c0
0180
01c0
0300
0300
0000
0000
0000
0000
0000
0000
ENDCHAR
STARTCHAR U+1164
ENCODING 4452
SWIDTH 500 0
DWIDTH 7 0
BBX 11 14 -2 -2
BITMAP 
0000
01a0
01a0
03c0
0340
0340
0780
0680
0000
0000
0000
0000
0000
0000
ENDCHAR
STARTCHAR U+1165
ENCODING 4453
SWIDTH 500 0
DWIDTH 7 0
BBX 11 14 -2 -2
BITMAP 
0000
00c0
00c0
0180
0180
0380
0300
0300
0000
0000
0000
0000
0000
0000
ENDCHAR
STARTCHAR U+1166
ENCODING 4454
SWIDTH 500 0
DWIDTH 7 0
BBX 11 14 -2 -2
BITMAP 
0000
00e0
00e0
01c0
01c0
07c0
0380
0380
0000
0000
0000
0000
0000
0000
ENDCHAR
STARTCHAR U+1167
ENCODING 4455
SWIDTH 500 0
DWIDTH 7 0
BBX 11 14 -2 -2
BITMAP 
0000
00c0
00c0
0180
0380
0180
0700
0300
0000
0000
0000
0000
0000
0000
ENDCHAR
STARTCHAR U+1168
ENCODING 4456
SWIDTH 500 0
DWIDTH 7 0
BBX 11 14 -2 -2
BITMAP 
0000
00e0
00e0
01c0
03c0
01c0
0780
0380
0000
0000
0000
0000
0000
0000
ENDCHAR
STARTCHAR U+1169
ENCODING 4457
SWIDTH 500 0
DWIDTH 7 0
BBX 11 14 -2 -2
BITMAP 
0000
0000
0000
0000
0000
0600
0c00
3f80
0000
0000
0000
0000
0000
0000
ENDCHAR
STARTCHAR U+116A
ENCODING 4458
SWIDTH 500 0
DWIDTH 7 0
BBX 11 14 -2 -2
BITMAP 
0000
00c0
00c0
0180
0180
0d80
1b80
7f00
0000
0000
0000
0000
0000
0000
ENDCHAR
STARTCHAR U+116B
ENCODING 4459
SWIDTH 500 0
DWIDTH 7 0
BBX 11 14 -2 -2
BITMAP 
0000
00e0
00e0
01c0
01c0
0dc0
1b80
7f80
0000
0000
0000
0000
0000
0000
ENDCHAR
STARTCHAR U+116C
ENCODING 4460
SWIDTH 500 0
DWIDTH 7 0
BBX 11 14 -2 -2
BITMAP 
0000
00c0
00c0
0180
0180
0d80
1b00
7f00
0300
0000
0000
0000
0000
0000
ENDCHAR
STARTCHAR U+116D
ENCODING 4461
SWIDTH 500 0
DWIDTH 7 0
BBX 11 14 -2 -2
BITMAP 
0000
0000
0000
0000
0000
0d00
1a00
3f80
0000
0000
0000
0000
0000
0000
ENDCHAR
STARTCHAR U+116E
ENCODING 4462
SWIDTH 500 0
DWIDTH 7 0
BBX 11 14 -2 -2
BITMAP 
0000
0000
0000
0000
0000
0000
3f80
0c00
0c00
0000
0000
0000
0000
0000
ENDCHAR
STARTCHAR U+116F
ENCODING 4463
SWIDTH 500 0
DWIDTH 7 0
BBX 11 14 -2 -2
BITMAP 
0000
00c0
00c0
0180
0180
0180
7f00
1b00
1b00
0000
0000
0000
0000
0000
ENDCHAR
STARTCHAR U+1170
ENCODING 4464
SWIDTH 500 0
DWIDTH 7 0
BBX 11 14 -2 -2
BITMAP 
0000
00e0
00e0
01c0
01c0
01c0
7f80
1b80
1b80
0000
0000
0000
0000
0000
ENDCHAR
STARTCHAR U+1171
ENCODING 4465
SWIDTH 500 0
DWIDTH 7 0
BBX 11 14 -2 -2
BITMAP 
0000
00c0
00c0
0180
0180
0180
7f00
1b00
1b00
0000
0000
0000
0000
0000
ENDCHAR
STARTCHAR U+1172
ENCODING 4466
SWIDTH 500 0
DWIDTH 7 0
BBX 11 14 -2 -2
BITMAP 
0000
0000
0000
0000
0000
0000
3f80
1a00
1a00
0000
0000
0000
0000
0000
ENDCHAR
STARTCHAR U+1173
ENCODING 4467
SWIDTH 500 0
DWIDTH 7 0
BBX 11 14 -2 -2
BITMAP 
0000
0000
0000
0000
0000
0000
0000
3f80
0000
0000
0000
0000
0000
0000
ENDCHAR
STARTCHAR U+1174
ENCODING 4468
SWIDTH 500 0
DWIDTH 7 0
BBX 11 14 -2 -2
BITMAP 
0000
00c0
00c0
0180
0180
0180
0300
7f00
0300
0000
0000
0000
0000
0000
ENDCHAR
STARTCHAR U+1175
ENCODING 4469
SWIDTH 500 0
DWIDTH 7 0
BBX 11 14 -2 -2
BITMAP 
0000
00c0
00c0
0180
0180
0180
0300
0300
0000
0000
0000
0000
0000
0000
ENDCHAR
STARTCHAR U+11A8
ENCODING 4520
SWIDTH 500 0
DWIDTH 7 0
BBX 11 14 -2 -2
BITMAP 
0000
0000
0000
0000
0000
0000
0000
0000
0000
7e00
0600
0600
0c00
0000
ENDCHAR
STARTCHAR U+11A9
ENCODING 4521
SWIDTH 500 0
DWIDTH 7 0
BBX 11 14 -2 -2
BITMAP 
0000
0000
0000
0000
0000
0000
0000
0000
0000
7f00
1b00
1b00
3600
0000
ENDCHAR
STARTCHAR U+11AA
ENCODING 4522
SWIDTH 500 0
DWIDTH 7 0
BBX 11 14 -2 -2
BITMAP 
0000
0000
0000
0000
0000
0000
0000
0000
0000
7a00
1a00
1e00
3a00
0000
ENDCHAR
STARTCHAR U+11AB
ENCODING 4523
SWIDTH 500 0
DWIDTH 7 0
BBX 11 14 -2 -2
BITMAP 
0000
0000
0000
0000
0000
0000
0000
0000
0000
3000
3000
3000
7c00
0000
ENDCHAR
STARTCHAR U+11AC
ENCODING 4524
SWIDTH 500 0
DWIDTH 7 0
BBX 11 14 -2 -2
BITMAP 
0000
0000
0000
0000
0000
0000
0000
0000
0000
6f00
6600
6e00
fa00
0000
ENDCHAR
STARTCHAR U+11AD
ENCODING 4525
SWIDTH 500 0
DWIDTH 7 0
BBX 11 14 -2 -2
BITMAP 
0000
0000
0000
0000
0000
0000
0000
0000
0000
6e00
6f00
6e00
fa00
1c00
ENDCHAR
STARTCHAR U+11AE
ENCODING 4526
SWIDTH 500 0
DWIDTH 7 0
BBX 11 14 -2 -2
BITMAP 
0000
0000
0000
0000
0000
0000
0000
0000
0000
3e00
3000
3000
6000
7c00
ENDCHAR
STARTCHAR U+11AF
ENCODING 4527
SWIDTH 500 0
DWIDTH 7 0
BBX 11 14 -2 -2
BITMAP 
0000
0000
0000
0000
0000
0000
0000
0000
0000
7e00
0600
7e00
c000
fc00
ENDCHAR
STARTCHAR U+11B0
ENCODING 4528
SWIDTH 500 0
DWIDTH 7 0
BBX 11 14 -2 -2
BITMAP 
0000
0000
0000
0000
0000
0000
0000
0000
0000
7f00
1b00
7b00
c600
f600
ENDCHAR
STARTCHAR U+11B1
ENCODING 4529
SWIDTH 500 0
DWIDTH 7 0
BBX 11 14 -2 -2
BITMAP 
0000
0000
0000
0000
0000
0000
0000
0000
0000
7f00
1d00
7d00
da00
fe00
ENDCHAR
STARTCHAR U+11B2
ENCODING 4530
SWIDTH 500 0
DWIDTH 7 0
BBX 11 14 -2 -2
BITMAP 
0000
0000
0000
0000
0000
0000
0000
0000
0000
7d00
1d00
7f00
da00
fe00
ENDCHAR
STARTCHAR U+11B3
ENCODING 4531
SWIDTH 500 0
DWIDTH 7 0
BBX 11 14 -2 -2
BITMAP 
0000
0000
0000
0000
0000
0000
0000
0000
0000
7a00
1a00
7a00
dc00
fa00
ENDCHAR
STARTCHAR U+11B4
ENCODING 4532
SWIDTH 500 0
DWIDTH 7 0
BBX 11 14 -2 -2
BITMAP 
0000
0000
0000
0000
0000
0000
0000
0000
0000
7f00
1b00
7f00
d800
fe00
ENDCHAR
STARTCHAR U+11B5
ENCODING 4533
SWIDTH 500 0
DWIDTH 7 0
BBX 11 14 -2 -2
BITMAP 
0000
0000
0000
0000
0000
0000
0000
0000
0000
7f00
1a00
7a00
dc00
fa00
ENDCHAR
STARTCHAR U+11B6
ENCODING 4534
SWIDTH 500 0
DWIDTH 7 0
BBX 11 14 -2 -2
BITMAP 
0000
0000
0000
0000
0000
0000
0000
0000
0000
7e00
1f00
7e00
da00
fc00
ENDCHAR
STARTCHAR U+11B7
ENCODING 4535
SWIDTH 500 0
DWIDTH 7 0
BBX 11 14 -2 -2
BITMAP 
0000
0000
0000
0000
0000
0000
0000
0000
0000
3e00
3600
3600
6c00
7c00
ENDCHAR
STARTCHAR U+11B8
ENCODING 4536
SWIDTH 500 0
DWIDTH 7 0
BBX 11 14 -2 -2
BITMAP 
0000
0000
0000
0000
0000
0000
0000
0000
0000
3600
3600
3e00
6c00
7c00
ENDCHAR
STARTCHAR U+11B9
ENCODING 4537
SWIDTH 500 0
DWIDTH 7 0
BBX 11 14 -2 -2
BITMAP 
0000
0000
0000
0000
0000
0000
0000
0000
0000
6a00
6a00
7a00
dc00
fa00
ENDCHAR
STARTCHAR U+11BA
ENCODING 4538
SWIDTH 500 0
DWIDTH 7 0
BBX 11 14 -2 -2
BITMAP 
0000
0000
0000
0000
0000
0000
0000
0000
0000
1800
1800
1800
3800
6c00
ENDCHAR
STARTCHAR U+11BB
ENCODING 4539
SWIDTH 500 0
DWIDTH 7 0
BBX 11 14 -2 -2
BITMAP 
0000
0000
0000
0000
0000
0000
0000
0000
0000
3600
3600
3600
6c00
da00
ENDCHAR
STARTCHAR U+11BC
ENCODING 4540
SWIDTH 500 0
DWIDTH 7 0
BBX 11 14 -2 -2
BITMAP 
0000
0000
0000
0000
0000
0000
0000
0000
0000
3c00
3600
3600
6c00
7800
ENDCHAR
STARTCHAR U+11BD
ENCODING 4541
SWIDTH 500 0
DWIDTH 7 0
BBX 11 14 -2 -2
BITMAP 
0000
0000
0000
0000
0000
0000
0000
0000
0000
0000
7e00
1800
3800
ec00
ENDCHAR
STARTCHAR U+11BE
ENCODING 4542
SWIDTH 500 0
DWIDTH 7 0
BBX 11 14 -2 -2
BITMAP 
0000
0000
0000
0000
0000
0000
0000
0000
0000
1c00
0000
7e00
3800
ec00
ENDCHAR
STARTCHAR U+11BF
ENCODING 4543
SWIDTH 500 0
DWIDTH 7 0
BBX 11 14 -2 -2
BITMAP 
0000
0000
0000
0000
0000
0000
0000
0000
0000
3e00
0600
3e00
0c00
0c00
ENDCHAR
STARTCHAR U+11C0
ENCODING 4544
SWIDTH 500 0
DWIDTH 7 0
BBX 11 14 -2 -2
BITMAP 
0000
0000
0000
0000
0000
0000
0000
0000
0000
3e00
3000
3e00
6000
7c00
ENDCHAR
STARTCHAR U+11C1
ENCODING 4545
SWIDTH 500 0
DWIDTH 7 0
BBX 11 14 -2 -2
BITMAP 
0000
0000
0000
0000
0000
0000
0000
0000
0000
7e00
3400
3400
fc00
0000
ENDCHAR
STARTCHAR U+11C2
ENCODING 4546
SWIDTH 500 0
DWIDTH 7 0
BBX 11 14 -2 -2
BITMAP 
0000
0000
0000
0000
0000
0000
0000
0000
0000
1800
7e00
3c00
6c00
7800
ENDCHAR
STARTCHAR U+16A0
ENCODING 5792
SWIDTH 500 0
DWIDTH 7 0
BBX 11 14 -2 -2
BITMAP 
0000
0000
0d80
1a00
1c00
1b00
3400
3800
3000
6000
6000
6000
0000
0000
ENDCHAR
STARTCHAR U+16A2
ENCODING 5794
SWIDTH 500 0
DWIDTH 7 0
BBX 11 14 -2 -2
BITMAP 
0000
0000
0e00
1a00
1b00
1b00
3300
3300
3300
6600
6600
6600
0000
0000
ENDCHAR
STARTCHAR U+16A3
ENCODING 5795
SWIDTH 500 0
DWIDTH 7 0
BBX 11 14 -2 -2
BITMAP 
0000
0000
0700
0d00
1980
1980
3300
3500
3500
6a00
6a00
6a00
0000
0000
ENDCHAR
STARTCHAR U+16A6
ENCODING 5798
SWIDTH 500 0
DWIDTH 7 0
BBX 11 14 -2 -2
BITMAP 
0000
0000
0c00
1800
1c00
1a00
3600
3600
3400
7800
6000
6000
0000
0000
ENDCHAR
STARTCHAR U+16A9
ENCODING 5801
SWIDTH 500 0
DWIDTH 7 0
BBX 11 14 -2 -2
BITMAP 
0000
0000
0dc0
1d00
1a00
1b80
3a00
3400
3000
6000
6000
6000
0000
0000
ENDCHAR
STARTCHAR U+16AA
ENCODING 5802
SWIDTH 500 0
DWIDTH 7 0
BBX 11 14 -2 -2
BITMAP 
0000
0000
0dc0
1d00
1a00
1800
3800
3400
3600
6000
6000
6000
0000
0000
ENDCHAR
STARTCHAR U+16AB
ENCODING 5803
SWIDTH 500 0
DWIDTH 7 0
BBX 11 14 -2 -2
BITMAP 
0000
0000
0c00
1c00
1a00
1b00
3800
3400
3600
6000
6000
6000
0000
0000
ENDCHAR
STARTCHAR U+16B1
ENCODING 5809
SWIDTH 500 0
DWIDTH 7 0
BBX 11 14 -2 -2
BITMAP 
0000
0000
0e00
1a00
1b00
1e00
3800
3400
3600
6000
6000
6000
0000
0000
ENDCHAR
STARTCHAR U+16B3
ENCODING 5811
SWIDTH 500 0
DWIDTH 7 0
BBX 11 14 -2 -2
BITMAP 
0000
0000
0c00
1800
1c00
1a00
3600
3600
3600
6600
6600
6600
0000
0000
ENDCHAR
STARTCHAR U+16B7
ENCODING 5815
SWIDTH 500 0
DWIDTH 7 0
BBX 11 14 -2 -2
BITMAP 
0000
0000
0d80
0d80
0d00
0e00
0600
0c00
1c00
3400
6600
6600
0000
0000
ENDCHAR
STARTCHAR U+16B8
ENCODING 5816
SWIDTH 500 0
DWIDTH 7 0
BBX 11 14 -2 -2
BITMAP 
0000
0000
0d80
0d80
0f00
0f00
1d00
3500
3400
3e00
6600
6600
0000
0000
ENDCHAR
STARTCHAR U+16B9
ENCODING 5817
SWIDTH 500 0
DWIDTH 7 0
BBX 11 14 -2 -2
BITMAP 
0000
0000
0e00
1a00
1b00
1e00
3800
3000
3000
6000
6000
6000
0000
0000
ENDCHAR
STARTCHAR U+16BB
ENCODING 5819
SWIDTH 500 0
DWIDTH 7 0
BBX 11 14 -2 -2
BITMAP 
0000
0000
0cc0
1980
1980
1d80
3500
3700
3b00
6a00
6e00
6600
0000
0000
ENDCHAR
STARTCHAR U+16BE
ENCODING 5822
SWIDTH 500 0
DWIDTH 7 0
BBX 11 14 -2 -2
BITMAP 
0000
0000
0300
0600
1a00
0e00
0c00
0e00
0d00
1800
1800
1800
0000
0000
ENDCHAR
STARTCHAR U+16C1
ENCODING 5825
SWIDTH 500 0
DWIDTH 7 0
BBX 11 14 -2 -2
BITMAP 
0000
0000
0300
0600
0600
0600
0c00
0c00
0c00
1800
1800
1800
0000
0000
ENDCHAR
STARTCHAR U+16C4
ENCODING 5828
SWIDTH 500 0
DWIDTH 7 0
BBX 11 14 -2 -2
BITMAP 
0000
0000
0300
0600
0f00
1b00
3500
3500
1e00
1800
1800
1800
0000
0000
ENDCHAR
STARTCHAR U+16C7
ENCODING 5831
SWIDTH 500 0
DWIDTH 7 0
BBX 11 14 -2 -2
BITMAP 
0000
0000
0300
0700
0680
0600
0c00
0c00
0c00
6800
3800
1800
0000
0000
ENDCHAR
STARTCHAR U+16C8
ENCODING 5832
SWIDTH 500 0
DWIDTH 7 0
BBX 11 14 -2 -2
BITMAP 
0000
0000
0dc0
1d00
1a00
1800
3000
3000
3000
6800
7400
6600
0000
0000
ENDCHAR
STARTCHAR U+16C9
ENCODING 5833
SWIDTH 500 0
DWIDTH 7 0
BBX 11 14 -2 -2
BITMAP 
0000
0000
0d40
1a80
1a80
1b00
1e00
0c00
0c00
1800
1800
1800
0000
0000
ENDCHAR
STARTCHAR U+16CB
ENCODING 5835
SWIDTH 500 0
DWIDTH 7 0
BBX 11 14 -2 -2
BITMAP 
0000
0000
0c00
1800
1980
1b80
3500
3b00
3300
0600
0600
0600
0000
0000
ENDCHAR
STARTCHAR U+16CF
ENCODING 5839
SWIDTH 500 0
DWIDTH 7 0
BBX 11 14 -2 -2
BITMAP 
0000
0000
0300
0f00
1a80
0600
0c00
0c00
0c00
1800
1800
1800
0000
0000
ENDCHAR
STARTCHAR U+16D2
ENCODING 5842
SWIDTH 500 0
DWIDTH 7 0
BBX 11 14 -2 -2
BITMAP 
0000
0000
0e00
1a00
1b00
1e00
3800
3800
3400
6c00
6800
7000
0000
0000
ENDCHAR
STARTCHAR U+16D6
ENCODING 5846
SWIDTH 500 0
DWIDTH 7 0
BBX 11 14 -2 -2
BITMAP 
0000
0000
0cc0
1d80
1a80
1980
3300
3300
3300
6600
6600
6600
0000
0000
ENDCHAR
STARTCHAR U+16D7
ENCODING 5847
SWIDTH 500 0
DWIDTH 7 0
BBX 11 14 -2 -2
BITMAP 
0000
0000
0cc0
1d80
1a80
1d80
3300
3300
3300
6600
6600
6600
0000
0000
ENDCHAR
STARTCHAR U+16DA
ENCODING 5850
SWIDTH 500 0
DWIDTH 7 0
BBX 11 14 -2 -2
BITMAP 
0000
0000
0c00
1c00
1a00
1b00
3000
3000
3000
6000
6000
6000
0000
0000
ENDCHAR
STARTCHAR U+16DD
ENCODING 5853
SWIDTH 500 0
DWIDTH 7 0
BBX 11 14 -2 -2
BITMAP 
0000
0000
0dc0
0d00
0600
0d00
1b00
3300
1a00
1c00
3400
6600
0000
0000
ENDCHAR
STARTCHAR U+16DE
ENCODING 5854
SWIDTH 500 0
DWIDTH 7 0
BBX 11 14 -2 -2
BITMAP 
0000
0000
0cc0
1980
1980
1f80
3500
3b00
3300
6600
6600
6600
0000
0000
ENDCHAR
STARTCHAR U+16DF
ENCODING 5855
SWIDTH 500 0
DWIDTH 7 0
BBX 11 14 -2 -2
BITMAP 
0000
0000
0700
0d00
1980
1b00
1a00
0c00
1c00
3400
6600
6600
0000
0000
ENDCHAR
STARTCHAR U+16E0
ENCODING 5856
SWIDTH 500 0
DWIDTH 7 0
BBX 11 14 -2 -2
BITMAP 
0000
0000
0d40
0e80
0700
0600
0c00
0c00
0c00
1800
1800
1800
0000
0000
ENDCHAR
STARTCHAR U+16E1
ENCODING 5857
SWIDTH 500 0
DWIDTH 7 0
BBX 11 14 -2 -2
BITMAP 
0000
0000
0d40
0e80
0700
0600
1e00
3500
3500
1800
1800
1800
0000
0000
ENDCHAR
STARTCHAR U+16E2
ENCODING 5858
SWIDTH 500 0
DWIDTH 7 0
BBX 11 14 -2 -2
BITMAP 
0000
0000
0300
0600
0600
0600
0c00
1e00
3600
6a00
6a00
6a00
0000
0000
ENDCHAR
STARTCHAR U+16E5
ENCODING 5861
SWIDTH 500 0
DWIDTH 7 0
BBX 11 14 -2 -2
BITMAP 
0000
0000
0cc0
1d80
1a80
1980
3300
3300
3300
6a00
7600
6600
0000
0000
ENDCHAR
STARTCHAR U+16EB
ENCODING 5867
SWIDTH 500 0
DWIDTH 7 0
BBX 11 14 -2 -2
BITMAP 
0000
0000
0000
0000
0000
0000
0c00
0c00
0000
0000
0000
0000
0000
0000
ENDCHAR
STARTCHAR U+16EC
ENCODING 5868
SWIDTH 500 0
DWIDTH 7 0
BBX 11 14 -2 -2
BITMAP 
0000
0000
0000
0000
0600
0600
0000
0000
0c00
1800
0000
0000
0000
0000
ENDCHAR
STARTCHAR U+16ED
ENCODING 5869
SWIDTH 500 0
DWIDTH 7 0
BBX 11 14 -2 -2
BITMAP 
0000
0000
0000
0000
0000
1b00
1c00
1c00
3600
0000
0000
0000
0000
0000
ENDCHAR
STARTCHAR U+1E02
ENCODING 7682
SWIDTH 500 0
DWIDTH 7 0
BBX 11 14 -2 -2
BITMAP 
0300
0300
0000
1f80
0cc0
0cc0
1980
1e00
1b00
3300
3300
7e00
0000
0000
ENDCHAR
STARTCHAR U+1E03
ENCODING 7683
SWIDTH 500 0
DWIDTH 7 0
BBX 11 14 -2 -2
BITMAP 
0300
0300
0000
1800
1800
1f00
3980
3180
3180
6300
7300
6e00
0000
0000
ENDCHAR
STARTCHAR U+1E0A
ENCODING 7690
SWIDTH 500 0
DWIDTH 7 0
BBX 11 14 -2 -2
BITMAP 
0300
0300
0000
1f80
0cc0
0cc0
1980
1980
1980
3300
3300
7e00
0000
0000
ENDCHAR
STARTCHAR U+1E0B
ENCODING 7691
SWIDTH 500 0
DWIDTH 7 0
BBX 11 14 -2 -2
BITMAP 
0180
0180
0000
00c0
00c0
0ec0
1b80
3180
3180
6300
6700
3d00
0000
0000
ENDCHAR
STARTCHAR U+1E10
ENCODING 7696
SWIDTH 500 0
DWIDTH 7 0
BBX 11 14 -2 -2
BITMAP 
0000
0000
0000
1f80
0cc0
0cc0
1980
1980
1980
3300
3300
7e00
3000
6000
ENDCHAR
STARTCHAR U+1E11
ENCODING 7697
SWIDTH 500 0
DWIDTH 7 0
BBX 11 14 -2 -2
BITMAP 
0000
0000
0000
00c0
00c0
0ec0
1b80
3180
3180
6300
6700
3d00
3000
6000
ENDCHAR
STARTCHAR U+1E1E
ENCODING 7710
SWIDTH 500 0
DWIDTH 7 0
BBX 11 14 -2 -2
BITMAP 
0300
0300
0000
1fc0
1800
1800
3000
3f00
3000
6000
6000
6000
0000
0000
ENDCHAR
STARTCHAR U+1E1F
ENCODING 7711
SWIDTH 500 0
DWIDTH 7 0
BBX 11 14 -2 -2
BITMAP 
0180
0180
0000
0380
0600
0600
3f00
0c00
0c00
1800
1800
1800
0000
0000
ENDCHAR
STARTCHAR U+1E2C
ENCODING 7724
SWIDTH 500 0
DWIDTH 7 0
BBX 11 14 -2 -2
BITMAP 
0000
0000
0fc0
0600
0600
0600
0c00
0c00
0c00
1800
7e00
0000
7400
d800
ENDCHAR
STARTCHAR U+1E2D
ENCODING 7725
SWIDTH 500 0
DWIDTH 7 0
BBX 11 14 -2 -2
BITMAP 
0000
0000
0300
0600
0000
0e00
0c00
0c00
0c00
1800
7e00
0000
7400
d800
ENDCHAR
STARTCHAR U+1E2E
ENCODING 7726
SWIDTH 500 0
DWIDTH 7 0
BBX 11 14 -2 -2
BITMAP 
0180
0300
0680
0000
1f80
0600
0c00
0c00
0c00
1800
1800
7e00
0000
0000
ENDCHAR
STARTCHAR U+1E2F
ENCODING 7727
SWIDTH 500 0
DWIDTH 7 0
BBX 11 14 -2 -2
BITMAP 
0180
0300
0000
0d00
0000
0e00
0c00
0c00
0c00
1800
1800
7e00
0000
0000
ENDCHAR
STARTCHAR U+1E30
ENCODING 7728
SWIDTH 500 0
DWIDTH 7 0
BBX 11 14 -2 -2
BITMAP 
01c0
0700
0000
18c0
1980
1b00
3400
3800
3400
6c00
6600
6300
0000
0000
ENDCHAR
STARTCHAR U+1E31
ENCODING 7729
SWIDTH 500 0
DWIDTH 7 0
BBX 11 14 -2 -2
BITMAP 
01c0
0700
0000
1800
1800
1b80
3600
3400
3800
6800
6c00
6600
0000
0000
ENDCHAR
STARTCHAR U+1E37
ENCODING 7735
SWIDTH 500 0
DWIDTH 7 0
BBX 11 14 -2 -2
BITMAP 
0000
0000
0700
0600
0600
0600
0c00
0c00
0c00
1800
1800
7e00
0000
3000
ENDCHAR
STARTCHAR U+1E39
ENCODING 7737
SWIDTH 500 0
DWIDTH 7 0
BBX 11 14 -2 -2
BITMAP 
0000
0f80
0000
0e00
0600
0600
0c00
0c00
0c00
1800
1800
7e00
0000
3000
ENDCHAR
STARTCHAR U+1E3B
ENCODING 7739
SWIDTH 500 0
DWIDTH 7 0
BBX 11 14 -2 -2
BITMAP 
0000
0000
0700
0600
0600
0600
0c00
0c00
0c00
1800
1800
7e00
0000
fc00
ENDCHAR
STARTCHAR U+1E3D
ENCODING 7741
SWIDTH 500 0
DWIDTH 7 0
BBX 11 14 -2 -2
BITMAP 
0000
0000
0700
0600
0600
0600
0c00
0c00
0c00
1800
1800
7e00
3000
6800
ENDCHAR
STARTCHAR U+1E3E
ENCODING 7742
SWIDTH 500 0
DWIDTH 7 0
BBX 11 14 -2 -2
BITMAP 
0380
0f60
0f40
1d80
1d80
1f80
3f00
3d00
3500
6a00
6600
7700
0000
0000
ENDCHAR
STARTCHAR U+1E3F
ENCODING 7743
SWIDTH 500 0
DWIDTH 7 0
BBX 11 14 -2 -2
BITMAP 
0000
0000
0700
0c00
0000
1f00
3500
3500
3500
6a00
6a00
6600
0000
0000
ENDCHAR
STARTCHAR U+1E40
ENCODING 7744
SWIDTH 500 0
DWIDTH 7 0
BBX 11 14 -2 -2
BITMAP 
0300
0300
0000
18c0
1dc0
1dc0
3680
3680
3180
6300
6300
6300
0000
0000
ENDCHAR
STARTCHAR U+1E41
ENCODING 7745
SWIDTH 500 0
DWIDTH 7 0
BBX 11 14 -2 -2
BITMAP 
0000
0000
0300
0600
0000
1f00
3500
3500
3500
6a00
6a00
6600
0000
0000
ENDCHAR
STARTCHAR U+1E43
ENCODING 7747
SWIDTH 500 0
DWIDTH 7 0
BBX 11 14 -2 -2
BITMAP 
0000
0000
0000
0000
0000
1f00
3500
3500
3500
6a00
6a00
6600
0000
1800
ENDCHAR
STARTCHAR U+1E56
ENCODING 7766
SWIDTH 500 0
DWIDTH 7 0
BBX 11 14 -2 -2
BITMAP 
0300
0300
0000
1f80
18c0
18c0
3180
3f00
3000
6000
6000
6000
0000
0000
ENDCHAR
STARTCHAR U+1E57
ENCODING 7767
SWIDTH 500 0
DWIDTH 7 0
BBX 11 14 -2 -2
BITMAP 
0000
0000
0180
0300
0000
1f00
3980
3180
3180
6300
7300
6e00
c000
c000
ENDCHAR
STARTCHAR U+1E60
ENCODING 7776
SWIDTH 500 0
DWIDTH 7 0
BBX 11 14 -2 -2
BITMAP 
0300
0300
0000
0f80
18c0
1800
0c00
0600
0300
6300
6300
3e00
0000
0000
ENDCHAR
STARTCHAR U+1E61
ENCODING 7777
SWIDTH 500 0
DWIDTH 7 0
BBX 11 14 -2 -2
BITMAP 
0000
0000
0300
0600
0000
0f00
1980
3000
1e00
0300
6300
3e00
0000
0000
ENDCHAR
STARTCHAR U+1E6A
ENCODING 7786
SWIDTH 500 0
DWIDTH 7 0
BBX 11 14 -2 -2
BITMAP 
0300
0300
0000
3fc0
0600
0600
0c00
0c00
0c00
1800
1800
1800
0000
0000
ENDCHAR
STARTCHAR U+1E6B
ENCODING 7787
SWIDTH 500 0
DWIDTH 7 0
BBX 11 14 -2 -2
BITMAP 
0300
0300
0000
0600
0600
1f80
0c00
0c00
0c00
1800
1b00
0e00
0000
0000
ENDCHAR
STARTCHAR U+1E6D
ENCODING 7789
SWIDTH 500 0
DWIDTH 7 0
BBX 11 14 -2 -2
BITMAP 
0000
0000
0600
0c00
0c00
3f00
1800
1800
1800
3000
3600
1c00
0000
3000
ENDCHAR
STARTCHAR U+1E7D
ENCODING 7805
SWIDTH 500 0
DWIDTH 7 0
BBX 11 14 -2 -2
BITMAP 
0000
0000
0ec0
1b00
0000
1980
3300
3300
3600
3400
1800
1800
0000
0000
ENDCHAR
STARTCHAR U+1E7F
ENCODING 7807
SWIDTH 500 0
DWIDTH 7 0
BBX 11 14 -2 -2
BITMAP 
0000
0000
0000
0000
0000
1980
3300
3300
3600
3400
1800
1800
0000
3000
ENDCHAR
STARTCHAR U+1E80
ENCODING 7808
SWIDTH 500 0
DWIDTH 7 0
BBX 11 14 -2 -2
BITMAP 
0700
01c0
0000
18c0
18c0
18c0
3180
3680
3e80
7700
7700
6300
0000
0000
ENDCHAR
STARTCHAR U+1E81
ENCODING 7809
SWIDTH 500 0
DWIDTH 7 0
BBX 11 14 -2 -2
BITMAP 
0000
0000
0e00
0300
0000
1980
3500
3500
3500
6a00
6a00
3400
0000
0000
ENDCHAR
STARTCHAR U+1E82
ENCODING 7810
SWIDTH 500 0
DWIDTH 7 0
BBX 11 14 -2 -2
BITMAP 
01c0
0700
0000
18c0
18c0
18c0
3180
3680
3e80
7700
7700
6300
0000
0000
ENDCHAR
STARTCHAR U+1E83
ENCODING 7811
SWIDTH 500 0
DWIDTH 7 0
BBX 11 14 -2 -2
BITMAP 
0000
0000
03c0
0e00
0000
1980
3500
3500
3500
6a00
6a00
3400
0000
0000
ENDCHAR
STARTCHAR U+1E84
ENCODING 7812
SWIDTH 500 0
DWIDTH 7 0
BBX 11 14 -2 -2
BITMAP 
06c0
06c0
0000
18c0
18c0
18c0
3180
3680
3e80
7700
7700
6300
0000
0000
ENDCHAR
STARTCHAR U+1E85
ENCODING 7813
SWIDTH 500 0
DWIDTH 7 0
BBX 11 14 -2 -2
BITMAP 
0000
0000
0680
0d00
0000
1980
3500
3500
3500
6a00
6a00
3400
0000
0000
ENDCHAR
STARTCHAR U+1E87
ENCODING 7815
SWIDTH 500 0
DWIDTH 7 0
BBX 11 14 -2 -2
BITMAP 
0000
0000
0000
0600
0000
1980
3300
3500
3500
6a00
6a00
3400
0000
0000
ENDCHAR
STARTCHAR U+1E89
ENCODING 7817
SWIDTH 500 0
DWIDTH 7 0
BBX 11 14 -2 -2
BITMAP 
0000
0000
0000
0000
0000
1980
3300
3500
3500
6a00
6a00
3400
0000
3000
ENDCHAR
STARTCHAR U+1E8E
ENCODING 7822
SWIDTH 500 0
DWIDTH 7 0
BBX 11 14 -2 -2
BITMAP 
0000
0300
0000
1980
1980
1b00
1a00
0c00
0c00
1800
1800
1800
0000
0000
ENDCHAR
STARTCHAR U+1E98
ENCODING 7832
SWIDTH 500 0
DWIDTH 7 0
BBX 11 14 -2 -2
BITMAP 
0000
0300
0680
0700
0000
1980
3300
3500
3500
6a00
6a00
3400
0000
0000
ENDCHAR
STARTCHAR U+1EF2
ENCODING 7922
SWIDTH 500 0
DWIDTH 7 0
BBX 11 14 -2 -2
BITMAP 
0e00
0380
0000
1980
1980
1b00
1a00
0c00
0c00
1800
1800
1800
0000
0000
ENDCHAR
STARTCHAR U+1EF3
ENCODING 7923
SWIDTH 500 0
DWIDTH 7 0
BBX 11 14 -2 -2
BITMAP 
0000
0000
0700
0180
0000
18c0
3180
3180
3180
3700
1d00
0300
0600
7c00
ENDCHAR
STARTCHAR U+1EF4
ENCODING 7924
SWIDTH 500 0
DWIDTH 7 0
BBX 11 14 -2 -2
BITMAP 
0000
0000
0cc0
1980
1980
1b00
1a00
0c00
0c00
1800
1800
1800
0000
3000
ENDCHAR
STARTCHAR U+1EF6
ENCODING 7926
SWIDTH 500 0
DWIDTH 7 0
BBX 11 14 -2 -2
BITMAP 
0300
0680
0300
0600
1980
1b00
1a00
0c00
0c00
1800
1800
1800
0000
0000
ENDCHAR
STARTCHAR U+1EF8
ENCODING 7928
SWIDTH 500 0
DWIDTH 7 0
BBX 11 14 -2 -2
BITMAP 
0740
0d80
0000
1980
1980
1b00
1a00
0c00
0c00
1800
1800
1800
0000
0000
ENDCHAR
STARTCHAR U+1F00
ENCODING 7936
SWIDTH 500 0
DWIDTH 7 0
BBX 11 14 -2 -2
BITMAP 
0000
0700
0600
0c00
0000
0e80
1a80
3300
3300
6600
6d00
3b00
0000
0000
ENDCHAR
STARTCHAR U+1F01
ENCODING 7937
SWIDTH 500 0
DWIDTH 7 0
BBX 11 14 -2 -2
BITMAP 
0000
0700
0600
0600
0000
0e80
1a80
3300
3300
6600
6d00
3b00
0000
0000
ENDCHAR
STARTCHAR U+1F02
ENCODING 7938
SWIDTH 500 0
DWIDTH 7 0
BBX 11 14 -2 -2
BITMAP 
0000
0e80
0d80
1980
0000
0e80
1a80
3300
3300
6600
6d00
3b00
0000
0000
ENDCHAR
STARTCHAR U+1F03
ENCODING 7939
SWIDTH 500 0
DWIDTH 7 0
BBX 11 14 -2 -2
BITMAP 
0000
0e80
0d80
0d80
0000
0e80
1a80
3300
3300
6600
6d00
3b00
0000
0000
ENDCHAR
STARTCHAR U+1F04
ENCODING 7940
SWIDTH 500 0
DWIDTH 7 0
BBX 11 14 -2 -2
BITMAP 
0000
0ec0
0d80
1b00
0000
0e80
1a80
3300
3300
6600
6d00
3b00
0000
0000
ENDCHAR
STARTCHAR U+1F05
ENCODING 7941
SWIDTH 500 0
DWIDTH 7 0
BBX 11 14 -2 -2
BITMAP 
0000
0ec0
0d80
0d00
0000
0e80
1a80
3300
3300
6600
6d00
3b00
0000
0000
ENDCHAR
STARTCHAR U+1F06
ENCODING 7942
SWIDTH 500 0
DWIDTH 7 0
BBX 11 14 -2 -2
BITMAP 
0ec0
1b80
0700
0600
0c00
0000
1d80
3680
3700
6600
6d00
3b00
0000
0000
ENDCHAR
STARTCHAR U+1F07
ENCODING 7943
SWIDTH 500 0
DWIDTH 7 0
BBX 11 14 -2 -2
BITMAP 
0ec0
1b80
0700
0c00
0600
0000
1d80
3680
3700
6600
6d00
3b00
0000
0000
ENDCHAR
STARTCHAR U+1F08
ENCODING 7944
SWIDTH 500 0
DWIDTH 7 0
BBX 11 14 -2 -2
BITMAP 
1c00
0c00
1800
0700
0700
0d00
1b00
1f00
3300
6300
6300
6300
0000
0000
ENDCHAR
STARTCHAR U+1F09
ENCODING 7945
SWIDTH 500 0
DWIDTH 7 0
BBX 11 14 -2 -2
BITMAP 
1c00
1800
0c00
0700
0700
0d00
1b00
1f00
3300
6300
6300
6300
0000
0000
ENDCHAR
STARTCHAR U+1F0A
ENCODING 7946
SWIDTH 500 0
DWIDTH 7 0
BBX 11 14 -2 -2
BITMAP 
1d00
0d00
1980
0700
0700
0d00
1b00
1f00
3300
6300
6300
6300
0000
0000
ENDCHAR
STARTCHAR U+1F0B
ENCODING 7947
SWIDTH 500 0
DWIDTH 7 0
BBX 11 14 -2 -2
BITMAP 
1d00
1b00
0d80
0700
0700
0d00
1b00
1f00
3300
6300
6300
6300
0000
0000
ENDCHAR
STARTCHAR U+1F0C
ENCODING 7948
SWIDTH 500 0
DWIDTH 7 0
BBX 11 14 -2 -2
BITMAP 
1d80
0d00
1b00
0700
0700
0d00
1b00
1f00
3300
6300
6300
6300
0000
0000
ENDCHAR
STARTCHAR U+1F0D
ENCODING 7949
SWIDTH 500 0
DWIDTH 7 0
BBX 11 14 -2 -2
BITMAP 
1d80
1b00
0d00
0700
0700
0d00
1b00
1f00
3300
6300
6300
6300
0000
0000
ENDCHAR
STARTCHAR U+1F0E
ENCODING 7950
SWIDTH 500 0
DWIDTH 7 0
BBX 11 14 -2 -2
BITMAP 
0ec0
1b80
0e00
0600
1b00
0700
0d00
1b00
1f00
3300
6300
6300
0000
0000
ENDCHAR
STARTCHAR U+1F0F
ENCODING 7951
SWIDTH 500 0
DWIDTH 7 0
BBX 11 14 -2 -2
BITMAP 
0ec0
1b80
1e00
1800
0f00
0700
0d00
1b00
1f00
3300
6300
6300
0000
0000
ENDCHAR
STARTCHAR U+1F10
ENCODING 7952
SWIDTH 500 0
DWIDTH 7 0
BBX 11 14 -2 -2
BITMAP 
0000
0380
0300
0600
0000
0f80
1800
3000
3e00
6000
6000
3e00
0000
0000
ENDCHAR
STARTCHAR U+1F11
ENCODING 7953
SWIDTH 500 0
DWIDTH 7 0
BBX 11 14 -2 -2
BITMAP 
0000
0380
0300
0300
0000
0f80
1800
3000
3e00
6000
6000
3e00
0000
0000
ENDCHAR
STARTCHAR U+1F12
ENCODING 7954
SWIDTH 500 0
DWIDTH 7 0
BBX 11 14 -2 -2
BITMAP 
0000
0e80
0d80
1980
0000
0f80
1800
3000
3e00
6000
6000
3e00
0000
0000
ENDCHAR
STARTCHAR U+1F13
ENCODING 7955
SWIDTH 500 0
DWIDTH 7 0
BBX 11 14 -2 -2
BITMAP 
0000
0e80
0d80
0d80
0000
0f80
1800
3000
3e00
6000
6000
3e00
0000
0000
ENDCHAR
STARTCHAR U+1F14
ENCODING 7956
SWIDTH 500 0
DWIDTH 7 0
BBX 11 14 -2 -2
BITMAP 
0000
0ec0
0d80
1b00
0000
0f80
1800
3000
3e00
6000
6000
3e00
0000
0000
ENDCHAR
STARTCHAR U+1F15
ENCODING 7957
SWIDTH 500 0
DWIDTH 7 0
BBX 11 14 -2 -2
BITMAP 
0000
0ec0
0d80
0d00
0000
0f80
1800
3000
3e00
6000
6000
3e00
0000
0000
ENDCHAR
ENDFONT
